<svg width="21" height="21" viewBox="0 0 21 21" fill="none" xmlns="http://www.w3.org/2000/svg">
<path d="M10 2C10 1.46957 10.2107 0.960859 10.5858 0.585786C10.9609 0.210714 11.4696 0 12 0H19C19.5304 0 20.0391 0.210714 20.4142 0.585786C20.7893 0.960859 21 1.46957 21 2V8C21 8.53043 20.7893 9.03914 20.4142 9.41421C20.0391 9.78929 19.5304 10 19 10H12C11.4696 10 10.9609 9.78929 10.5858 9.41421C10.2107 9.03914 10 8.53043 10 8V2ZM12.5 3C12.3674 3 12.2402 3.05268 12.1464 3.14645C12.0527 3.24021 12 3.36739 12 3.5C12 3.63261 12.0527 3.75979 12.1464 3.85355C12.2402 3.94732 12.3674 4 12.5 4H18.5C18.6326 4 18.7598 3.94732 18.8536 3.85355C18.9473 3.75979 19 3.63261 19 3.5C19 3.36739 18.9473 3.24021 18.8536 3.14645C18.7598 3.05268 18.6326 3 18.5 3H12.5ZM12.5 6C12.3674 6 12.2402 6.05268 12.1464 6.14645C12.0527 6.24021 12 6.36739 12 6.5C12 6.63261 12.0527 6.75979 12.1464 6.85355C12.2402 6.94732 12.3674 7 12.5 7H18.5C18.6326 7 18.7598 6.94732 18.8536 6.85355C18.9473 6.75979 19 6.63261 19 6.5C19 6.36739 18.9473 6.24021 18.8536 6.14645C18.7598 6.05268 18.6326 6 18.5 6H12.5Z" fill="white"/>
<path d="M3.25 2H9V3.5H3.25C2.78587 3.5 2.34075 3.68437 2.01256 4.01256C1.68437 4.34075 1.5 4.78587 1.5 5.25V13.75C1.5 14.716 2.284 15.5 3.25 15.5H5.499V19.25L10.514 15.5H16.75C17.2141 15.5 17.6592 15.3156 17.9874 14.9874C18.3156 14.6592 18.5 14.2141 18.5 13.75V11H19C19.35 11 19.687 10.94 20 10.83V13.75C20 14.1768 19.9159 14.5994 19.7526 14.9937C19.5893 15.388 19.3499 15.7463 19.0481 16.0481C18.7463 16.3499 18.388 16.5893 17.9937 16.7526C17.5994 16.9159 17.1768 17 16.75 17H11.012L6 20.75C5.81428 20.889 5.59356 20.9736 5.36251 20.9943C5.13146 21.015 4.89922 20.971 4.69176 20.8672C4.4843 20.7634 4.30981 20.6039 4.18782 20.4066C4.06582 20.2093 4.00114 19.982 4.001 19.75V17H3.251C2.82412 17.0001 2.4014 16.9162 2.00697 16.7529C1.61255 16.5896 1.25415 16.3503 0.952256 16.0485C0.65036 15.7466 0.410877 15.3883 0.247487 14.994C0.0840967 14.5996 -2.02073e-08 14.1769 0 13.75V5.25C0 4.38805 0.34241 3.5614 0.951903 2.9519C1.5614 2.34241 2.38805 2 3.25 2Z" fill="white"/>
</svg>
