<svg width="16" height="16" viewBox="0 0 16 16" fill="none" xmlns="http://www.w3.org/2000/svg">
<g clip-path="url(#clip0_579_8430)">
<path d="M13.334 1.3335H2.66732C1.93398 1.3335 1.33398 1.9335 1.33398 2.66683V14.6668L4.00065 12.0002H13.334C14.0673 12.0002 14.6673 11.4002 14.6673 10.6668V2.66683C14.6673 1.9335 14.0673 1.3335 13.334 1.3335ZM8.66732 9.3335H7.33398V8.00016H8.66732V9.3335ZM8.00065 6.66683C7.63398 6.66683 7.33398 6.36683 7.33398 6.00016V4.66683C7.33398 4.30016 7.63398 4.00016 8.00065 4.00016C8.36732 4.00016 8.66732 4.30016 8.66732 4.66683V6.00016C8.66732 6.36683 8.36732 6.66683 8.00065 6.66683Z" fill="#767676"/>
</g>
<defs>
<clipPath id="clip0_579_8430">
<rect width="16" height="16" fill="white"/>
</clipPath>
</defs>
</svg>
