<svg width="16" height="16" viewBox="0 0 16 16" fill="none" xmlns="http://www.w3.org/2000/svg">
<path d="M12.6667 1.33333H9.88C9.6 0.56 8.86667 0 8 0C7.13333 0 6.4 0.56 6.12 1.33333H3.33333C2.6 1.33333 2 1.93333 2 2.66667V13.3333C2 14.0667 2.6 14.6667 3.33333 14.6667H12.6667C13.4 14.6667 14 14.0667 14 13.3333V2.66667C14 1.93333 13.4 1.33333 12.6667 1.33333ZM8 1.33333C8.36667 1.33333 8.66667 1.63333 8.66667 2C8.66667 2.36667 8.36667 2.66667 8 2.66667C7.63333 2.66667 7.33333 2.36667 7.33333 2C7.33333 1.63333 7.63333 1.33333 8 1.33333ZM12 13.3333H4C3.63333 13.3333 3.33333 13.0333 3.33333 12.6667V3.33333C3.33333 2.96667 3.63333 2.66667 4 2.66667H4.66667V3.33333C4.66667 4.06667 5.26667 4.66667 6 4.66667H10C10.7333 4.66667 11.3333 4.06667 11.3333 3.33333V2.66667H12C12.3667 2.66667 12.6667 2.96667 12.6667 3.33333V12.6667C12.6667 13.0333 12.3667 13.3333 12 13.3333Z" fill="#767676"/>
<path d="M6.98387 9.90511L5.87177 8.79301C5.74785 8.66909 5.55084 8.66909 5.42692 8.79301C5.303 8.91693 5.303 9.11393 5.42692 9.23785L6.75827 10.5692C6.88219 10.6931 7.08237 10.6931 7.20629 10.5692L10.5744 7.20429C10.6983 7.08037 10.6983 6.88336 10.5744 6.75944C10.4505 6.63552 10.2535 6.63552 10.1295 6.75944L6.98387 9.90511Z" fill="#767676"/>
</svg>
