<svg width="15" height="15" viewBox="0 0 15 15" fill="none" xmlns="http://www.w3.org/2000/svg">
<g clip-path="url(#clip0_579_8234)">
<path d="M13.3237 3.33105H1.66481C1.44394 3.33105 1.23212 3.41879 1.07595 3.57497C0.91977 3.73115 0.832031 3.94297 0.832031 4.16383V10.8261C0.832031 11.0469 0.91977 11.2587 1.07595 11.4149C1.23212 11.5711 1.44394 11.6588 1.66481 11.6588H13.3237C13.5446 11.6588 13.7564 11.5711 13.9126 11.4149C14.0687 11.2587 14.1565 11.0469 14.1565 10.8261V4.16383C14.1565 3.94297 14.0687 3.73115 13.9126 3.57497C13.7564 3.41879 13.5446 3.33105 13.3237 3.33105ZM1.66481 10.8261V8.80657C2.18533 8.84489 2.6743 9.07066 3.04105 9.44201C3.40781 9.81336 3.62747 10.3051 3.65931 10.8261H1.66481ZM1.66481 6.18332V4.16383H3.65931C3.62747 4.68479 3.40781 5.17653 3.04105 5.54788C2.6743 5.91923 2.18533 6.145 1.66481 6.18332ZM7.49425 10.4721C6.04938 10.4721 4.871 9.13552 4.871 7.49494C4.871 5.85437 6.04938 4.51776 7.49425 4.51776C8.93912 4.51776 10.1175 5.85437 10.1175 7.49494C10.1175 9.13552 8.93912 10.4721 7.49425 10.4721ZM13.3237 10.8261H11.3458C11.3772 10.3077 11.5945 9.81814 11.9578 9.44716C12.3212 9.07618 12.8061 8.84873 13.3237 8.80657V10.8261ZM13.3237 6.18332C12.8061 6.14116 12.3212 5.91371 11.9578 5.54273C11.5945 5.17175 11.3772 4.68215 11.3458 4.16383H13.3237V6.18332Z" fill="#0688EE"/>
<path d="M7.49563 9.4605C8.41549 9.4605 9.16119 8.58058 9.16119 7.49514C9.16119 6.4097 8.41549 5.52979 7.49563 5.52979C6.57577 5.52979 5.83008 6.4097 5.83008 7.49514C5.83008 8.58058 6.57577 9.4605 7.49563 9.4605Z" fill="#0688EE"/>
</g>
<defs>
<clipPath id="clip0_579_8234">
<rect width="14.99" height="14.99" fill="white"/>
</clipPath>
</defs>
</svg>
