<svg width="14" height="14" viewBox="0 0 14 14" fill="none" xmlns="http://www.w3.org/2000/svg">
<path d="M12.334 0.333496H1.66732C0.933984 0.333496 0.333984 0.933496 0.333984 1.66683V13.6668L3.00065 11.0002H12.334C13.0673 11.0002 13.6673 10.4002 13.6673 9.66683V1.66683C13.6673 0.933496 13.0673 0.333496 12.334 0.333496ZM7.66732 8.3335H6.33398V7.00016H7.66732V8.3335ZM7.00065 5.66683C6.63398 5.66683 6.33398 5.36683 6.33398 5.00016V3.66683C6.33398 3.30016 6.63398 3.00016 7.00065 3.00016C7.36732 3.00016 7.66732 3.30016 7.66732 3.66683V5.00016C7.66732 5.36683 7.36732 5.66683 7.00065 5.66683Z" fill="#0688EE"/>
</svg>
