<svg width="13" height="10" viewBox="0 0 13 10" fill="none" xmlns="http://www.w3.org/2000/svg">
<path d="M1.66602 4C1.11268 4 0.666016 4.44667 0.666016 5C0.666016 5.55333 1.11268 6 1.66602 6C2.21935 6 2.66602 5.55333 2.66602 5C2.66602 4.44667 2.21935 4 1.66602 4ZM1.66602 0C1.11268 0 0.666016 0.446667 0.666016 1C0.666016 1.55333 1.11268 2 1.66602 2C2.21935 2 2.66602 1.55333 2.66602 1C2.66602 0.446667 2.21935 0 1.66602 0ZM1.66602 8C1.11268 8 0.666016 8.45333 0.666016 9C0.666016 9.54667 1.11935 10 1.66602 10C2.21268 10 2.66602 9.54667 2.66602 9C2.66602 8.45333 2.21935 8 1.66602 8ZM3.66602 9.66667H12.9993V8.33333H3.66602V9.66667ZM3.66602 5.66667H12.9993V4.33333H3.66602V5.66667ZM3.66602 0.333333V1.66667H12.9993V0.333333H3.66602Z" fill="#767676"/>
</svg>
