<svg width="18" height="16" viewBox="0 0 18 16" fill="none" xmlns="http://www.w3.org/2000/svg">
<path fill-rule="evenodd" clip-rule="evenodd" d="M13.0961 13.333C13.5824 13.333 14.0488 13.1574 14.3926 12.8449C14.7364 12.5323 14.9296 12.1084 14.9296 11.6663C14.9296 11.2243 14.7364 10.8004 14.3926 10.4878C14.0488 10.1753 13.5824 9.99967 13.0961 9.99967C12.6099 9.99967 12.1435 10.1753 11.7997 10.4878C11.4558 10.8004 11.2627 11.2243 11.2627 11.6663C11.2627 12.1084 11.4558 12.5323 11.7997 12.8449C12.1435 13.1574 12.6099 13.333 13.0961 13.333ZM13.0961 13.9997C13.7769 13.9997 14.4298 13.7538 14.9112 13.3163C15.3926 12.8787 15.663 12.2852 15.663 11.6663C15.663 11.0475 15.3926 10.454 14.9112 10.0164C14.4298 9.57884 13.7769 9.33301 13.0961 9.33301C12.4154 9.33301 11.7625 9.57884 11.2811 10.0164C10.7997 10.454 10.5293 11.0475 10.5293 11.6663C10.5293 12.2852 10.7997 12.8787 11.2811 13.3163C11.7625 13.7538 12.4154 13.9997 13.0961 13.9997Z" fill="#767676"/>
<path fill-rule="evenodd" clip-rule="evenodd" d="M13.096 10.5C13.1933 10.5 13.2865 10.5351 13.3553 10.5976C13.4241 10.6601 13.4627 10.7449 13.4627 10.8333V11.5287L13.722 11.7643C13.7888 11.8272 13.8257 11.9114 13.8249 11.9988C13.824 12.0862 13.7855 12.1698 13.7175 12.2316C13.6495 12.2934 13.5575 12.3285 13.4614 12.3292C13.3652 12.33 13.2726 12.2964 13.2035 12.2357L12.7293 11.8047V10.8333C12.7293 10.7449 12.768 10.6601 12.8367 10.5976C12.9055 10.5351 12.9988 10.5 13.096 10.5ZM5.39548 7.66667H4.6621V8.33333H5.39548V7.66667ZM4.6621 7C4.46759 7 4.28105 7.07024 4.14351 7.19526C4.00598 7.32029 3.92871 7.48986 3.92871 7.66667V8.33333C3.92871 8.51014 4.00598 8.67971 4.14351 8.80474C4.28105 8.92976 4.46759 9 4.6621 9H5.39548C5.58999 9 5.77652 8.92976 5.91406 8.80474C6.0516 8.67971 6.12886 8.51014 6.12886 8.33333V7.66667C6.12886 7.48986 6.0516 7.32029 5.91406 7.19526C5.77652 7.07024 5.58999 7 5.39548 7H4.6621ZM8.32902 7.66667H7.59563V8.33333H8.32902V7.66667ZM7.59563 7C7.40113 7 7.21459 7.07024 7.07705 7.19526C6.93952 7.32029 6.86225 7.48986 6.86225 7.66667V8.33333C6.86225 8.51014 6.93952 8.67971 7.07705 8.80474C7.21459 8.92976 7.40113 9 7.59563 9H8.32902C8.52352 9 8.71006 8.92976 8.8476 8.80474C8.98513 8.67971 9.0624 8.51014 9.0624 8.33333V7.66667C9.0624 7.48986 8.98513 7.32029 8.8476 7.19526C8.71006 7.07024 8.52352 7 8.32902 7H7.59563ZM11.2626 7.66667H10.5292V8.33333H11.2626V7.66667ZM10.5292 7C10.3347 7 10.1481 7.07024 10.0106 7.19526C9.87305 7.32029 9.79578 7.48986 9.79578 7.66667V8.33333C9.79578 8.51014 9.87305 8.67971 10.0106 8.80474C10.1481 8.92976 10.3347 9 10.5292 9H11.2626C11.4571 9 11.6436 8.92976 11.7811 8.80474C11.9187 8.67971 11.9959 8.51014 11.9959 8.33333V7.66667C11.9959 7.48986 11.9187 7.32029 11.7811 7.19526C11.6436 7.07024 11.4571 7 11.2626 7H10.5292ZM5.39548 10.3333H4.6621V11H5.39548V10.3333ZM4.6621 9.66667C4.46759 9.66667 4.28105 9.7369 4.14351 9.86193C4.00598 9.98695 3.92871 10.1565 3.92871 10.3333V11C3.92871 11.1768 4.00598 11.3464 4.14351 11.4714C4.28105 11.5964 4.46759 11.6667 4.6621 11.6667H5.39548C5.58999 11.6667 5.77652 11.5964 5.91406 11.4714C6.0516 11.3464 6.12886 11.1768 6.12886 11V10.3333C6.12886 10.1565 6.0516 9.98695 5.91406 9.86193C5.77652 9.7369 5.58999 9.66667 5.39548 9.66667H4.6621ZM8.32902 10.3333H7.59563V11H8.32902V10.3333ZM7.59563 9.66667C7.40113 9.66667 7.21459 9.7369 7.07705 9.86193C6.93952 9.98695 6.86225 10.1565 6.86225 10.3333V11C6.86225 11.1768 6.93952 11.3464 7.07705 11.4714C7.21459 11.5964 7.40113 11.6667 7.59563 11.6667H8.32902C8.52352 11.6667 8.71006 11.5964 8.8476 11.4714C8.98513 11.3464 9.0624 11.1768 9.0624 11V10.3333C9.0624 10.1565 8.98513 9.98695 8.8476 9.86193C8.71006 9.7369 8.52352 9.66667 8.32902 9.66667H7.59563Z" fill="#767676"/>
<path fill-rule="evenodd" clip-rule="evenodd" d="M3.1953 4C3.1953 3.91159 3.23393 3.82681 3.3027 3.7643C3.37147 3.70179 3.46474 3.66667 3.56199 3.66667H5.39545V3H3.56199C3.27023 3 2.99042 3.10536 2.78412 3.29289C2.57781 3.48043 2.46191 3.73478 2.46191 4V12C2.46191 12.2652 2.57781 12.5196 2.78412 12.7071C2.99042 12.8946 3.27023 13 3.56199 13H10.9893C10.833 12.7964 10.7135 12.5713 10.6355 12.3333H3.56199C3.46474 12.3333 3.37147 12.2982 3.3027 12.2357C3.23393 12.1732 3.1953 12.0884 3.1953 12V4ZM12.7293 9.35667C12.9725 9.32504 13.2195 9.32504 13.4627 9.35667V4C13.4627 3.73478 13.3468 3.48043 13.1405 3.29289C12.9342 3.10536 12.6544 3 12.3626 3H11.2625V3.66667H12.3626C12.4599 3.66667 12.5531 3.70179 12.6219 3.7643C12.6907 3.82681 12.7293 3.91159 12.7293 4V9.35667ZM6.12884 3.66667H10.0022V3H6.12884V3.66667Z" fill="#767676"/>
<path fill-rule="evenodd" clip-rule="evenodd" d="M10.5287 3H6.12835V4C6.12835 4.08841 6.08972 4.17319 6.02095 4.2357C5.95218 4.29821 5.85891 4.33333 5.76166 4.33333C5.66441 4.33333 5.57114 4.29821 5.50237 4.2357C5.4336 4.17319 5.39497 4.08841 5.39497 4V3H3.56151C3.367 3 3.18046 3.07024 3.04293 3.19526C2.90539 3.32029 2.82813 3.48986 2.82812 3.66667V5.33333C2.82813 5.51014 2.90539 5.67971 3.04293 5.80474C3.18046 5.92976 3.367 6 3.56151 6H12.3621C12.5566 6 12.7432 5.92976 12.8807 5.80474C13.0182 5.67971 13.0955 5.51014 13.0955 5.33333V3.66667C13.0955 3.48986 13.0182 3.32029 12.8807 3.19526C12.7432 3.07024 12.5566 3 12.3621 3H11.262V4C11.262 4.08841 11.2234 4.17319 11.1546 4.2357C11.0859 4.29821 10.9926 4.33333 10.8954 4.33333C10.7981 4.33333 10.7048 4.29821 10.6361 4.2357C10.5673 4.17319 10.5287 4.08841 10.5287 4V3Z" fill="#767676"/>
<path fill-rule="evenodd" clip-rule="evenodd" d="M13.4627 5.99967H3.19531V5.33301H13.4627V5.99967Z" fill="#767676"/>
<path d="M4.66211 2.33333C4.66211 2.24493 4.70074 2.16014 4.76951 2.09763C4.83828 2.03512 4.93155 2 5.0288 2C5.12605 2 5.21932 2.03512 5.28809 2.09763C5.35686 2.16014 5.39549 2.24493 5.39549 2.33333V3.66667C5.39549 3.75507 5.35686 3.83986 5.28809 3.90237C5.21932 3.96488 5.12605 4 5.0288 4C4.93155 4 4.83828 3.96488 4.76951 3.90237C4.70074 3.83986 4.66211 3.75507 4.66211 3.66667V2.33333ZM9.7958 2.33333C9.7958 2.24493 9.83443 2.16014 9.9032 2.09763C9.97197 2.03512 10.0652 2 10.1625 2C10.2597 2 10.353 2.03512 10.4218 2.09763C10.4906 2.16014 10.5292 2.24493 10.5292 2.33333V3.66667C10.5292 3.75507 10.4906 3.83986 10.4218 3.90237C10.353 3.96488 10.2597 4 10.1625 4C10.0652 4 9.97197 3.96488 9.9032 3.90237C9.83443 3.83986 9.7958 3.75507 9.7958 3.66667V2.33333Z" fill="#767676"/>
</svg>
