<svg width="13" height="12" viewBox="0 0 13 12" fill="none" xmlns="http://www.w3.org/2000/svg">
<g clip-path="url(#clip0_2002_2508)">
<path d="M12.3047 6C12.3047 7.5913 11.6725 9.11742 10.5473 10.2426C9.42211 11.3679 7.89599 12 6.30469 12C4.71339 12 3.18727 11.3679 2.06205 10.2426C0.936829 9.11742 0.304688 7.5913 0.304688 6C0.304688 4.4087 0.936829 2.88258 2.06205 1.75736C3.18727 0.632141 4.71339 0 6.30469 0C7.89599 0 9.42211 0.632141 10.5473 1.75736C11.6725 2.88258 12.3047 4.4087 12.3047 6ZM6.67969 3.375C6.67969 3.27554 6.64018 3.18016 6.56985 3.10984C6.49953 3.03951 6.40414 3 6.30469 3C6.20523 3 6.10985 3.03951 6.03952 3.10984C5.9692 3.18016 5.92969 3.27554 5.92969 3.375V7.71975L4.32019 6.1095C4.24977 6.03908 4.15427 5.99953 4.05469 5.99953C3.95511 5.99953 3.8596 6.03908 3.78919 6.1095C3.71877 6.17991 3.67921 6.27542 3.67921 6.375C3.67921 6.47458 3.71877 6.57009 3.78919 6.6405L6.03919 8.8905C6.07402 8.92542 6.1154 8.95313 6.16096 8.97203C6.20652 8.99094 6.25536 9.00067 6.30469 9.00067C6.35401 9.00067 6.40285 8.99094 6.44841 8.97203C6.49397 8.95313 6.53535 8.92542 6.57019 8.8905L8.82019 6.6405C8.8906 6.57009 8.93016 6.47458 8.93016 6.375C8.93016 6.27542 8.8906 6.17991 8.82019 6.1095C8.74977 6.03908 8.65427 5.99953 8.55469 5.99953C8.45511 5.99953 8.3596 6.03908 8.28919 6.1095L6.67969 7.71975V3.375Z" fill="#207CDC"/>
</g>
<defs>
<clipPath id="clip0_2002_2508">
<rect width="12" height="12" fill="white" transform="translate(0.304688)"/>
</clipPath>
</defs>
</svg>
