<svg width="20" height="20" viewBox="0 0 20 20" fill="none" xmlns="http://www.w3.org/2000/svg">
<path d="M5.83333 14.1663H7.58333L12.5833 9.20801L10.7917 7.41634L5.83333 12.3747V14.1663ZM13.1667 8.62467L14.0417 7.70801C14.125 7.62467 14.1667 7.52745 14.1667 7.41634C14.1667 7.30523 14.125 7.20801 14.0417 7.12467L12.875 5.95801C12.7917 5.87467 12.6944 5.83301 12.5833 5.83301C12.4722 5.83301 12.375 5.87467 12.2917 5.95801L11.375 6.83301L13.1667 8.62467ZM4.16667 17.4997C3.70833 17.4997 3.31583 17.3366 2.98917 17.0105C2.66306 16.6838 2.5 16.2913 2.5 15.833V4.16634C2.5 3.70801 2.66306 3.31551 2.98917 2.98884C3.31583 2.66273 3.70833 2.49967 4.16667 2.49967H7.66667C7.84722 1.99967 8.14944 1.5969 8.57333 1.29134C8.99667 0.985786 9.47222 0.833008 10 0.833008C10.5278 0.833008 11.0036 0.985786 11.4275 1.29134C11.8508 1.5969 12.1528 1.99967 12.3333 2.49967H15.8333C16.2917 2.49967 16.6842 2.66273 17.0108 2.98884C17.3369 3.31551 17.5 3.70801 17.5 4.16634V15.833C17.5 16.2913 17.3369 16.6838 17.0108 17.0105C16.6842 17.3366 16.2917 17.4997 15.8333 17.4997H4.16667ZM4.16667 15.833H15.8333V4.16634H4.16667V15.833ZM10 3.54134C10.1806 3.54134 10.33 3.48217 10.4483 3.36384C10.5661 3.24606 10.625 3.0969 10.625 2.91634C10.625 2.73579 10.5661 2.58634 10.4483 2.46801C10.33 2.35023 10.1806 2.29134 10 2.29134C9.81944 2.29134 9.67028 2.35023 9.5525 2.46801C9.43417 2.58634 9.375 2.73579 9.375 2.91634C9.375 3.0969 9.43417 3.24606 9.5525 3.36384C9.67028 3.48217 9.81944 3.54134 10 3.54134ZM4.16667 15.833V4.16634V15.833Z" fill="#207CDC"/>
</svg>
