<svg width="16" height="16" viewBox="0 0 16 16" fill="none" xmlns="http://www.w3.org/2000/svg">
<path d="M4.00065 13.3327C4.00065 14.066 4.60065 14.666 5.33398 14.666H10.6673C11.4007 14.666 12.0007 14.066 12.0007 13.3327V6.66602C12.0007 5.93268 11.4007 5.33268 10.6673 5.33268H5.33398C4.60065 5.33268 4.00065 5.93268 4.00065 6.66602V13.3327ZM12.0007 3.33268H10.334L9.86065 2.85935C9.74065 2.73935 9.56732 2.66602 9.39398 2.66602H6.60732C6.43398 2.66602 6.26065 2.73935 6.14065 2.85935L5.66732 3.33268H4.00065C3.63398 3.33268 3.33398 3.63268 3.33398 3.99935C3.33398 4.36602 3.63398 4.66602 4.00065 4.66602H12.0007C12.3673 4.66602 12.6673 4.36602 12.6673 3.99935C12.6673 3.63268 12.3673 3.33268 12.0007 3.33268Z" fill="#207CDC"/>
</svg>
