<svg width="13" height="13" viewBox="0 0 13 13" fill="none" xmlns="http://www.w3.org/2000/svg">
<path d="M2.75684 9.68992L5.79841 9.67992L12.4371 3.31992C12.6976 3.06792 12.841 2.73325 12.841 2.37725C12.841 2.02125 12.6976 1.68658 12.4371 1.43458L11.344 0.37725C10.8229 -0.12675 9.91381 -0.124083 9.39689 0.37525L2.75684 6.73658V9.68992ZM10.3694 1.31992L11.4646 2.37525L10.3639 3.42992L9.27076 2.37325L10.3694 1.31992ZM4.1353 7.29258L8.29136 3.31058L9.38448 4.36792L5.22911 8.34858L4.1353 8.35192V7.29258Z" fill="#0688EE"/>
<path d="M1.37846 12.3477H11.0277C11.7879 12.3477 12.4062 11.7497 12.4062 11.0143V5.23566L11.0277 6.56899V11.0143H3.55505C3.53713 11.0143 3.51852 11.021 3.5006 11.021C3.47786 11.021 3.45511 11.015 3.43168 11.0143H1.37846V1.68099H6.09762L7.47609 0.347656H1.37846C0.61824 0.347656 0 0.945656 0 1.68099V11.0143C0 11.7497 0.61824 12.3477 1.37846 12.3477Z" fill="#0688EE"/>
</svg>
