<svg width="14" height="14" viewBox="0 0 14 14" fill="none" xmlns="http://www.w3.org/2000/svg">
<path d="M5.33301 5.99988H6.99968C7.17649 5.99988 7.34606 5.92965 7.47108 5.80462C7.59611 5.6796 7.66635 5.51003 7.66635 5.33322C7.66635 5.1564 7.59611 4.98684 7.47108 4.86181C7.34606 4.73679 7.17649 4.66655 6.99968 4.66655H6.33301V4.33322C6.33301 4.15641 6.26277 3.98684 6.13775 3.86181C6.01273 3.73679 5.84316 3.66655 5.66635 3.66655C5.48954 3.66655 5.31997 3.73679 5.19494 3.86181C5.06992 3.98684 4.99968 4.15641 4.99968 4.33322V4.69988C4.59463 4.78213 4.23459 5.01195 3.98945 5.34473C3.74431 5.6775 3.63157 6.08949 3.67311 6.50072C3.71465 6.91194 3.9075 7.29306 4.21424 7.57009C4.52097 7.84712 4.9197 8.0003 5.33301 7.99988H5.99968C6.08809 7.99988 6.17287 8.035 6.23538 8.09751C6.29789 8.16003 6.33301 8.24481 6.33301 8.33322C6.33301 8.42162 6.29789 8.50641 6.23538 8.56892C6.17287 8.63143 6.08809 8.66655 5.99968 8.66655H4.33301C4.1562 8.66655 3.98663 8.73679 3.86161 8.86181C3.73658 8.98684 3.66635 9.15641 3.66635 9.33322C3.66635 9.51003 3.73658 9.6796 3.86161 9.80462C3.98663 9.92965 4.1562 9.99988 4.33301 9.99988H4.99968V10.3332C4.99968 10.51 5.06992 10.6796 5.19494 10.8046C5.31997 10.9296 5.48954 10.9999 5.66635 10.9999C5.84316 10.9999 6.01273 10.9296 6.13775 10.8046C6.26277 10.6796 6.33301 10.51 6.33301 10.3332V9.96655C6.73806 9.8843 7.09811 9.65448 7.34324 9.32171C7.58838 8.98893 7.70112 8.57694 7.65958 8.16572C7.61805 7.75449 7.42519 7.37337 7.11846 7.09634C6.81172 6.81931 6.413 6.66613 5.99968 6.66655H5.33301C5.24461 6.66655 5.15982 6.63143 5.09731 6.56892C5.0348 6.50641 4.99968 6.42162 4.99968 6.33322C4.99968 6.24481 5.0348 6.16003 5.09731 6.09751C5.15982 6.035 5.24461 5.99988 5.33301 5.99988ZM12.9997 6.99988H10.9997V0.999883C11.0001 0.882409 10.9696 0.766899 10.911 0.665047C10.8525 0.563195 10.7681 0.478619 10.6663 0.419883C10.565 0.361371 10.45 0.330566 10.333 0.330566C10.216 0.330566 10.101 0.361371 9.99968 0.419883L7.99968 1.56655L5.99968 0.419883C5.89833 0.361371 5.78337 0.330566 5.66635 0.330566C5.54932 0.330566 5.43436 0.361371 5.33301 0.419883L3.33301 1.56655L1.33301 0.419883C1.23167 0.361371 1.1167 0.330566 0.99968 0.330566C0.882655 0.330566 0.767693 0.361371 0.666346 0.419883C0.56461 0.478619 0.480201 0.563195 0.421665 0.665047C0.36313 0.766899 0.332547 0.882409 0.333013 0.999883V11.6665C0.333013 12.197 0.543727 12.7057 0.9188 13.0808C1.29387 13.4558 1.80258 13.6665 2.33301 13.6665H11.6663C12.1968 13.6665 12.7055 13.4558 13.0806 13.0808C13.4556 12.7057 13.6663 12.197 13.6663 11.6665V7.66655C13.6663 7.48974 13.5961 7.32017 13.4711 7.19515C13.3461 7.07012 13.1765 6.99988 12.9997 6.99988ZM2.33301 12.3332C2.1562 12.3332 1.98663 12.263 1.86161 12.138C1.73658 12.0129 1.66635 11.8434 1.66635 11.6665V2.15322L2.99968 2.91322C3.10257 2.96696 3.21693 2.99502 3.33301 2.99502C3.44909 2.99502 3.56345 2.96696 3.66635 2.91322L5.66635 1.76655L7.66635 2.91322C7.76924 2.96696 7.8836 2.99502 7.99968 2.99502C8.11576 2.99502 8.23012 2.96696 8.33301 2.91322L9.66635 2.15322V11.6665C9.66815 11.894 9.70873 12.1194 9.78635 12.3332H2.33301ZM12.333 11.6665C12.333 11.8434 12.2628 12.0129 12.1378 12.138C12.0127 12.263 11.8432 12.3332 11.6663 12.3332C11.4895 12.3332 11.32 12.263 11.1949 12.138C11.0699 12.0129 10.9997 11.8434 10.9997 11.6665V8.33322H12.333V11.6665Z" fill="#45B4CE"/>
</svg>
