<svg width="14" height="14" viewBox="0 0 14 14" fill="none" xmlns="http://www.w3.org/2000/svg">
<path d="M0 3.53271V2.81308C0 2.29595 0.128637 1.82555 0.385911 1.40187C0.643185 0.978193 1.01123 0.638629 1.49005 0.383178C1.96886 0.127726 2.53701 0 3.19449 0C3.86626 0 4.43798 0.127726 4.90965 0.383178C5.38846 0.638629 5.75651 0.978193 6.01378 1.40187C6.27106 1.82555 6.39969 2.29595 6.39969 2.81308V3.53271C6.39969 4.03738 6.27106 4.50156 6.01378 4.92523C5.76366 5.34891 5.39918 5.68847 4.92037 5.94393C4.4487 6.19938 3.88055 6.3271 3.21593 6.3271C2.5513 6.3271 1.97601 6.19938 1.49005 5.94393C1.01123 5.68847 0.643185 5.34891 0.385911 4.92523C0.128637 4.50156 0 4.03738 0 3.53271ZM1.49005 2.81308V3.53271C1.49005 3.81931 1.55079 4.09034 1.67228 4.34579C1.80092 4.60125 1.99387 4.80997 2.25115 4.97196C2.50842 5.12773 2.83002 5.20561 3.21593 5.20561C3.60184 5.20561 3.91986 5.12773 4.16998 4.97196C4.42011 4.80997 4.60592 4.60125 4.72741 4.34579C4.8489 4.09034 4.90965 3.81931 4.90965 3.53271V2.81308C4.90965 2.52025 4.84533 2.24611 4.71669 1.99065C4.5952 1.72897 4.40582 1.52025 4.14855 1.36449C3.89842 1.20249 3.5804 1.1215 3.19449 1.1215C2.81572 1.1215 2.4977 1.20249 2.24043 1.36449C1.9903 1.52025 1.80092 1.72897 1.67228 1.99065C1.55079 2.24611 1.49005 2.52025 1.49005 2.81308ZM7.60031 11.1963V10.4673C7.60031 9.95639 7.72894 9.4891 7.98622 9.06542C8.24349 8.64174 8.61154 8.30218 9.09035 8.04673C9.56917 7.79128 10.1373 7.66355 10.7948 7.66355C11.4666 7.66355 12.0383 7.79128 12.51 8.04673C12.9888 8.30218 13.3568 8.64174 13.6141 9.06542C13.8714 9.4891 14 9.95639 14 10.4673V11.1963C14 11.7072 13.8714 12.1745 13.6141 12.5981C13.364 13.0218 12.9995 13.3614 12.5207 13.6168C12.049 13.8723 11.4809 14 10.8162 14C10.1516 14 9.57989 13.8723 9.10107 13.6168C8.62226 13.3614 8.25064 13.0218 7.98622 12.5981C7.72894 12.1745 7.60031 11.7072 7.60031 11.1963ZM9.09035 10.4673V11.1963C9.09035 11.4829 9.1511 11.757 9.27259 12.0187C9.40123 12.2741 9.59418 12.4829 9.85146 12.6449C10.1087 12.8006 10.4303 12.8785 10.8162 12.8785C11.2021 12.8785 11.5202 12.8006 11.7703 12.6449C12.0276 12.4829 12.2169 12.2741 12.3384 12.0187C12.4599 11.7632 12.5207 11.4891 12.5207 11.1963V10.4673C12.5207 10.1745 12.4564 9.90031 12.3277 9.64486C12.2062 9.38941 12.0168 9.1838 11.7596 9.02804C11.5094 8.86604 11.1879 8.78505 10.7948 8.78505C10.416 8.78505 10.098 8.86604 9.84074 9.02804C9.59061 9.1838 9.40123 9.38941 9.27259 9.64486C9.1511 9.90031 9.09035 10.1745 9.09035 10.4673ZM11.2879 2.13084L3.66616 12.7664L2.5513 12.1495L10.173 1.51402L11.2879 2.13084Z" fill="#45B4CE"/>
</svg>
