<svg width="16" height="12" viewBox="0 0 16 12" fill="none" xmlns="http://www.w3.org/2000/svg">
<path d="M4.00033 11.3334C3.44477 11.3334 2.97255 11.139 2.58366 10.7501C2.19477 10.3612 2.00033 9.88897 2.00033 9.33342C1.63366 9.33342 1.31988 9.20297 1.05899 8.94208C0.797659 8.68075 0.666992 8.36675 0.666992 8.00008V2.00008C0.666992 1.63341 0.797659 1.31964 1.05899 1.05875C1.31988 0.797415 1.63366 0.666748 2.00033 0.666748H10.0003C10.367 0.666748 10.681 0.797415 10.9423 1.05875C11.2032 1.31964 11.3337 1.63341 11.3337 2.00008V3.33341H13.0003C13.1114 3.33341 13.2114 3.35564 13.3003 3.40008C13.3892 3.44453 13.467 3.51119 13.5337 3.60008L15.2003 5.81675C15.2448 5.8723 15.2781 5.93341 15.3003 6.00008C15.3225 6.06675 15.3337 6.13897 15.3337 6.21675V8.66675C15.3337 8.85564 15.2697 9.01386 15.1417 9.14141C15.0141 9.26941 14.8559 9.33342 14.667 9.33342H14.0003C14.0003 9.88897 13.8059 10.3612 13.417 10.7501C13.0281 11.139 12.5559 11.3334 12.0003 11.3334C11.4448 11.3334 10.9725 11.139 10.5837 10.7501C10.1948 10.3612 10.0003 9.88897 10.0003 9.33342H6.00033C6.00033 9.88897 5.80588 10.3612 5.41699 10.7501C5.0281 11.139 4.55588 11.3334 4.00033 11.3334ZM4.00033 10.0001C4.18921 10.0001 4.34766 9.93608 4.47566 9.80808C4.60321 9.68053 4.66699 9.5223 4.66699 9.33342C4.66699 9.14453 4.60321 8.9863 4.47566 8.85875C4.34766 8.73075 4.18921 8.66675 4.00033 8.66675C3.81144 8.66675 3.65299 8.73075 3.52499 8.85875C3.39744 8.9863 3.33366 9.14453 3.33366 9.33342C3.33366 9.5223 3.39744 9.68053 3.52499 9.80808C3.65299 9.93608 3.81144 10.0001 4.00033 10.0001ZM2.00033 2.00008V8.00008H2.53366C2.72255 7.80008 2.93921 7.63897 3.18366 7.51675C3.4281 7.39453 3.70033 7.33342 4.00033 7.33342C4.30033 7.33342 4.57255 7.39453 4.81699 7.51675C5.06144 7.63897 5.2781 7.80008 5.46699 8.00008H10.0003V2.00008H2.00033ZM12.0003 10.0001C12.1892 10.0001 12.3474 9.93608 12.475 9.80808C12.603 9.68053 12.667 9.5223 12.667 9.33342C12.667 9.14453 12.603 8.9863 12.475 8.85875C12.3474 8.73075 12.1892 8.66675 12.0003 8.66675C11.8114 8.66675 11.6532 8.73075 11.5257 8.85875C11.3977 8.9863 11.3337 9.14453 11.3337 9.33342C11.3337 9.5223 11.3977 9.68053 11.5257 9.80808C11.6532 9.93608 11.8114 10.0001 12.0003 10.0001ZM11.3337 6.66675H14.167L12.667 4.66675H11.3337V6.66675Z" fill="#45B4CE"/>
</svg>
