<svg width="14" height="14" viewBox="0 0 14 14" fill="none" xmlns="http://www.w3.org/2000/svg">
<path d="M6.35267 0.693319C6.5507 0.583344 6.77348 0.525635 7 0.525635C7.22652 0.525635 7.4493 0.583344 7.64733 0.693319L12.6573 3.47599C12.7612 3.53375 12.8477 3.61822 12.908 3.72067C12.9682 3.82311 13 3.9398 13 4.05865V9.54865C12.9999 9.78642 12.9363 10.0198 12.8157 10.2247C12.6951 10.4296 12.5219 10.5986 12.314 10.714L7.64733 13.3073C7.4493 13.4173 7.22652 13.475 7 13.475C6.77348 13.475 6.5507 13.4173 6.35267 13.3073L1.686 10.714C1.47824 10.5986 1.30509 10.4298 1.18448 10.225C1.06386 10.0203 1.00018 9.78697 1 9.54932V4.05865C0.999995 3.9398 1.03176 3.82311 1.09201 3.72067C1.15226 3.61822 1.2388 3.53375 1.34267 3.47599L6.35333 0.693319H6.35267Z" stroke="#45B4CE" stroke-linecap="round" stroke-linejoin="round"/>
<path d="M1 3.66675L7 7.00008M7 7.00008L13 3.66675M7 7.00008V13.3334" stroke="#45B4CE" stroke-linejoin="round"/>
<path d="M4 5.33333L10 2M3 7.21867L5 8.33333" stroke="#45B4CE" stroke-linecap="round" stroke-linejoin="round"/>
</svg>
