<svg width="8" height="14" viewBox="0 0 8 14" fill="none" xmlns="http://www.w3.org/2000/svg">
<path d="M4.56602 0V2.24737H3.35165V0H4.56602ZM4.42029 12.0326V14H3.21402V12.0326H4.42029ZM6.03945 9.70421C6.03945 9.40947 5.96659 9.14421 5.82086 8.90842C5.67514 8.67263 5.43496 8.45649 5.10034 8.26C4.76571 8.06351 4.31775 7.88175 3.75644 7.71474C3.07639 7.52316 2.4881 7.28982 1.99156 7.01474C1.50042 6.73965 1.11992 6.39825 0.850056 5.99053C0.585594 5.58281 0.453363 5.08912 0.453363 4.50947C0.453363 3.90526 0.596389 3.38456 0.88244 2.94737C1.16849 2.51018 1.57328 2.17368 2.09681 1.93789C2.62033 1.70211 3.23561 1.58421 3.94264 1.58421C4.49316 1.58421 4.9843 1.66035 5.41607 1.81263C5.84785 1.96 6.21216 2.18105 6.509 2.47579C6.81125 2.77053 7.04063 3.13158 7.19714 3.55895C7.35906 3.98632 7.44002 4.48 7.44002 5.04H5.9504C5.9504 4.71088 5.90722 4.40877 5.82086 4.13368C5.73451 3.8586 5.60498 3.62035 5.43227 3.41895C5.25956 3.21263 5.04907 3.05544 4.8008 2.94737C4.55252 2.83439 4.26647 2.77789 3.94264 2.77789C3.48928 2.77789 3.11418 2.84912 2.81733 2.99158C2.52588 3.13403 2.30999 3.33544 2.16967 3.59579C2.02934 3.85123 1.95918 4.14842 1.95918 4.48737C1.95918 4.80175 2.02934 5.07684 2.16967 5.31263C2.30999 5.54842 2.54747 5.7621 2.8821 5.95368C3.22212 6.14035 3.68898 6.32456 4.28267 6.50632C4.9789 6.70772 5.56989 6.94596 6.05564 7.22105C6.54139 7.49123 6.91109 7.82526 7.16476 8.22316C7.41843 8.61614 7.54526 9.10491 7.54526 9.68947C7.54526 10.3232 7.38874 10.8586 7.07571 11.2958C6.76267 11.7281 6.3228 12.0572 5.7561 12.2832C5.18939 12.5091 4.52554 12.6221 3.76454 12.6221C3.30578 12.6221 2.85241 12.5656 2.40445 12.4526C1.95648 12.3396 1.55169 12.1554 1.19008 11.9C0.828468 11.6396 0.539718 11.2982 0.323831 10.8758C0.107944 10.4484 0 9.92526 0 9.30632H1.50581C1.50581 9.72386 1.57058 10.0702 1.70011 10.3453C1.83504 10.6154 2.01315 10.8316 2.23443 10.9937C2.45572 11.1509 2.69859 11.2639 2.96305 11.3326C3.23291 11.3965 3.50007 11.4284 3.76454 11.4284C4.25028 11.4284 4.66047 11.3596 4.99509 11.2221C5.33512 11.0796 5.59418 10.8782 5.77229 10.6179C5.9504 10.3575 6.03945 10.053 6.03945 9.70421Z" fill="#45B4CE"/>
</svg>
