<svg width="16" height="16" viewBox="0 0 16 16" fill="none" xmlns="http://www.w3.org/2000/svg">
<path d="M14.4005 5.33345C14.3192 5.33378 14.2389 5.31554 14.1658 5.28011L8.00047 2.13345L1.83514 5.25878C1.70359 5.32102 1.55271 5.32845 1.41568 5.27944C1.27865 5.23043 1.16671 5.12899 1.10447 4.99745C1.04223 4.8659 1.0348 4.71501 1.08381 4.57799C1.13282 4.44096 1.23426 4.32902 1.3658 4.26678L8.00047 0.981445L14.6351 4.26678C14.775 4.29945 14.8963 4.3859 14.9729 4.5074C15.0495 4.6289 15.0751 4.77567 15.0443 4.91593C15.0134 5.0562 14.9285 5.17866 14.808 5.25681C14.6876 5.33495 14.5411 5.36248 14.4005 5.33345ZM5.3338 10.6668H2.1338V13.8668H5.3338V10.6668ZM9.60047 10.6668H6.40047V13.8668H9.60047V10.6668ZM13.8671 10.6668H10.6671V13.8668H13.8671V10.6668ZM11.7338 6.40011H8.5338V9.60011H11.7338V6.40011ZM7.46714 6.40011H4.26714V9.60011H7.46714V6.40011Z" fill="#207CDC"/>
</svg>
