<svg width="16" height="16" viewBox="0 0 16 16" fill="none" xmlns="http://www.w3.org/2000/svg">
<path d="M8 1.99984C8 1.64622 8.14048 1.30708 8.39052 1.05703C8.64057 0.80698 8.97971 0.666504 9.33333 0.666504H14C14.3536 0.666504 14.6928 0.80698 14.9428 1.05703C15.1929 1.30708 15.3333 1.64622 15.3333 1.99984V5.99984C15.3333 6.35346 15.1929 6.6926 14.9428 6.94265C14.6928 7.19269 14.3536 7.33317 14 7.33317H9.33333C8.97971 7.33317 8.64057 7.19269 8.39052 6.94265C8.14048 6.6926 8 6.35346 8 5.99984V1.99984ZM9.66667 2.6665C9.57826 2.6665 9.49348 2.70162 9.43096 2.76413C9.36845 2.82665 9.33333 2.91143 9.33333 2.99984C9.33333 3.08824 9.36845 3.17303 9.43096 3.23554C9.49348 3.29805 9.57826 3.33317 9.66667 3.33317H13.6667C13.7551 3.33317 13.8399 3.29805 13.9024 3.23554C13.9649 3.17303 14 3.08824 14 2.99984C14 2.91143 13.9649 2.82665 13.9024 2.76413C13.8399 2.70162 13.7551 2.6665 13.6667 2.6665H9.66667ZM9.66667 4.6665C9.57826 4.6665 9.49348 4.70162 9.43096 4.76413C9.36845 4.82665 9.33333 4.91143 9.33333 4.99984C9.33333 5.08824 9.36845 5.17303 9.43096 5.23554C9.49348 5.29805 9.57826 5.33317 9.66667 5.33317H13.6667C13.7551 5.33317 13.8399 5.29805 13.9024 5.23554C13.9649 5.17303 14 5.08824 14 4.99984C14 4.91143 13.9649 4.82665 13.9024 4.76413C13.8399 4.70162 13.7551 4.6665 13.6667 4.6665H9.66667Z" fill="#0688EE"/>
<path d="M3.49967 2H7.33301V3H3.49967C3.19026 3 2.89351 3.12292 2.67472 3.34171C2.45592 3.5605 2.33301 3.85725 2.33301 4.16667V9.83333C2.33301 10.4773 2.85567 11 3.49967 11H4.99901V13.5L8.34234 11H12.4997C12.8091 11 13.1058 10.8771 13.3246 10.6583C13.5434 10.4395 13.6663 10.1428 13.6663 9.83333V8H13.9997C14.233 8 14.4577 7.96 14.6663 7.88667V9.83333C14.6663 10.1179 14.6103 10.3996 14.5014 10.6625C14.3925 10.9254 14.2329 11.1642 14.0317 11.3654C13.8305 11.5666 13.5917 11.7262 13.3288 11.8351C13.0659 11.944 12.7842 12 12.4997 12H8.67434L5.33301 14.5C5.2092 14.5927 5.06204 14.649 4.90801 14.6628C4.75398 14.6766 4.59915 14.6473 4.46085 14.5781C4.32254 14.5089 4.20621 14.4026 4.12489 14.2711C4.04356 14.1396 4.00043 13.988 4.00034 13.8333V12H3.50034C3.21575 12.0001 2.93394 11.9441 2.67099 11.8353C2.40804 11.7264 2.16911 11.5668 1.96785 11.3656C1.76658 11.1644 1.60693 10.9256 1.498 10.6626C1.38907 10.3997 1.33301 10.1179 1.33301 9.83333V4.16667C1.33301 3.59203 1.56128 3.04093 1.96761 2.6346C2.37394 2.22827 2.92504 2 3.49967 2Z" fill="#0688EE"/>
</svg>
