<svg width="16" height="18" viewBox="0 0 16 18" fill="none" xmlns="http://www.w3.org/2000/svg">
<path d="M3.83333 14.1666H5.58333L10.5833 9.20825L8.79167 7.41658L3.83333 12.3749V14.1666ZM11.1667 8.62492L12.0417 7.70825C12.125 7.62492 12.1667 7.5277 12.1667 7.41658C12.1667 7.30547 12.125 7.20825 12.0417 7.12492L10.875 5.95825C10.7917 5.87492 10.6944 5.83325 10.5833 5.83325C10.4722 5.83325 10.375 5.87492 10.2917 5.95825L9.375 6.83325L11.1667 8.62492ZM2.16667 17.4999C1.70833 17.4999 1.31583 17.3369 0.989167 17.0108C0.663055 16.6841 0.5 16.2916 0.5 15.8333V4.16659C0.5 3.70825 0.663055 3.31575 0.989167 2.98909C1.31583 2.66297 1.70833 2.49992 2.16667 2.49992H5.66667C5.84722 1.99992 6.14944 1.59714 6.57333 1.29159C6.99667 0.98603 7.47222 0.833252 8 0.833252C8.52778 0.833252 9.00361 0.98603 9.4275 1.29159C9.85083 1.59714 10.1528 1.99992 10.3333 2.49992H13.8333C14.2917 2.49992 14.6842 2.66297 15.0108 2.98909C15.3369 3.31575 15.5 3.70825 15.5 4.16659V15.8333C15.5 16.2916 15.3369 16.6841 15.0108 17.0108C14.6842 17.3369 14.2917 17.4999 13.8333 17.4999H2.16667ZM2.16667 15.8333H13.8333V4.16659H2.16667V15.8333ZM8 3.54159C8.18056 3.54159 8.33 3.48242 8.44833 3.36409C8.56611 3.24631 8.625 3.09714 8.625 2.91659C8.625 2.73603 8.56611 2.58659 8.44833 2.46825C8.33 2.35047 8.18056 2.29159 8 2.29159C7.81944 2.29159 7.67028 2.35047 7.5525 2.46825C7.43417 2.58659 7.375 2.73603 7.375 2.91659C7.375 3.09714 7.43417 3.24631 7.5525 3.36409C7.67028 3.48242 7.81944 3.54159 8 3.54159ZM2.16667 15.8333V4.16659V15.8333Z" fill="#207CDC"/>
</svg>
