<svg width="16" height="16" viewBox="0 0 16 16" fill="none" xmlns="http://www.w3.org/2000/svg">
<path d="M6.33301 7.00037H7.99968C8.17649 7.00037 8.34606 6.93013 8.47108 6.80511C8.59611 6.68008 8.66635 6.51052 8.66635 6.3337C8.66635 6.15689 8.59611 5.98732 8.47108 5.8623C8.34606 5.73728 8.17649 5.66704 7.99968 5.66704H7.33301V5.3337C7.33301 5.15689 7.26277 4.98732 7.13775 4.8623C7.01273 4.73728 6.84316 4.66704 6.66635 4.66704C6.48954 4.66704 6.31997 4.73728 6.19494 4.8623C6.06992 4.98732 5.99968 5.15689 5.99968 5.3337V5.70037C5.59463 5.78262 5.23459 6.01244 4.98945 6.34521C4.74431 6.67799 4.63157 7.08998 4.67311 7.5012C4.71465 7.91243 4.9075 8.29355 5.21424 8.57058C5.52097 8.84761 5.9197 9.00079 6.33301 9.00037H6.99968C7.08809 9.00037 7.17287 9.03549 7.23538 9.098C7.29789 9.16051 7.33301 9.2453 7.33301 9.3337C7.33301 9.42211 7.29789 9.5069 7.23538 9.56941C7.17287 9.63192 7.08809 9.66704 6.99968 9.66704H5.33301C5.1562 9.66704 4.98663 9.73728 4.86161 9.8623C4.73658 9.98732 4.66635 10.1569 4.66635 10.3337C4.66635 10.5105 4.73658 10.6801 4.86161 10.8051C4.98663 10.9301 5.1562 11.0004 5.33301 11.0004H5.99968V11.3337C5.99968 11.5105 6.06992 11.6801 6.19494 11.8051C6.31997 11.9301 6.48954 12.0004 6.66635 12.0004C6.84316 12.0004 7.01273 11.9301 7.13775 11.8051C7.26277 11.6801 7.33301 11.5105 7.33301 11.3337V10.967C7.73806 10.8848 8.09811 10.655 8.34324 10.3222C8.58838 9.98942 8.70112 9.57743 8.65958 9.16621C8.61805 8.75498 8.42519 8.37386 8.11846 8.09683C7.81172 7.8198 7.413 7.66662 6.99968 7.66704H6.33301C6.24461 7.66704 6.15982 7.63192 6.09731 7.56941C6.0348 7.5069 5.99968 7.42211 5.99968 7.3337C5.99968 7.2453 6.0348 7.16051 6.09731 7.098C6.15982 7.03549 6.24461 7.00037 6.33301 7.00037ZM13.9997 8.00037H11.9997V2.00037C12.0001 1.8829 11.9696 1.76739 11.911 1.66554C11.8525 1.56368 11.7681 1.47911 11.6663 1.42037C11.565 1.36186 11.45 1.33105 11.333 1.33105C11.216 1.33105 11.101 1.36186 10.9997 1.42037L8.99968 2.56704L6.99968 1.42037C6.89833 1.36186 6.78337 1.33105 6.66635 1.33105C6.54932 1.33105 6.43436 1.36186 6.33301 1.42037L4.33301 2.56704L2.33301 1.42037C2.23167 1.36186 2.1167 1.33105 1.99968 1.33105C1.88266 1.33105 1.76769 1.36186 1.66635 1.42037C1.56461 1.47911 1.4802 1.56368 1.42167 1.66554C1.36313 1.76739 1.33255 1.8829 1.33301 2.00037V12.667C1.33301 13.1975 1.54373 13.7062 1.9188 14.0813C2.29387 14.4563 2.80258 14.667 3.33301 14.667H12.6663C13.1968 14.667 13.7055 14.4563 14.0806 14.0813C14.4556 13.7062 14.6663 13.1975 14.6663 12.667V8.66704C14.6663 8.49023 14.5961 8.32066 14.4711 8.19563C14.3461 8.07061 14.1765 8.00037 13.9997 8.00037ZM3.33301 13.3337C3.1562 13.3337 2.98663 13.2635 2.86161 13.1384C2.73658 13.0134 2.66635 12.8438 2.66635 12.667V3.1537L3.99968 3.9137C4.10257 3.96745 4.21693 3.99551 4.33301 3.99551C4.44909 3.99551 4.56345 3.96745 4.66635 3.9137L6.66635 2.76704L8.66635 3.9137C8.76924 3.96745 8.8836 3.99551 8.99968 3.99551C9.11576 3.99551 9.23012 3.96745 9.33301 3.9137L10.6663 3.1537V12.667C10.6681 12.8945 10.7087 13.1199 10.7863 13.3337H3.33301ZM13.333 12.667C13.333 12.8438 13.2628 13.0134 13.1378 13.1384C13.0127 13.2635 12.8432 13.3337 12.6663 13.3337C12.4895 13.3337 12.32 13.2635 12.1949 13.1384C12.0699 13.0134 11.9997 12.8438 11.9997 12.667V9.3337H13.333V12.667Z" fill="#3F92D1"/>
</svg>
