<svg width="16" height="16" viewBox="0 0 16 16" fill="none" xmlns="http://www.w3.org/2000/svg">
<path d="M7.35267 1.69308C7.5507 1.5831 7.77348 1.52539 8 1.52539C8.22652 1.52539 8.4493 1.5831 8.64733 1.69308L13.6573 4.47574C13.7612 4.5335 13.8477 4.61798 13.908 4.72043C13.9682 4.82287 14 4.93956 14 5.05841V10.5484C13.9999 10.7862 13.9363 11.0196 13.8157 11.2245C13.6951 11.4294 13.5219 11.5983 13.314 11.7137L8.64733 14.3071C8.4493 14.4171 8.22652 14.4748 8 14.4748C7.77348 14.4748 7.5507 14.4171 7.35267 14.3071L2.686 11.7137C2.47824 11.5984 2.30509 11.4296 2.18448 11.2248C2.06386 11.02 2.00018 10.7867 2 10.5491V5.05841C2 4.93956 2.03176 4.82287 2.09201 4.72043C2.15226 4.61798 2.2388 4.5335 2.34267 4.47574L7.35333 1.69308H7.35267Z" stroke="white" stroke-linecap="round" stroke-linejoin="round"/>
<path d="M2 4.66602L8 7.99935M8 7.99935L14 4.66602M8 7.99935V14.3327" stroke="white" stroke-linejoin="round"/>
<path d="M5 6.33333L11 3M4 8.21867L6 9.33333" stroke="white" stroke-linecap="round" stroke-linejoin="round"/>
</svg>
