<svg width="16" height="16" viewBox="0 0 16 16" fill="none" xmlns="http://www.w3.org/2000/svg">
<path d="M4.00033 13.3337C3.44477 13.3337 2.97255 13.1392 2.58366 12.7503C2.19477 12.3614 2.00033 11.8892 2.00033 11.3337C1.63366 11.3337 1.31988 11.2032 1.05899 10.9423C0.797659 10.681 0.666992 10.367 0.666992 10.0003V4.00033C0.666992 3.63366 0.797659 3.31988 1.05899 3.05899C1.31988 2.79766 1.63366 2.66699 2.00033 2.66699H10.0003C10.367 2.66699 10.681 2.79766 10.9423 3.05899C11.2032 3.31988 11.3337 3.63366 11.3337 4.00033V5.33366H13.0003C13.1114 5.33366 13.2114 5.35588 13.3003 5.40033C13.3892 5.44477 13.467 5.51144 13.5337 5.60033L15.2003 7.81699C15.2448 7.87255 15.2781 7.93366 15.3003 8.00033C15.3225 8.06699 15.3337 8.13921 15.3337 8.21699V10.667C15.3337 10.8559 15.2697 11.0141 15.1417 11.1417C15.0141 11.2697 14.8559 11.3337 14.667 11.3337H14.0003C14.0003 11.8892 13.8059 12.3614 13.417 12.7503C13.0281 13.1392 12.5559 13.3337 12.0003 13.3337C11.4448 13.3337 10.9725 13.1392 10.5837 12.7503C10.1948 12.3614 10.0003 11.8892 10.0003 11.3337H6.00033C6.00033 11.8892 5.80588 12.3614 5.41699 12.7503C5.0281 13.1392 4.55588 13.3337 4.00033 13.3337ZM4.00033 12.0003C4.18921 12.0003 4.34766 11.9363 4.47566 11.8083C4.60321 11.6808 4.66699 11.5225 4.66699 11.3337C4.66699 11.1448 4.60321 10.9865 4.47566 10.859C4.34766 10.731 4.18921 10.667 4.00033 10.667C3.81144 10.667 3.65299 10.731 3.52499 10.859C3.39744 10.9865 3.33366 11.1448 3.33366 11.3337C3.33366 11.5225 3.39744 11.6808 3.52499 11.8083C3.65299 11.9363 3.81144 12.0003 4.00033 12.0003ZM2.00033 4.00033V10.0003H2.53366C2.72255 9.80033 2.93921 9.63921 3.18366 9.51699C3.4281 9.39477 3.70033 9.33366 4.00033 9.33366C4.30033 9.33366 4.57255 9.39477 4.81699 9.51699C5.06144 9.63921 5.2781 9.80033 5.46699 10.0003H10.0003V4.00033H2.00033ZM12.0003 12.0003C12.1892 12.0003 12.3474 11.9363 12.475 11.8083C12.603 11.6808 12.667 11.5225 12.667 11.3337C12.667 11.1448 12.603 10.9865 12.475 10.859C12.3474 10.731 12.1892 10.667 12.0003 10.667C11.8114 10.667 11.6532 10.731 11.5257 10.859C11.3977 10.9865 11.3337 11.1448 11.3337 11.3337C11.3337 11.5225 11.3977 11.6808 11.5257 11.8083C11.6532 11.9363 11.8114 12.0003 12.0003 12.0003ZM11.3337 8.66699H14.167L12.667 6.66699H11.3337V8.66699Z" fill="#3F92D1"/>
</svg>
