<svg width="16" height="16" viewBox="0 0 16 16" fill="none" xmlns="http://www.w3.org/2000/svg">
<path d="M8.00016 1.33301C4.32016 1.33301 1.3335 4.31967 1.3335 7.99967C1.3335 11.6797 4.32016 14.6663 8.00016 14.6663C11.6802 14.6663 14.6668 11.6797 14.6668 7.99967C14.6668 4.31967 11.6802 1.33301 8.00016 1.33301ZM7.37394 10.6259C6.98341 11.0164 6.35025 11.0164 5.95972 10.6259L3.80382 8.47C3.54407 8.21025 3.54407 7.7891 3.80382 7.52935C4.06332 7.26985 4.48396 7.26956 4.74382 7.52869L5.95972 8.74121C6.35041 9.1308 6.98281 9.13036 7.37295 8.74022L11.2535 4.85968C11.5146 4.59853 11.9383 4.59928 12.1985 4.86135C12.4574 5.12211 12.4567 5.54317 12.1968 5.80301L7.37394 10.6259Z" fill="#26B01C"/>
</svg>
