<svg width="16" height="15" viewBox="0 0 16 15" fill="none" xmlns="http://www.w3.org/2000/svg">
<path d="M2.66667 11.2388H13.3333C13.7 11.2388 14 10.9578 14 10.6144C14 10.271 13.7 9.99 13.3333 9.99H2.66667C2.3 9.99 2 10.271 2 10.6144C2 10.9578 2.3 11.2388 2.66667 11.2388ZM2.66667 8.11683H13.3333C13.7 8.11683 14 7.83585 14 7.49243C14 7.14902 13.7 6.86804 13.3333 6.86804H2.66667C2.3 6.86804 2 7.14902 2 7.49243C2 7.83585 2.3 8.11683 2.66667 8.11683ZM2 4.37048C2 4.7139 2.3 4.99487 2.66667 4.99487H13.3333C13.7 4.99487 14 4.7139 14 4.37048C14 4.02707 13.7 3.74609 13.3333 3.74609H2.66667C2.3 3.74609 2 4.02707 2 4.37048Z" fill="#767676"/>
</svg>
