<svg width="13" height="13" viewBox="0 0 13 13" fill="none" xmlns="http://www.w3.org/2000/svg">
<path d="M2.73633 9.68992L5.75531 9.67992L12.3447 3.31992C12.6032 3.06792 12.7455 2.73325 12.7455 2.37725C12.7455 2.02125 12.6032 1.68658 12.3447 1.43458L11.2597 0.37725C10.7425 -0.12675 9.84013 -0.124083 9.32705 0.37525L2.73633 6.73658V9.68992ZM10.2923 1.31992L11.3794 2.37525L10.2869 3.42992L9.20185 2.37325L10.2923 1.31992ZM4.10455 7.29258L8.22973 3.31058L9.31473 4.36792L5.19023 8.34858L4.10455 8.35192V7.29258Z" fill="#0688EE"/>
<path d="M1.36822 12.3477H10.9458C11.7003 12.3477 12.314 11.7497 12.314 11.0143V5.23566L10.9458 6.56899V11.0143H3.52864C3.51085 11.0143 3.49238 11.021 3.4746 11.021C3.45202 11.021 3.42944 11.015 3.40618 11.0143H1.36822V1.68099H6.05232L7.42054 0.347656H1.36822C0.613647 0.347656 0 0.945656 0 1.68099V11.0143C0 11.7497 0.613647 12.3477 1.36822 12.3477Z" fill="#0688EE"/>
</svg>
