<svg width="16" height="16" viewBox="0 0 16 16" fill="none" xmlns="http://www.w3.org/2000/svg">
<path d="M11.8846 3.34615H3.17308C2.72935 3.34615 2.3038 3.52242 1.99003 3.83619C1.67627 4.14995 1.5 4.5755 1.5 5.01923V9.57692C1.5 10.0054 1.67019 10.4162 1.97314 10.7192C2.27608 11.0221 2.68696 11.1923 3.11538 11.1923H3.34615V12.3369C3.34615 12.6454 3.46869 12.9412 3.68681 13.1593C3.90493 13.3775 4.20076 13.5 4.50923 13.5H10.4908C10.7992 13.5 11.0951 13.3775 11.3132 13.1593C11.5313 12.9412 11.6538 12.6454 11.6538 12.3369V11.1923H11.8846C12.313 11.1923 12.7239 11.0221 13.0269 10.7192C13.3298 10.4162 13.5 10.0054 13.5 9.57692V4.96154C13.5 4.53311 13.3298 4.12223 13.0269 3.81929C12.7239 3.51635 12.313 3.34615 11.8846 3.34615ZM10.7308 12.3369C10.7305 12.4005 10.7052 12.4614 10.6602 12.5064C10.6153 12.5513 10.5544 12.5767 10.4908 12.5769H4.50923C4.44565 12.5767 4.38474 12.5513 4.33978 12.5064C4.29482 12.4614 4.26946 12.4005 4.26923 12.3369V7.74C4.26946 7.67642 4.29482 7.61551 4.33978 7.57055C4.38474 7.52559 4.44565 7.50023 4.50923 7.5H10.4908C10.5544 7.50023 10.6153 7.52559 10.6602 7.57055C10.7052 7.61551 10.7305 7.67642 10.7308 7.74V12.3369ZM11.4808 6.11308C11.3396 6.12443 11.1983 6.09219 11.076 6.02071C10.9537 5.94923 10.8562 5.84196 10.7968 5.71336C10.7374 5.58476 10.7189 5.44104 10.7437 5.30157C10.7686 5.16211 10.8356 5.03363 10.9358 4.93346C11.0359 4.83329 11.1644 4.76626 11.3039 4.74142C11.4433 4.71657 11.5871 4.73511 11.7157 4.79452C11.8443 4.85394 11.9515 4.95137 12.023 5.07367C12.0945 5.19597 12.1267 5.33726 12.1154 5.47846C12.1022 5.64238 12.0311 5.79625 11.9148 5.91253C11.7986 6.02881 11.6447 6.0999 11.4808 6.11308ZM10.0385 1.5H4.96154C4.57327 1.50058 4.19816 1.64076 3.90467 1.89495C3.61118 2.14915 3.41888 2.50041 3.36288 2.88462H11.6371C11.5811 2.50041 11.3888 2.14915 11.0953 1.89495C10.8018 1.64076 10.4267 1.50058 10.0385 1.5Z" fill="#767676"/>
</svg>
