<svg width="16" height="16" viewBox="0 0 16 16" fill="none" xmlns="http://www.w3.org/2000/svg">
<path d="M11 10.5008H5V11H11V10.5008ZM4.50078 2.49922H9.00078V5H11.5016V6.00078H12.0008V4.50078L9.5 2H3.99922V6.00078H4.49844V2.49922H4.50078ZM12.5 6.5H3.5C2.49922 6.5 2 6.99922 2 8V11H3.99922V14H11.9984V11H14V8C14 6.99922 13.5008 6.5 12.5 6.5ZM3.99922 8.49922H3.00078V7.49844H4.00156V8.49922H3.99922ZM11.4992 13.5008H4.50078V9.99922H11.5016V13.5008H11.4992ZM11 11.4992H5V11.9984H11V11.4992ZM11 12.5H5V12.9992H11V12.5Z" fill="#767676"/>
</svg>
