<svg width="16" height="16" viewBox="0 0 16 16" fill="none" xmlns="http://www.w3.org/2000/svg">
<path d="M7.99301 1.33301C4.31301 1.33301 1.33301 4.31967 1.33301 7.99967C1.33301 11.6797 4.31301 14.6663 7.99301 14.6663C11.6797 14.6663 14.6663 11.6797 14.6663 7.99967C14.6663 4.31967 11.6797 1.33301 7.99301 1.33301ZM7.99967 13.333C5.05301 13.333 2.66634 10.9463 2.66634 7.99967C2.66634 5.05301 5.05301 2.66634 7.99967 2.66634C10.9463 2.66634 13.333 5.05301 13.333 7.99967C13.333 10.9463 10.9463 13.333 7.99967 13.333ZM7.85301 4.66634H7.81301C7.54634 4.66634 7.33301 4.87967 7.33301 5.14634V8.29301C7.33301 8.52634 7.45301 8.74634 7.65967 8.86634L10.4263 10.5263C10.653 10.6597 10.9463 10.593 11.0797 10.3663C11.1132 10.3124 11.1354 10.2522 11.1452 10.1894C11.1549 10.1267 11.1519 10.0626 11.1363 10.001C11.1208 9.9394 11.093 9.88158 11.0546 9.83096C11.0163 9.78034 10.9681 9.73796 10.913 9.70634L8.33301 8.17301V5.14634C8.33301 4.87967 8.11967 4.66634 7.85301 4.66634Z" fill="#3F92D1"/>
</svg>
