<svg width="16" height="16" viewBox="0 0 16 16" fill="none" xmlns="http://www.w3.org/2000/svg">
<path d="M2.00033 2.66699C1.6467 2.66699 1.30757 2.80747 1.05752 3.05752C0.807468 3.30756 0.666992 3.6467 0.666992 4.00033V11.3337H2.00033C2.00033 11.8641 2.21104 12.3728 2.58611 12.7479C2.96118 13.1229 3.46989 13.3337 4.00033 13.3337C4.53076 13.3337 5.03947 13.1229 5.41454 12.7479C5.78961 12.3728 6.00033 11.8641 6.00033 11.3337H10.0003C10.0003 11.8641 10.211 12.3728 10.5861 12.7479C10.9612 13.1229 11.4699 13.3337 12.0003 13.3337C12.5308 13.3337 13.0395 13.1229 13.4145 12.7479C13.7896 12.3728 14.0003 11.8641 14.0003 11.3337H15.3337V8.00033L13.3337 5.33366H11.3337V2.66699M6.66699 4.00033L9.33366 6.66699L6.66699 9.33366V7.33366H2.66699V6.00033H6.66699M11.3337 6.33366H13.0003L14.3137 8.00033H11.3337M4.00033 10.3337C4.26554 10.3337 4.5199 10.439 4.70743 10.6266C4.89497 10.8141 5.00033 11.0684 5.00033 11.3337C5.00033 11.5989 4.89497 11.8532 4.70743 12.0408C4.5199 12.2283 4.26554 12.3337 4.00033 12.3337C3.73511 12.3337 3.48076 12.2283 3.29322 12.0408C3.10568 11.8532 3.00033 11.5989 3.00033 11.3337C3.00033 11.0684 3.10568 10.8141 3.29322 10.6266C3.48076 10.439 3.73511 10.3337 4.00033 10.3337ZM12.0003 10.3337C12.2655 10.3337 12.5199 10.439 12.7074 10.6266C12.895 10.8141 13.0003 11.0684 13.0003 11.3337C13.0003 11.5989 12.895 11.8532 12.7074 12.0408C12.5199 12.2283 12.2655 12.3337 12.0003 12.3337C11.7351 12.3337 11.4808 12.2283 11.2932 12.0408C11.1057 11.8532 11.0003 11.5989 11.0003 11.3337C11.0003 11.0684 11.1057 10.8141 11.2932 10.6266C11.4808 10.439 11.7351 10.3337 12.0003 10.3337Z" fill="#F09920"/>
</svg>
