<svg width="14" height="14" viewBox="0 0 14 14" fill="none" xmlns="http://www.w3.org/2000/svg">
<path d="M0 1.83366C0 1.18966 0.522667 0.666992 1.16667 0.666992H12.8333C13.4773 0.666992 14 1.18966 14 1.83366V10.167C14 10.4764 13.8771 10.7732 13.6583 10.992C13.4395 11.2107 13.1428 11.3337 12.8333 11.3337H6.44267C6.42076 11.3336 6.39907 11.3379 6.37882 11.3462C6.35858 11.3546 6.34017 11.3669 6.32467 11.3823L3.99133 13.7157C3.85537 13.8511 3.68235 13.9433 3.49408 13.9805C3.30581 14.0178 3.11072 13.9985 2.93341 13.9251C2.75609 13.8516 2.60449 13.7274 2.4977 13.5679C2.39091 13.4084 2.33372 13.2209 2.33333 13.029V11.3337H1.16667C0.857247 11.3337 0.560501 11.2107 0.341709 10.992C0.122916 10.7732 0 10.4764 0 10.167V1.83366ZM1.16667 1.66699C1.12246 1.66699 1.08007 1.68455 1.04882 1.71581C1.01756 1.74706 1 1.78946 1 1.83366V10.167C1 10.259 1.07467 10.3337 1.16667 10.3337H2.83333C2.96594 10.3337 3.09312 10.3863 3.18689 10.4801C3.28066 10.5739 3.33333 10.7011 3.33333 10.8337V12.9603L5.618 10.6757C5.83667 10.4568 6.13331 10.3338 6.44267 10.3337H12.8333C12.8775 10.3337 12.9199 10.3161 12.9512 10.2848C12.9824 10.2536 13 10.2112 13 10.167V1.83366C13 1.78946 12.9824 1.74706 12.9512 1.71581C12.9199 1.68455 12.8775 1.66699 12.8333 1.66699H1.16667ZM7 3.00033C7.13261 3.00033 7.25979 3.053 7.35355 3.14677C7.44732 3.24054 7.5 3.36772 7.5 3.50033V6.16699C7.5 6.2996 7.44732 6.42678 7.35355 6.52055C7.25979 6.61431 7.13261 6.66699 7 6.66699C6.86739 6.66699 6.74022 6.61431 6.64645 6.52055C6.55268 6.42678 6.5 6.2996 6.5 6.16699V3.50033C6.5 3.36772 6.55268 3.24054 6.64645 3.14677C6.74022 3.053 6.86739 3.00033 7 3.00033ZM7 9.00033C6.82319 9.00033 6.65362 8.93009 6.5286 8.80506C6.40357 8.68004 6.33333 8.51047 6.33333 8.33366C6.33333 8.15685 6.40357 7.98728 6.5286 7.86225C6.65362 7.73723 6.82319 7.66699 7 7.66699C7.17681 7.66699 7.34638 7.73723 7.4714 7.86225C7.59643 7.98728 7.66667 8.15685 7.66667 8.33366C7.66667 8.51047 7.59643 8.68004 7.4714 8.80506C7.34638 8.93009 7.17681 9.00033 7 9.00033Z" fill="#0688EE"/>
</svg>
