<svg width="15" height="16" viewBox="0 0 15 16" fill="none" xmlns="http://www.w3.org/2000/svg">
<path d="M6 12.0078V7.3125L1 4.8125V11.6875L5.25 13.8203L5.00781 14.8125L0 12.3125V3.6875L6.5 0.445312L13 3.6875V5.79688C12.6354 5.85417 12.3021 5.97135 12 6.14844V4.8125L7 7.3125V11.0078L6 12.0078ZM4.89062 2.35938L9.45312 4.96875L11.3828 4L6.5 1.55469L4.89062 2.35938ZM6.5 6.44531L8.375 5.50781L3.8125 2.89844L1.61719 4L6.5 6.44531ZM13.4375 7C13.6562 7 13.8594 7.03906 14.0469 7.11719C14.2344 7.19531 14.401 7.30208 14.5469 7.4375C14.6927 7.57292 14.8021 7.73698 14.875 7.92969C14.9479 8.1224 14.9896 8.32812 15 8.54688C15 8.75 14.9609 8.94792 14.8828 9.14062C14.8047 9.33333 14.6927 9.5026 14.5469 9.64844L8.94531 15.25L6 15.9844L6.73438 13.0391L12.3359 7.44531C12.487 7.29427 12.6562 7.18229 12.8438 7.10938C13.0312 7.03646 13.2292 7 13.4375 7ZM13.8359 8.94531C13.9453 8.83594 14 8.70312 14 8.54688C14 8.38542 13.9479 8.25521 13.8438 8.15625C13.7396 8.05729 13.6042 8.00521 13.4375 8C13.3646 8 13.2943 8.01042 13.2266 8.03125C13.1589 8.05208 13.099 8.09115 13.0469 8.14844L7.64062 13.5547L7.375 14.6094L8.42969 14.3438L13.8359 8.94531Z" fill="#207CDC"/>
</svg>
