<svg width="16" height="16" viewBox="0 0 16 16" fill="none" xmlns="http://www.w3.org/2000/svg">
<path d="M6.4707 12.375L6.0332 13.25H2V1H12.5V9.05957L11.625 7.30957V1.875H2.875V12.375H6.4707ZM4.625 7.125H3.75V6.25H4.625V7.125ZM9.0957 7.125H5.5V6.25H9.5332L9.0957 7.125ZM3.75 8.875H4.625V9.75H3.75V8.875ZM5.5 8.875H8.2207L7.7832 9.75H5.5V8.875ZM4.625 4.5H3.75V3.625H4.625V4.5ZM10.75 4.5H5.5V3.625H10.75V4.5ZM10.75 10.625V12.8125H9.875V10.625H10.75ZM9.875 13.25H10.75V14.125H9.875V13.25ZM14.25 15H6.375L10.3125 7.125L14.25 15ZM7.6123 14.2344H13.0127L10.3125 8.83398L7.6123 14.2344Z" fill="#0688EE"/>
</svg>
