<svg width="14" height="12" viewBox="0 0 14 12" fill="none" xmlns="http://www.w3.org/2000/svg">
<path d="M1.26683 11.6009L12.9002 6.61425C13.0204 6.56301 13.123 6.47756 13.195 6.36851C13.2671 6.25946 13.3056 6.13163 13.3056 6.00091C13.3056 5.8702 13.2671 5.74236 13.195 5.63331C13.123 5.52426 13.0204 5.43881 12.9002 5.38758L1.26683 0.400912C1.1661 0.356975 1.05601 0.338807 0.946502 0.348047C0.836993 0.357288 0.731508 0.393645 0.639562 0.45384C0.547616 0.514035 0.472102 0.596173 0.419833 0.692845C0.367563 0.789517 0.340183 0.897681 0.340163 1.00758L0.333496 4.08091C0.333496 4.41425 0.580163 4.70091 0.913496 4.74091L10.3335 6.00091L0.913496 7.25425C0.580163 7.30091 0.333496 7.58758 0.333496 7.92091L0.340163 10.9942C0.340163 11.4676 0.826829 11.7942 1.26683 11.6009V11.6009Z" fill="white"/>
</svg>
