<svg width="14" height="14" viewBox="0 0 14 14" fill="none" xmlns="http://www.w3.org/2000/svg">
<path d="M6.35267 0.693075C6.5507 0.5831 6.77348 0.525391 7 0.525391C7.22652 0.525391 7.4493 0.5831 7.64733 0.693075L12.6573 3.47574C12.7612 3.5335 12.8477 3.61798 12.908 3.72043C12.9682 3.82287 13 3.93956 13 4.05841V9.54841C12.9999 9.78617 12.9363 10.0196 12.8157 10.2245C12.6951 10.4294 12.5219 10.5983 12.314 10.7137L7.64733 13.3071C7.4493 13.417 7.22652 13.4748 7 13.4748C6.77348 13.4748 6.5507 13.417 6.35267 13.3071L1.686 10.7137C1.47824 10.5984 1.30509 10.4296 1.18448 10.2248C1.06386 10.02 1.00018 9.78673 1 9.54907V4.05841C0.999995 3.93956 1.03176 3.82287 1.09201 3.72043C1.15226 3.61798 1.2388 3.5335 1.34267 3.47574L6.35333 0.693075H6.35267Z" stroke="white" stroke-linecap="round" stroke-linejoin="round"/>
<path d="M1 3.66602L7 6.99935M7 6.99935L13 3.66602M7 6.99935V13.3327" stroke="white" stroke-linejoin="round"/>
<path d="M4 5.33333L10 2M3 7.21867L5 8.33333" stroke="white" stroke-linecap="round" stroke-linejoin="round"/>
</svg>
