<svg width="14" height="12" viewBox="0 0 14 12" fill="none" xmlns="http://www.w3.org/2000/svg">
<path d="M2.38259 8.15413L4.85779 10.4837C4.97893 10.602 5.0488 10.7632 5.05237 10.9324C5.05593 11.1017 4.9929 11.2657 4.87683 11.3889C4.76077 11.5122 4.60095 11.585 4.43176 11.5917C4.26256 11.5983 4.09752 11.5383 3.97213 11.4245L0.310587 7.97838C0.246438 7.91797 0.195322 7.84507 0.160384 7.76418C0.125445 7.68328 0.107422 7.5961 0.107422 7.50798C0.107422 7.41986 0.125445 7.33267 0.160384 7.25178C0.195322 7.17088 0.246438 7.09799 0.310587 7.03758L3.97213 3.59142C4.03355 3.53145 4.10631 3.48431 4.18615 3.45277C4.26599 3.42123 4.35132 3.40591 4.43715 3.40772C4.52298 3.40952 4.60759 3.42841 4.68604 3.46329C4.76448 3.49816 4.83519 3.54831 4.89404 3.61082C4.95288 3.67333 4.99868 3.74694 5.02876 3.82734C5.05883 3.90775 5.07259 3.99335 5.06921 4.07913C5.06584 4.16491 5.0454 4.24916 5.0091 4.32696C4.9728 4.40475 4.92136 4.47453 4.85779 4.53222L2.38259 6.86182H11.0919C11.4917 6.86182 11.8752 6.70298 12.158 6.42023C12.4407 6.13748 12.5996 5.754 12.5996 5.35413V1.47721C12.5996 1.30584 12.6676 1.14149 12.7888 1.02031C12.91 0.899131 13.0744 0.831055 13.2457 0.831055C13.4171 0.831055 13.5814 0.899131 13.7026 1.02031C13.8238 1.14149 13.8919 1.30584 13.8919 1.47721V5.35413C13.8919 6.09674 13.5969 6.80893 13.0718 7.33403C12.5467 7.85913 11.8345 8.15413 11.0919 8.15413H2.38259Z" fill="white"/>
</svg>
