<svg width="14" height="14" viewBox="0 0 14 14" fill="none" xmlns="http://www.w3.org/2000/svg">
<path d="M6.3335 9.66732H7.66683V6.86732L8.7335 7.93398L9.66683 7.00065L7.00016 4.33398L4.3335 7.00065L5.26683 7.93398L6.3335 6.86732V9.66732ZM7.00016 13.6673C6.07794 13.6673 5.21127 13.4922 4.40016 13.142C3.58905 12.7922 2.8835 12.3173 2.2835 11.7173C1.6835 11.1173 1.20861 10.4118 0.858829 9.60065C0.508607 8.78954 0.333496 7.92287 0.333496 7.00065C0.333496 6.07843 0.508607 5.21176 0.858829 4.40065C1.20861 3.58954 1.6835 2.88398 2.2835 2.28398C2.8835 1.68398 3.58905 1.20887 4.40016 0.858651C5.21127 0.508873 6.07794 0.333984 7.00016 0.333984C7.92238 0.333984 8.78905 0.508873 9.60016 0.858651C10.4113 1.20887 11.1168 1.68398 11.7168 2.28398C12.3168 2.88398 12.7917 3.58954 13.1415 4.40065C13.4917 5.21176 13.6668 6.07843 13.6668 7.00065C13.6668 7.92287 13.4917 8.78954 13.1415 9.60065C12.7917 10.4118 12.3168 11.1173 11.7168 11.7173C11.1168 12.3173 10.4113 12.7922 9.60016 13.142C8.78905 13.4922 7.92238 13.6673 7.00016 13.6673Z" fill="#26B01C"/>
</svg>
