<svg width="14" height="14" viewBox="0 0 14 14" fill="none" xmlns="http://www.w3.org/2000/svg">
<path d="M7.66651 4.33268L6.33317 4.33268L6.33317 7.13268L5.2665 6.06602L4.33317 6.99935L6.99984 9.66602L9.6665 6.99935L8.73317 6.06602L7.6665 7.13268L7.66651 4.33268ZM6.99984 0.332683C7.92206 0.332683 8.78873 0.507794 9.59984 0.858016C10.4109 1.20779 11.1165 1.68268 11.7165 2.28268C12.3165 2.88268 12.7914 3.58824 13.1412 4.39935C13.4914 5.21046 13.6665 6.07713 13.6665 6.99935C13.6665 7.92157 13.4914 8.78824 13.1412 9.59935C12.7914 10.4105 12.3165 11.116 11.7165 11.716C11.1165 12.316 10.4109 12.7911 9.59984 13.1413C8.78873 13.4911 7.92206 13.666 6.99984 13.666C6.07762 13.666 5.21095 13.4911 4.39984 13.1413C3.58873 12.7911 2.88317 12.316 2.28317 11.716C1.68317 11.116 1.20828 10.4105 0.858505 9.59935C0.508283 8.78824 0.333172 7.92157 0.333172 6.99935C0.333173 6.07713 0.508283 5.21046 0.858505 4.39935C1.20828 3.58824 1.68317 2.88268 2.28317 2.28268C2.88317 1.68268 3.58873 1.20779 4.39984 0.858015C5.21095 0.507794 6.07762 0.332683 6.99984 0.332683Z" fill="#ED1C24"/>
</svg>
