<svg width="16" height="16" viewBox="0 0 16 16" fill="none" xmlns="http://www.w3.org/2000/svg">
<path d="M7.20473 1.33398C3.96715 1.33398 1.33301 3.96813 1.33301 7.2057C1.33301 10.4435 3.96715 13.0774 7.20473 13.0774C10.4425 13.0774 13.0764 10.4435 13.0764 7.2057C13.0764 3.96813 10.4425 1.33398 7.20473 1.33398ZM7.20473 11.9934C4.5648 11.9934 2.41702 9.84565 2.41702 7.20573C2.41702 4.56581 4.5648 2.41799 7.20473 2.41799C9.84465 2.41799 11.9924 4.56578 11.9924 7.2057C11.9924 9.84563 9.84465 11.9934 7.20473 11.9934Z" fill="white"/>
<path d="M14.5083 13.7409L11.4008 10.6334C11.1891 10.4217 10.8461 10.4217 10.6344 10.6334C10.4226 10.845 10.4226 11.1883 10.6344 11.3998L13.7419 14.5073C13.8478 14.6132 13.9864 14.6661 14.1251 14.6661C14.2637 14.6661 14.4024 14.6132 14.5083 14.5073C14.7201 14.2958 14.7201 13.9525 14.5083 13.7409Z" fill="white"/>
</svg>
