<svg width="141" height="32" viewBox="0 0 141 32" fill="none" xmlns="http://www.w3.org/2000/svg">
<g clip-path="url(#clip0_966_1511)">
<path d="M43.5198 32.0004C43.3199 32.0004 43.1474 31.9337 43.0024 31.8005C42.8691 31.6593 42.7986 31.4869 42.7986 31.2831V27.3281C42.7986 27.2301 42.8339 27.1478 42.9005 27.0812C42.9671 27.0067 43.0534 26.9675 43.1592 26.9675C43.2572 26.9675 43.3395 27.0067 43.4061 27.0812C43.4806 27.1478 43.5198 27.2301 43.5198 27.3281V30.9225C43.5198 31.0283 43.5551 31.1145 43.6217 31.1812C43.6883 31.2478 43.7746 31.2831 43.8804 31.2831H51.0651C51.1631 31.2831 51.2454 31.3223 51.3121 31.3967C51.3865 31.4634 51.4257 31.5457 51.4257 31.6437C51.4257 31.7495 51.3865 31.8357 51.3121 31.9024C51.2454 31.969 51.1631 32.0043 51.0651 32.0043H43.5198V32.0004Z" fill="white"/>
<path d="M53.3228 32.0003C53.1229 32.0003 52.9504 31.9337 52.8054 31.8004C52.6721 31.6593 52.6055 31.4869 52.6055 31.283V27.6887C52.6055 27.4927 52.6721 27.3242 52.8054 27.1831C52.9465 27.042 53.1189 26.9714 53.3228 26.9714H60.5114C60.7035 26.9714 60.8759 27.042 61.017 27.1831C61.1581 27.3242 61.2326 27.4927 61.2326 27.6887V31.283C61.2326 31.4869 61.1621 31.6554 61.017 31.8004C60.8759 31.9337 60.7074 32.0003 60.5114 32.0003H53.3228ZM60.1508 31.283C60.2488 31.283 60.3311 31.2478 60.3977 31.1811C60.4722 31.1145 60.5075 31.0283 60.5075 30.9224V28.0493C60.5075 27.9513 60.4683 27.869 60.3977 27.8024C60.3272 27.7279 60.2449 27.6887 60.1508 27.6887H53.6834C53.5775 27.6887 53.4913 27.7279 53.4247 27.8024C53.358 27.869 53.3228 27.9513 53.3228 28.0493V30.9224C53.3228 31.0283 53.358 31.1145 53.4247 31.1811C53.4913 31.2478 53.5775 31.283 53.6834 31.283H60.1508Z" fill="white"/>
<path d="M63.126 32.0003C62.9261 32.0003 62.7497 31.9337 62.6086 31.8004C62.4714 31.6593 62.4048 31.4869 62.4048 31.283V27.6887C62.4048 27.4927 62.4714 27.3242 62.6086 27.1831C62.7497 27.042 62.9222 26.9714 63.126 26.9714H70.6714C70.7694 26.9714 70.8517 27.0106 70.9184 27.0851C70.9928 27.1517 71.032 27.2341 71.032 27.332C71.032 27.4379 70.9928 27.5241 70.9184 27.5907C70.8517 27.6574 70.7694 27.6927 70.6714 27.6927H63.4866C63.3808 27.6927 63.2946 27.7318 63.2279 27.8063C63.1613 27.873 63.126 27.9553 63.126 28.0533V30.9264C63.126 31.0322 63.1613 31.1184 63.2279 31.1851C63.2946 31.2517 63.3808 31.287 63.4866 31.287H69.9541C70.0521 31.287 70.1344 31.2517 70.2011 31.1851C70.2755 31.1184 70.3147 31.0322 70.3147 30.9264V30.2091C70.3147 30.1111 70.2755 30.0288 70.2011 29.9621C70.1344 29.8877 70.0521 29.8485 69.9541 29.8485H64.9212C64.8154 29.8485 64.7331 29.8132 64.6625 29.7465C64.5959 29.6799 64.5606 29.5937 64.5606 29.4879C64.5606 29.3899 64.5959 29.3075 64.6625 29.2409C64.7331 29.1664 64.8154 29.1272 64.9212 29.1272H70.3108C70.5029 29.1272 70.6714 29.1978 70.8164 29.3389C70.9576 29.48 71.032 29.6486 71.032 29.8445V31.283C71.032 31.4869 70.9615 31.6554 70.8164 31.8004C70.6753 31.9337 70.5068 32.0003 70.3108 32.0003H63.126Z" fill="white"/>
<path d="M72.3097 31.8982C72.243 31.8316 72.2078 31.7453 72.2078 31.6395V27.3279C72.2078 27.2299 72.243 27.1476 72.3097 27.081C72.3763 27.0065 72.4626 26.9673 72.5684 26.9673C72.6664 26.9673 72.7488 27.0065 72.8154 27.081C72.8899 27.1476 72.9291 27.2299 72.9291 27.3279V31.6395C72.9291 31.7453 72.8899 31.8316 72.8154 31.8982C72.7488 31.9648 72.6664 32.0001 72.5684 32.0001C72.4626 32.0001 72.3763 31.9648 72.3097 31.8982Z" fill="white"/>
<path d="M74.4653 32.0001C74.3595 32.0001 74.2733 31.9648 74.2066 31.8982C74.14 31.8316 74.1086 31.7453 74.1086 31.6395C74.1086 31.5415 74.14 31.4592 74.2066 31.3926C74.2733 31.3181 74.3595 31.2789 74.4653 31.2789H81.654C81.752 31.2789 81.8303 31.2436 81.9009 31.177C81.9754 31.1104 82.0106 31.0241 82.0106 30.9183V30.201C82.0106 30.103 81.9754 30.0207 81.9009 29.9541C81.8343 29.8796 81.752 29.8404 81.654 29.8404H74.8259C74.626 29.8404 74.4536 29.7738 74.3085 29.6366C74.1753 29.4955 74.1086 29.323 74.1086 29.1192V27.6807C74.1086 27.4847 74.1753 27.3161 74.3085 27.175C74.4496 27.0339 74.6221 26.9634 74.8259 26.9634H82.3712C82.4692 26.9634 82.5516 27.0026 82.6182 27.077C82.6927 27.1437 82.7279 27.226 82.7279 27.324C82.7279 27.4298 82.6887 27.516 82.6182 27.5827C82.5476 27.6493 82.4653 27.6846 82.3712 27.6846H75.1865C75.0807 27.6846 74.9945 27.7238 74.9278 27.7983C74.8612 27.8649 74.8259 27.9472 74.8259 28.0452V28.7625C74.8259 28.8683 74.8612 28.9546 74.9278 29.0212C74.9945 29.0878 75.0807 29.1231 75.1865 29.1231H82.0146C82.2105 29.1231 82.3791 29.1937 82.5202 29.3348C82.6613 29.4759 82.7358 29.6444 82.7358 29.8404V31.2789C82.7358 31.4827 82.6652 31.6513 82.5202 31.7963C82.3791 31.9296 82.2105 31.9962 82.0146 31.9962H74.4653V32.0001Z" fill="white"/>
<path d="M87.604 31.8982C87.5374 31.8316 87.5021 31.7453 87.5021 31.6395V27.6885H84.2683C84.1625 27.6885 84.0802 27.6532 84.0096 27.5866C83.943 27.52 83.9077 27.4337 83.9077 27.3279C83.9077 27.2299 83.943 27.1476 84.0096 27.081C84.0802 27.0065 84.1625 26.9673 84.2683 26.9673H91.4571C91.555 26.9673 91.6374 27.0065 91.704 27.081C91.7785 27.1476 91.8177 27.2299 91.8177 27.3279C91.8177 27.4337 91.7785 27.52 91.704 27.5866C91.6374 27.6532 91.555 27.6885 91.4571 27.6885H88.2233V31.6395C88.2233 31.7453 88.1841 31.8316 88.1096 31.8982C88.043 31.9648 87.9607 32.0001 87.8627 32.0001C87.7569 32.0001 87.6706 31.9648 87.604 31.8982Z" fill="white"/>
<path d="M93.0916 31.8982C93.025 31.8316 92.9897 31.7453 92.9897 31.6395V27.3279C92.9897 27.2299 93.025 27.1476 93.0916 27.081C93.1583 27.0065 93.2445 26.9673 93.3503 26.9673C93.4483 26.9673 93.5306 27.0065 93.5972 27.081C93.6717 27.1476 93.7109 27.2299 93.7109 27.3279V31.6395C93.7109 31.7453 93.6717 31.8316 93.5972 31.8982C93.5306 31.9648 93.4483 32.0001 93.3503 32.0001C93.2445 32.0001 93.1622 31.9648 93.0916 31.8982Z" fill="white"/>
<path d="M95.6079 32.0003C95.408 32.0003 95.2356 31.9337 95.0905 31.8004C94.9573 31.6593 94.8906 31.4869 94.8906 31.283V27.6887C94.8906 27.4927 94.9573 27.3242 95.0905 27.1831C95.2316 27.042 95.4041 26.9714 95.6079 26.9714H103.153C103.251 26.9714 103.334 27.0106 103.4 27.0851C103.475 27.1517 103.514 27.2341 103.514 27.332C103.514 27.4379 103.475 27.5241 103.4 27.5907C103.334 27.6574 103.251 27.6927 103.153 27.6927H95.9685C95.8627 27.6927 95.7765 27.7318 95.7098 27.8063C95.6432 27.873 95.6079 27.9553 95.6079 28.0533V30.9264C95.6079 31.0322 95.6432 31.1184 95.7098 31.1851C95.7765 31.2517 95.8627 31.287 95.9685 31.287H103.153C103.251 31.287 103.334 31.3262 103.4 31.4006C103.475 31.4673 103.514 31.5496 103.514 31.6476C103.514 31.7534 103.475 31.8396 103.4 31.9063C103.334 31.9729 103.251 32.0082 103.153 32.0082H95.6079V32.0003Z" fill="white"/>
<path d="M105.05 32.0001C104.944 32.0001 104.858 31.9648 104.792 31.8982C104.725 31.8316 104.69 31.7453 104.69 31.6395C104.69 31.5415 104.725 31.4592 104.792 31.3926C104.858 31.3181 104.944 31.2789 105.05 31.2789H112.235C112.333 31.2789 112.415 31.2436 112.482 31.177C112.556 31.1104 112.592 31.0241 112.592 30.9183V30.201C112.592 30.103 112.553 30.0207 112.482 29.9541C112.415 29.8796 112.333 29.8404 112.235 29.8404H105.407C105.207 29.8404 105.035 29.7738 104.89 29.6366C104.756 29.4955 104.69 29.323 104.69 29.1192V27.6807C104.69 27.4847 104.756 27.3161 104.89 27.175C105.031 27.0339 105.203 26.9634 105.407 26.9634H112.952C113.05 26.9634 113.133 27.0026 113.199 27.077C113.274 27.1437 113.309 27.226 113.309 27.324C113.309 27.4298 113.27 27.516 113.199 27.5827C113.133 27.6493 113.046 27.6846 112.952 27.6846H105.768C105.662 27.6846 105.576 27.7238 105.509 27.7983C105.442 27.8649 105.407 27.9472 105.407 28.0452V28.7625C105.407 28.8683 105.442 28.9546 105.509 29.0212C105.576 29.0878 105.662 29.1231 105.768 29.1231H112.596C112.792 29.1231 112.96 29.1937 113.101 29.3348C113.242 29.4759 113.317 29.6444 113.317 29.8404V31.2789C113.317 31.4827 113.246 31.6513 113.101 31.7963C112.96 31.9296 112.792 31.9962 112.596 31.9962H105.05V32.0001Z" fill="white"/>
<path d="M6.68692 24.6467H4.89564V15.6393H0V13.9539H11.5786V15.6393H6.68692V24.6467Z" fill="white"/>
<path d="M13.4404 13.9539H15.2317V18.2851H23.5845V13.9539H25.3836V24.6467H23.5845V19.8725H15.2317V24.6467H13.4404V13.9539Z" fill="white"/>
<path d="M30.107 22.9651H37.9345V13.9539H39.7297V22.2909C39.7297 22.7299 39.6905 23.0984 39.6082 23.4002C39.5259 23.702 39.3926 23.9411 39.2084 24.1292C39.0242 24.3135 38.7811 24.4467 38.4793 24.529C38.1775 24.6114 37.8091 24.6505 37.3701 24.6505H30.6675C30.2285 24.6505 29.86 24.6114 29.5621 24.529C29.2603 24.4467 29.0212 24.3135 28.8409 24.1292C28.6606 23.945 28.5273 23.702 28.4411 23.4002C28.3549 23.0984 28.3118 22.7299 28.3118 22.2909V13.9539H30.107V22.9651Z" fill="white"/>
<path d="M54.3934 22.2909C54.3934 22.7299 54.3503 23.0984 54.264 23.4002C54.1778 23.702 54.0445 23.9411 53.8603 24.1292C53.6761 24.3135 53.4331 24.4467 53.1313 24.529C52.8294 24.6114 52.4649 24.6505 52.0377 24.6505H44.7863C44.3473 24.6505 43.9828 24.6114 43.6888 24.529C43.3948 24.4467 43.1518 24.3135 42.9676 24.1292C42.7834 23.945 42.6501 23.702 42.5678 23.4002C42.4855 23.0984 42.4463 22.7299 42.4463 22.2909V16.3096C42.4463 15.4433 42.6188 14.8358 42.9676 14.483C43.3125 14.1302 43.9201 13.9539 44.7863 13.9539H52.0377C52.9039 13.9539 53.5115 14.1302 53.8642 14.483C54.217 14.8358 54.3934 15.4472 54.3934 16.3096V22.2909ZM52.5903 22.9651V15.6393H44.2219V22.9651H52.5903Z" fill="white"/>
<path d="M57.2073 13.9539H58.4929L67.5355 21.9695V13.9539H69.3268V24.6467H68.0451L59.0025 16.631V24.6467H57.2112V13.9539H57.2073Z" fill="white"/>
<path d="M82.305 16.631V15.6393H73.9365V22.9651H82.305V20.1077H77.9777V18.5281H84.1042V22.2949C84.1042 22.7339 84.061 23.1023 83.9748 23.4041C83.8886 23.7059 83.7553 23.945 83.5711 24.1332C83.3869 24.3174 83.1438 24.4507 82.842 24.533C82.5402 24.6153 82.1718 24.6545 81.7484 24.6545H74.497C74.0619 24.6545 73.6935 24.6153 73.3995 24.533C73.1055 24.4507 72.8625 24.3174 72.6783 24.1332C72.4941 23.949 72.3608 23.7059 72.2785 23.4041C72.1962 23.1023 72.157 22.7339 72.157 22.2949V16.3096C72.157 15.4433 72.3294 14.8358 72.6783 14.483C73.0272 14.1302 73.6308 13.9539 74.497 13.9539H81.7484C82.6147 13.9539 83.2222 14.1302 83.575 14.483C83.9278 14.8358 84.1042 15.4472 84.1042 16.3096V16.631H82.305Z" fill="white"/>
<path d="M86.926 13.9539H94.2831C95.0396 13.9539 95.6471 14.0009 96.1018 14.091C96.5604 14.1812 96.9602 14.3458 97.3129 14.581C97.8617 14.9181 98.2575 15.4041 98.5045 16.0352C98.7514 16.6663 98.8729 17.5011 98.8729 18.5398V20.0567C98.8729 20.68 98.8376 21.1974 98.7671 21.6128C98.6965 22.0323 98.5711 22.4203 98.3869 22.7809C98.1399 23.3179 97.7872 23.7295 97.3168 24.0195C96.968 24.2547 96.5643 24.4154 96.1057 24.5095C95.651 24.5996 95.0396 24.6467 94.287 24.6467H86.9299V13.9539H86.926ZM94.2674 22.9651C94.726 22.9651 95.0866 22.9377 95.357 22.8828C95.6236 22.8279 95.8627 22.7339 96.0743 22.5967C96.3957 22.385 96.6348 22.091 96.7838 21.7148C96.9327 21.3424 97.0072 20.8446 97.0072 20.2214V18.3752C97.0072 18.0146 96.9876 17.7089 96.9445 17.4541C96.9014 17.1993 96.8269 16.9681 96.7171 16.7525C96.5251 16.3488 96.2468 16.0626 95.8783 15.8902C95.5099 15.7177 94.9729 15.6315 94.2713 15.6315H88.7212V22.9573H94.2674V22.9651Z" fill="white"/>
<path d="M111.639 22.9651H103.271V15.6393H107.375V13.9539H103.835C102.969 13.9539 102.362 14.1302 102.017 14.483C101.668 14.8358 101.495 15.4472 101.495 16.3096V22.2909C101.495 22.7299 101.535 23.0984 101.617 23.4002C101.699 23.702 101.832 23.9411 102.017 24.1292C102.201 24.3135 102.44 24.4467 102.738 24.529C103.032 24.6114 103.396 24.6505 103.839 24.6505H111.087C111.514 24.6505 111.879 24.6114 112.184 24.529C112.486 24.4467 112.729 24.3135 112.913 24.1292C113.098 23.945 113.231 23.702 113.317 23.4002C113.403 23.0984 113.446 22.7299 113.446 22.2909V19.4022H111.647V22.9651H111.639Z" fill="white"/>
<path d="M113.533 13.6834C113.18 13.3307 112.572 13.1543 111.706 13.1543H107.994V14.8358H112.259V18.5987H114.058V15.51C114.058 14.6477 113.885 14.0362 113.533 13.6834Z" fill="#F2C431"/>
<path d="M117.919 25.3561L117.617 29.3384L126.217 24.6662L128.537 16.2546L117.919 25.3561Z" fill="#E0B030"/>
<path d="M115.555 1.11719L106.438 1.62282L99.8296 7.89034L106.317 8.65075L115.555 1.11719Z" fill="#FFD426"/>
<path d="M118.695 0.940708L108.872 8.95247L119.067 10.148L132.982 0.14502L118.695 0.940708Z" fill="#F2C431"/>
<path d="M129.419 13.0642L132.982 0.14502L119.067 10.1479L118.115 22.7535L129.419 13.0642Z" fill="#E0B030"/>
<path d="M137.364 6.91426C135.459 6.91426 133.907 5.36208 133.907 3.45713C133.907 1.55218 135.459 0 137.364 0C139.269 0 140.821 1.55218 140.821 3.45713C140.821 5.36208 139.269 6.91426 137.364 6.91426ZM137.364 0.344929C135.647 0.344929 134.252 1.74032 134.252 3.45713C134.252 5.17393 135.647 6.56933 137.364 6.56933C139.081 6.56933 140.476 5.17393 140.476 3.45713C140.476 1.74032 139.081 0.344929 137.364 0.344929Z" fill="white"/>
<path d="M136.439 3.7864V5.42089H135.98V1.49341H137.058C137.54 1.49341 137.897 1.58748 138.125 1.7717C138.356 1.95593 138.469 2.23422 138.469 2.60267C138.469 3.12006 138.207 3.47283 137.682 3.65705L138.748 5.42089H138.207L137.254 3.7864H136.439ZM136.439 3.39444H137.066C137.388 3.39444 137.627 3.33172 137.776 3.20237C137.929 3.07303 138.003 2.88096 138.003 2.62619C138.003 2.36749 137.925 2.17935 137.772 2.06568C137.619 1.95201 137.372 1.89321 137.035 1.89321H136.443V3.39444H136.439Z" fill="white"/>
</g>
<defs>
<clipPath id="clip0_966_1511">
<rect width="140.821" height="32" fill="white"/>
</clipPath>
</defs>
</svg>
