<svg width="67" height="26" viewBox="0 0 67 26" fill="none" xmlns="http://www.w3.org/2000/svg">
<g clip-path="url(#clip0_83_621)">
<path d="M19.0285 14.0598L17.2196 23.3152H14.1583L14.8193 19.9239H12.0015L11.3406 23.3152H8.2793L10.0882 14.0598H13.1495L12.4885 17.3451H15.3063L15.9673 14.0598H19.0285Z" fill="white"/>
<path d="M28.4914 16.0734L27.0652 23.3153H24.2822L24.4213 22.6441C23.8995 23.174 23.2386 23.4213 22.5081 23.4213C22.021 23.4213 21.5688 23.28 21.1166 23.0327C20.6643 22.7854 20.3165 22.3968 20.0034 21.8669C19.7251 21.3723 19.5859 20.7718 19.5859 20.0653C19.5859 19.2881 19.7599 18.5816 20.1077 17.9457C20.4556 17.3098 20.9078 16.8153 21.4992 16.462C22.0906 16.1088 22.7168 15.9321 23.3777 15.9321C24.317 15.9321 25.0127 16.2147 25.3954 16.8153L25.5345 16.0381H28.4914V16.0734ZM22.8559 20.7718C23.0299 20.9838 23.3082 21.0897 23.6212 21.0897C24.0039 21.0897 24.317 20.9484 24.5605 20.6305C24.804 20.3479 24.9084 19.924 24.9084 19.4294C24.9084 19.0762 24.804 18.8289 24.6301 18.6169C24.4561 18.405 24.1778 18.299 23.8648 18.299C23.4821 18.299 23.169 18.4403 22.9255 18.7582C22.682 19.0408 22.5776 19.4647 22.5776 19.9593C22.5776 20.3126 22.6472 20.5598 22.8559 20.7718Z" fill="white"/>
<path d="M37.0131 16.6032C37.4654 17.0271 37.7089 17.6276 37.7089 18.4401C37.7089 18.7227 37.6741 19.0407 37.6045 19.3586L36.8392 23.3151H33.9171L34.6476 19.6765C34.6824 19.4646 34.7172 19.3233 34.7172 19.2526C34.7172 18.7227 34.4737 18.4754 33.9866 18.4754C33.2909 18.4754 32.8735 18.9347 32.6647 19.8532L31.969 23.3151H29.0469L30.4731 16.1086H33.2561L33.0474 16.8151C33.3605 16.5325 33.6736 16.3205 34.0562 16.1792C34.4389 16.0379 34.7867 15.9673 35.1694 15.9673C35.9347 15.9673 36.5609 16.1792 37.0131 16.6032Z" fill="white"/>
<path d="M60.1464 14.0598L54.4761 23.3152H51.4845L49.4668 14.0951H52.5976L53.7108 19.4647L56.9808 14.0951H60.1464V14.0598Z" fill="white"/>
<path d="M66.8264 20.3832H61.8518C61.9214 20.6658 62.0605 20.9131 62.2693 21.0191C62.478 21.1604 62.7911 21.231 63.2085 21.231C63.7999 21.231 64.3217 21.0544 64.7391 20.7365L65.9567 22.5381C65.087 23.1387 64.0434 23.4213 62.8606 23.4213C62.0953 23.4213 61.3996 23.28 60.8082 22.9973C60.2168 22.7147 59.7646 22.3262 59.4167 21.8316C59.1036 21.337 58.9297 20.7365 58.9297 20.0653C58.9297 19.2881 59.1036 18.5816 59.4863 17.9457C59.8689 17.3098 60.356 16.8153 61.0517 16.462C61.7127 16.1088 62.478 15.9321 63.3477 15.9321C64.0782 15.9321 64.7391 16.0734 65.2957 16.3207C65.8523 16.6033 66.2698 16.9566 66.5481 17.4512C66.8264 17.9457 66.9655 18.4756 66.9655 19.1115C67.0003 19.5354 66.9307 19.9593 66.8264 20.3832ZM62.478 18.2283C62.2693 18.405 62.0953 18.6522 61.991 18.9348H64.3217C64.3217 18.6522 64.2173 18.405 64.0434 18.2283C63.8695 18.0517 63.5912 17.981 63.2781 17.981C62.965 17.981 62.6867 18.087 62.478 18.2283Z" fill="white"/>
<path fill-rule="evenodd" clip-rule="evenodd" d="M25.0125 2.82609C24.3863 2.79076 23.7602 2.75543 23.134 2.75543C21.2555 2.75543 19.4466 3.00272 17.6724 3.42663L17.9507 3.67391L17.6376 4.02717L17.1158 3.56793L15.5156 2.08424C18.5769 0.741848 21.8817 0 25.3604 0C25.7778 0 26.1953 0 26.6127 0.0353261L25.0125 2.82609Z" fill="#ED1C24"/>
<path fill-rule="evenodd" clip-rule="evenodd" d="M37.5009 7.87762C34.4744 5.4048 30.8565 3.70914 26.9256 3.03795L26.4038 3.9211L25.9863 3.67382L26.4038 2.93197L27.0647 1.76621L27.2039 1.4836L28.004 0.0705566C32.8742 0.600448 37.3965 2.61403 41.0492 5.72273L37.5009 7.87762Z" fill="#ED1C24"/>
<path fill-rule="evenodd" clip-rule="evenodd" d="M15.5843 5.0164C10.401 6.71205 6.22659 10.4213 3.65234 15.5082C6.29617 10.4566 10.7141 6.88868 16.0713 5.58162L15.5843 5.0164ZM40.5615 15.5082C36.9784 8.44303 29.8123 3.99194 21.9852 3.99194C20.6285 3.99194 19.3065 4.13325 18.0194 4.38053L18.8195 5.12238C19.4109 5.05173 20.0023 5.05173 20.5937 5.05173C27.7598 5.05173 34.3694 9.0789 37.7437 15.5082C37.8829 15.5082 38.8221 15.5082 40.5615 15.5082Z" fill="white"/>
<path fill-rule="evenodd" clip-rule="evenodd" d="M24.8379 14.7662C24.3857 14.7662 24.0031 14.5543 23.7248 14.2364L12.906 0.918415C12.8712 0.883089 12.9408 0.812437 12.9755 0.847763L25.7424 12.3994C26.6469 13.2472 26.0555 14.7662 24.8379 14.7662Z" fill="#ED1C24"/>
<path d="M14.0888 4.663L12.906 3.46191C9.21859 5.65213 6.22689 8.90213 3.96573 12.682C3.54829 13.3885 3.2352 13.8831 2.81776 14.4483L0 18.2282L1.66978 17.6983L1.25234 22.3967L5.25286 16.1087L2.57425 17.451L3.65265 14.4483C4.00052 13.5299 4.3136 12.9293 4.90498 12.0815C7.09657 8.69018 10.4361 6.25267 14.0888 4.663Z" fill="#ED1C24"/>
<path fill-rule="evenodd" clip-rule="evenodd" d="M47.9366 17.7336C48.1453 16.5325 47.9018 15.3314 47.5192 14.2716C46.1625 11.3749 44.3188 8.79608 42.0576 6.67651L39.4833 8.19554L37.3613 9.43195L37.6048 9.85586L38.8572 9.11401C40.6313 10.845 42.1272 12.8586 43.3099 15.1194L43.7622 16.0026C43.5534 15.9673 43.3099 15.9319 43.0664 15.9319C42.3707 15.9319 41.7097 16.1086 41.1531 16.4618C40.5617 16.8151 40.1095 17.2743 39.7616 17.8396C39.4138 18.4401 39.2398 19.076 39.2398 19.7825C39.2398 20.4184 39.379 20.9483 39.6573 21.4428C39.9356 21.9021 40.3182 22.2906 40.7705 22.5379C41.2227 22.7852 41.7445 22.9265 42.2663 22.9265C42.9621 22.9265 43.5882 22.7146 44.0752 22.2553L44.0405 22.4319C43.9709 22.8912 43.7622 23.2444 43.5186 23.4564C43.2404 23.6684 42.8229 23.8097 42.3011 23.8097C41.8837 23.8097 41.4662 23.739 41.0488 23.633C40.6313 23.4917 40.2834 23.3151 40.0051 23.1031L38.7528 25.1167C39.6573 25.7173 40.8053 25.9999 42.2663 25.9999C43.5882 25.9999 44.6666 25.6819 45.4667 25.0108C46.3016 24.3396 46.8234 23.3151 47.1017 21.8667M44.1796 20.2064C43.9361 20.4537 43.6578 20.5597 43.2751 20.5597C42.9621 20.5597 42.7185 20.489 42.5098 20.3124C42.3359 20.1358 42.2315 19.9238 42.2315 19.6412C42.2315 19.2526 42.3359 18.8993 42.5794 18.6521C42.8229 18.4048 43.136 18.2988 43.5186 18.2988C43.8317 18.2988 44.0752 18.3694 44.284 18.5461C44.4579 18.7227 44.5623 18.9347 44.5623 19.2173C44.5275 19.6412 44.4231 19.9591 44.1796 20.2064Z" fill="white"/>
</g>
<defs>
<clipPath id="clip0_83_621">
<rect width="67" height="26" fill="white"/>
</clipPath>
</defs>
</svg>
