<svg width="20" height="22" viewBox="0 0 20 22" fill="none" xmlns="http://www.w3.org/2000/svg">
<path d="M10.0042 22C11.5661 22 12.8155 20.7969 12.8155 19.25H7.14829C7.14829 20.7969 8.39776 22 10.0042 22ZM19.5984 15.5977C18.7505 14.6953 17.0994 13.3633 17.0994 8.9375C17.0994 5.62891 14.6897 2.96484 11.3876 2.27734V1.375C11.3876 0.644531 10.7628 0 10.0042 0C9.201 0 8.57626 0.644531 8.57626 1.375V2.27734C5.27409 2.96484 2.86439 5.62891 2.86439 8.9375C2.86439 13.3633 1.2133 14.6953 0.365448 15.5977C0.0977042 15.8555 -0.0361677 16.1992 0.00845626 16.5C0.00845626 17.2305 0.543944 17.875 1.43642 17.875H18.5274C19.4199 17.875 19.9554 17.2305 20 16.5C20 16.1992 19.8661 15.8555 19.5984 15.5977Z" fill="white"/>
</svg>
