<svg width="16" height="16" viewBox="0 0 16 16" fill="none" xmlns="http://www.w3.org/2000/svg">
<g clip-path="url(#clip0_2710_2536)">
<path d="M2.66699 7C2.11366 7 1.66699 7.44667 1.66699 8C1.66699 8.55333 2.11366 9 2.66699 9C3.22033 9 3.66699 8.55333 3.66699 8C3.66699 7.44667 3.22033 7 2.66699 7ZM2.66699 3C2.11366 3 1.66699 3.44667 1.66699 4C1.66699 4.55333 2.11366 5 2.66699 5C3.22033 5 3.66699 4.55333 3.66699 4C3.66699 3.44667 3.22033 3 2.66699 3ZM2.66699 11C2.11366 11 1.66699 11.4533 1.66699 12C1.66699 12.5467 2.12033 13 2.66699 13C3.21366 13 3.66699 12.5467 3.66699 12C3.66699 11.4533 3.22033 11 2.66699 11ZM4.66699 12.6667H14.0003V11.3333H4.66699V12.6667ZM4.66699 8.66667H14.0003V7.33333H4.66699V8.66667ZM4.66699 3.33333V4.66667H14.0003V3.33333H4.66699Z" fill="#767676"/>
</g>
<defs>
<clipPath id="clip0_2710_2536">
<rect width="16" height="16" fill="white"/>
</clipPath>
</defs>
</svg>
