<svg width="16" height="16" viewBox="0 0 16 16" fill="none" xmlns="http://www.w3.org/2000/svg">
<path d="M13.7666 11.5419L12.4363 10.655L11.2537 9.8667C11.0255 9.71485 10.7188 9.76464 10.5503 9.98091L9.81848 10.9217C9.66129 11.1258 9.37852 11.1845 9.1531 11.0597C8.65656 10.7835 8.06939 10.5234 6.77382 9.22616C5.47826 7.92894 5.21654 7.34343 4.94033 6.84689C4.81553 6.62147 4.87419 6.3387 5.07833 6.18153L6.01907 5.44975C6.23533 5.28128 6.28513 4.97456 6.13328 4.7463L5.36923 3.60011L4.45806 2.23334C4.30298 2.0007 3.99253 1.93086 3.75276 2.07465L2.70193 2.70506C2.41794 2.87238 2.20919 3.14256 2.11891 3.4596C1.83155 4.50731 1.77361 6.81853 5.47763 10.5225C9.18164 14.2266 11.4926 14.1684 12.5404 13.8811C12.8574 13.7908 13.1276 13.582 13.2949 13.298L13.9253 12.2472C14.0691 12.0074 13.9993 11.697 13.7666 11.5419Z" fill="#3F92D1"/>
<path d="M8.73565 4.32191C10.4615 4.32383 11.8601 5.72244 11.8621 7.44831C11.8621 7.54987 11.9444 7.63223 12.046 7.63223C12.1475 7.63223 12.2299 7.54989 12.2299 7.44831C12.2278 5.5194 10.6646 3.95623 8.73567 3.9541C8.63411 3.9541 8.55176 4.03643 8.55176 4.13802C8.55174 4.23956 8.63407 4.32191 8.73565 4.32191Z" fill="#3F92D1"/>
<path d="M8.73567 5.42545C9.85239 5.42676 10.7573 6.33171 10.7586 7.4484C10.7586 7.54996 10.841 7.63232 10.9425 7.63232C11.0441 7.63232 11.1265 7.54998 11.1265 7.4484C11.1249 6.12865 10.0554 5.05914 8.73567 5.05762C8.63411 5.05762 8.55176 5.13995 8.55176 5.24153C8.55176 5.34311 8.63409 5.42545 8.73567 5.42545Z" fill="#3F92D1"/>
<path d="M8.73565 6.52894C9.24325 6.52955 9.65458 6.94087 9.65518 7.44847C9.65518 7.55003 9.73751 7.63239 9.8391 7.63239C9.94066 7.63239 10.023 7.55005 10.023 7.44847C10.0222 6.73783 9.44631 6.16195 8.73567 6.16113C8.63411 6.16113 8.55176 6.24346 8.55176 6.34505C8.55174 6.44661 8.63407 6.52894 8.73565 6.52894Z" fill="#3F92D1"/>
</svg>
