<svg width="38" height="28" viewBox="0 0 38 28" fill="none" xmlns="http://www.w3.org/2000/svg">
<path d="M4.00033 0.666016C3.11627 0.666016 2.26842 1.0172 1.6433 1.64233C1.01818 2.26745 0.666992 3.11529 0.666992 3.99935V22.3327H4.00033C4.00033 23.6588 4.52711 24.9305 5.46479 25.8682C6.40247 26.8059 7.67424 27.3327 9.00033 27.3327C10.3264 27.3327 11.5982 26.8059 12.5359 25.8682C13.4735 24.9305 14.0003 23.6588 14.0003 22.3327H24.0003C24.0003 23.6588 24.5271 24.9305 25.4648 25.8682C26.4025 26.8059 27.6742 27.3327 29.0003 27.3327C30.3264 27.3327 31.5982 26.8059 32.5359 25.8682C33.4735 24.9305 34.0003 23.6588 34.0003 22.3327H37.3337V13.9993L32.3337 7.33268H27.3337V0.666016M15.667 3.99935L22.3337 10.666L15.667 17.3327V12.3327H5.66699V8.99935H15.667M27.3337 9.83268H31.5003L34.7837 13.9993H27.3337M9.00033 19.8327C9.66337 19.8327 10.2993 20.0961 10.7681 20.5649C11.2369 21.0338 11.5003 21.6696 11.5003 22.3327C11.5003 22.9957 11.2369 23.6316 10.7681 24.1004C10.2993 24.5693 9.66337 24.8327 9.00033 24.8327C8.33728 24.8327 7.7014 24.5693 7.23256 24.1004C6.76372 23.6316 6.50033 22.9957 6.50033 22.3327C6.50033 21.6696 6.76372 21.0338 7.23256 20.5649C7.7014 20.0961 8.33728 19.8327 9.00033 19.8327ZM29.0003 19.8327C29.6634 19.8327 30.2993 20.0961 30.7681 20.5649C31.2369 21.0338 31.5003 21.6696 31.5003 22.3327C31.5003 22.9957 31.2369 23.6316 30.7681 24.1004C30.2993 24.5693 29.6634 24.8327 29.0003 24.8327C28.3373 24.8327 27.7014 24.5693 27.2326 24.1004C26.7637 23.6316 26.5003 22.9957 26.5003 22.3327C26.5003 21.6696 26.7637 21.0338 27.2326 20.5649C27.7014 20.0961 28.3373 19.8327 29.0003 19.8327Z" fill="#075970"/>
</svg>
