<svg width="34" height="34" viewBox="0 0 34 34" fill="none" xmlns="http://www.w3.org/2000/svg">
<path d="M30.333 0.333984H3.66634C1.83301 0.333984 0.333008 1.83398 0.333008 3.66732V33.6673L6.99967 27.0007H30.333C32.1663 27.0007 33.6663 25.5007 33.6663 23.6673V3.66732C33.6663 1.83398 32.1663 0.333984 30.333 0.333984ZM18.6663 20.334H15.333V17.0007H18.6663V20.334ZM16.9997 13.6673C16.083 13.6673 15.333 12.9173 15.333 12.0007V8.66732C15.333 7.75065 16.083 7.00065 16.9997 7.00065C17.9163 7.00065 18.6663 7.75065 18.6663 8.66732V12.0007C18.6663 12.9173 17.9163 13.6673 16.9997 13.6673Z" fill="#ED1C24"/>
</svg>
