<svg width="36" height="36" viewBox="0 0 36 36" fill="none" xmlns="http://www.w3.org/2000/svg">
<path d="M30.333 0.333984H0.333008V10.334H30.333V0.333984ZM26.9997 7.00065H3.66634V3.66732H26.9997V7.00065ZM23.6663 12.0007C21.483 12.0007 19.433 12.6173 17.683 13.6673H11.1663C10.6997 13.6673 10.333 14.034 10.333 14.5007V17.0007H14.0997C12.7289 18.9531 11.9954 21.2817 11.9997 23.6673C11.9997 24.834 12.183 25.9507 12.483 27.0007H5.33301V12.0007H1.99967V30.334H14.0997C16.2163 33.3507 19.6997 35.334 23.6663 35.334C30.1163 35.334 35.333 30.1173 35.333 23.6673C35.333 17.2173 30.1163 12.0007 23.6663 12.0007ZM23.6663 32.0007C19.0663 32.0007 15.333 28.2673 15.333 23.6673C15.333 19.0673 19.0663 15.334 23.6663 15.334C28.2663 15.334 31.9997 19.0673 31.9997 23.6673C31.9997 28.2673 28.2663 32.0007 23.6663 32.0007ZM24.4997 24.084L29.2663 26.9007L28.0163 28.934L21.9997 25.334V17.0007H24.4997V24.084Z" fill="#207CDC"/>
</svg>
