<svg width="40" height="40" viewBox="0 0 40 40" fill="none" xmlns="http://www.w3.org/2000/svg">
<path d="M31.6667 3.33333H24.7C24 1.4 22.1667 0 20 0C17.8333 0 16 1.4 15.3 3.33333H8.33333C6.5 3.33333 5 4.83333 5 6.66667V33.3333C5 35.1667 6.5 36.6667 8.33333 36.6667H31.6667C33.5 36.6667 35 35.1667 35 33.3333V6.66667C35 4.83333 33.5 3.33333 31.6667 3.33333ZM20 3.33333C20.9167 3.33333 21.6667 4.08333 21.6667 5C21.6667 5.91667 20.9167 6.66667 20 6.66667C19.0833 6.66667 18.3333 5.91667 18.3333 5C18.3333 4.08333 19.0833 3.33333 20 3.33333ZM30 33.3333H10C9.08333 33.3333 8.33333 32.5833 8.33333 31.6667V8.33333C8.33333 7.41667 9.08333 6.66667 10 6.66667H11.6667V8.33333C11.6667 10.1667 13.1667 11.6667 15 11.6667H25C26.8333 11.6667 28.3333 10.1667 28.3333 8.33333V6.66667H30C30.9167 6.66667 31.6667 7.41667 31.6667 8.33333V31.6667C31.6667 32.5833 30.9167 33.3333 30 33.3333Z" fill="#ED1C24"/>
<path d="M17.4577 24.7625L14.6775 21.9823C14.3677 21.6725 13.8752 21.6725 13.5654 21.9823C13.2556 22.2921 13.2556 22.7846 13.5654 23.0944L16.8937 26.4227C17.2035 26.7325 17.704 26.7325 18.0138 26.4227L26.434 18.0105C26.7438 17.7007 26.7438 17.2082 26.434 16.8984C26.1242 16.5886 25.6317 16.5886 25.3219 16.8984L17.4577 24.7625Z" fill="#ED1C24"/>
</svg>
