<svg width="33" height="30" viewBox="0 0 33 30" fill="none" xmlns="http://www.w3.org/2000/svg">
<path d="M3.47389 29.2042H28.7546C31.3398 29.2042 32.9513 26.4009 31.6587 24.1682L19.0184 2.32877C17.7258 0.0961401 14.5027 0.0961401 13.2102 2.32877L0.5698 24.1682C-0.722774 26.4009 0.888746 29.2042 3.47389 29.2042ZM16.1143 17.4536C15.191 17.4536 14.4356 16.6982 14.4356 15.7749V12.4176C14.4356 11.4943 15.191 10.7389 16.1143 10.7389C17.0375 10.7389 17.7929 11.4943 17.7929 12.4176V15.7749C17.7929 16.6982 17.0375 17.4536 16.1143 17.4536ZM17.7929 24.1682H14.4356V20.8109H17.7929V24.1682Z" fill="#ED1C24"/>
</svg>
