<svg width="10" height="12" viewBox="0 0 10 12" fill="none" xmlns="http://www.w3.org/2000/svg">
<path d="M0.333496 0V12H4.3335V9.66667H5.66683V12H9.66683V0H0.333496ZM1.66683 1.33333H3.00016V2.66667H1.66683V1.33333ZM4.3335 1.33333H5.66683V2.66667H4.3335V1.33333ZM7.00016 1.33333H8.3335V2.66667H7.00016V1.33333ZM1.66683 4H3.00016V5.33333H1.66683V4ZM4.3335 4H5.66683V5.33333H4.3335V4ZM7.00016 4H8.3335V5.33333H7.00016V4ZM1.66683 6.66667H3.00016V8H1.66683V6.66667ZM4.3335 6.66667H5.66683V8H4.3335V6.66667ZM7.00016 6.66667H8.3335V8H7.00016V6.66667ZM1.66683 9.33333H3.00016V10.6667H1.66683V9.33333ZM7.00016 9.33333H8.3335V10.6667H7.00016V9.33333Z" fill="#0688EE"/>
</svg>
