<svg width="11" height="11" viewBox="0 0 11 11" fill="none" xmlns="http://www.w3.org/2000/svg">
<path d="M5 1.5C5 1.23478 5.10536 0.98043 5.29289 0.792893C5.48043 0.605357 5.73478 0.5 6 0.5H9.5C9.76522 0.5 10.0196 0.605357 10.2071 0.792893C10.3946 0.98043 10.5 1.23478 10.5 1.5V4.5C10.5 4.76522 10.3946 5.01957 10.2071 5.20711C10.0196 5.39464 9.76522 5.5 9.5 5.5H6C5.73478 5.5 5.48043 5.39464 5.29289 5.20711C5.10536 5.01957 5 4.76522 5 4.5V1.5ZM6.25 2C6.1837 2 6.12011 2.02634 6.07322 2.07322C6.02634 2.12011 6 2.1837 6 2.25C6 2.3163 6.02634 2.37989 6.07322 2.42678C6.12011 2.47366 6.1837 2.5 6.25 2.5H9.25C9.3163 2.5 9.37989 2.47366 9.42678 2.42678C9.47366 2.37989 9.5 2.3163 9.5 2.25C9.5 2.1837 9.47366 2.12011 9.42678 2.07322C9.37989 2.02634 9.3163 2 9.25 2H6.25ZM6.25 3.5C6.1837 3.5 6.12011 3.52634 6.07322 3.57322C6.02634 3.62011 6 3.6837 6 3.75C6 3.8163 6.02634 3.87989 6.07322 3.92678C6.12011 3.97366 6.1837 4 6.25 4H9.25C9.3163 4 9.37989 3.97366 9.42678 3.92678C9.47366 3.87989 9.5 3.8163 9.5 3.75C9.5 3.6837 9.47366 3.62011 9.42678 3.57322C9.37989 3.52634 9.3163 3.5 9.25 3.5H6.25Z" fill="#0688EE"/>
<path d="M1.625 1.5H4.5V2.25H1.625C1.39294 2.25 1.17038 2.34219 1.00628 2.50628C0.842187 2.67038 0.75 2.89294 0.75 3.125V7.375C0.75 7.858 1.142 8.25 1.625 8.25H2.7495V10.125L5.257 8.25H8.375C8.60706 8.25 8.82962 8.15781 8.99372 7.99372C9.15781 7.82962 9.25 7.60706 9.25 7.375V6H9.5C9.675 6 9.8435 5.97 10 5.915V7.375C10 7.5884 9.95797 7.79971 9.8763 7.99686C9.79464 8.19401 9.67494 8.37315 9.52405 8.52405C9.37315 8.67494 9.19401 8.79464 8.99686 8.8763C8.79971 8.95797 8.5884 9 8.375 9H5.506L3 10.875C2.90714 10.9445 2.79678 10.9868 2.68126 10.9971C2.56573 11.0075 2.44961 10.9855 2.34588 10.9336C2.24215 10.8817 2.15491 10.802 2.09391 10.7033C2.03291 10.6047 2.00057 10.491 2.0005 10.375V9H1.6255C1.41206 9.00007 1.2007 8.95808 1.00349 8.87645C0.806274 8.79481 0.627076 8.67513 0.476128 8.52423C0.32518 8.37332 0.205439 8.19416 0.123744 7.99698C0.0420484 7.79979 -1.01037e-08 7.58844 0 7.375V3.125C0 2.69402 0.171205 2.2807 0.475951 1.97595C0.780698 1.6712 1.19402 1.5 1.625 1.5Z" fill="#0688EE"/>
</svg>
