<svg width="14" height="14" viewBox="0 0 14 14" fill="none" xmlns="http://www.w3.org/2000/svg">
<path d="M3.50008 11.0974C3.50008 11.6984 4.02508 12.1901 4.66675 12.1901H9.33341C9.97508 12.1901 10.5001 11.6984 10.5001 11.0974V5.63401C10.5001 5.03303 9.97508 4.54132 9.33341 4.54132H4.66675C4.02508 4.54132 3.50008 5.03303 3.50008 5.63401V11.0974ZM10.5001 2.9023H9.04175L8.62758 2.5144C8.52258 2.41605 8.37091 2.35596 8.21925 2.35596H5.78091C5.62925 2.35596 5.47758 2.41605 5.37258 2.5144L4.95841 2.9023H3.50008C3.17925 2.9023 2.91675 3.14815 2.91675 3.44864C2.91675 3.74913 3.17925 3.99498 3.50008 3.99498H10.5001C10.8209 3.99498 11.0834 3.74913 11.0834 3.44864C11.0834 3.14815 10.8209 2.9023 10.5001 2.9023Z" fill="#828282"/>
</svg>
