<svg width="14" height="14" viewBox="0 0 14 14" fill="none" xmlns="http://www.w3.org/2000/svg">
<path d="M2.33333 10.6926H11.6667C11.9875 10.6926 12.25 10.4467 12.25 10.1462C12.25 9.84574 11.9875 9.59989 11.6667 9.59989H2.33333C2.0125 9.59989 1.75 9.84574 1.75 10.1462C1.75 10.4467 2.0125 10.6926 2.33333 10.6926ZM2.33333 7.96087H11.6667C11.9875 7.96087 12.25 7.71501 12.25 7.41452C12.25 7.11404 11.9875 6.86818 11.6667 6.86818H2.33333C2.0125 6.86818 1.75 7.11404 1.75 7.41452C1.75 7.71501 2.0125 7.96087 2.33333 7.96087ZM1.75 4.68282C1.75 4.9833 2.0125 5.22916 2.33333 5.22916H11.6667C11.9875 5.22916 12.25 4.9833 12.25 4.68282C12.25 4.38233 11.9875 4.13647 11.6667 4.13647H2.33333C2.0125 4.13647 1.75 4.38233 1.75 4.68282Z" fill="#828282"/>
</svg>
