<svg width="12" height="9" viewBox="0 0 12 9" fill="none" xmlns="http://www.w3.org/2000/svg">
<path d="M10.4349 3.981C10.6719 4.291 10.6719 4.7095 10.4349 5.019C9.6884 5.9935 7.8974 8 5.8064 8C3.7154 8 1.9244 5.9935 1.1779 5.019C1.06259 4.87057 1 4.68796 1 4.5C1 4.31204 1.06259 4.12943 1.1779 3.981C1.9244 3.0065 3.7154 1 5.8064 1C7.8974 1 9.6884 3.0065 10.4349 3.981V3.981Z" stroke="#767676" stroke-linecap="round" stroke-linejoin="round"/>
<path d="M5.80664 6C6.63507 6 7.30664 5.32843 7.30664 4.5C7.30664 3.67157 6.63507 3 5.80664 3C4.97821 3 4.30664 3.67157 4.30664 4.5C4.30664 5.32843 4.97821 6 5.80664 6Z" stroke="#767676" stroke-linecap="round" stroke-linejoin="round"/>
</svg>
