<svg width="12" height="14" viewBox="0 0 12 14" fill="none" xmlns="http://www.w3.org/2000/svg">
<path d="M5.99984 7.00004C6.3665 7.00004 6.6805 6.86937 6.94184 6.60804C7.20273 6.34715 7.33317 6.03337 7.33317 5.66671C7.33317 5.30004 7.20273 4.98604 6.94184 4.72471C6.6805 4.46382 6.3665 4.33337 5.99984 4.33337C5.63317 4.33337 5.31939 4.46382 5.0585 4.72471C4.79717 4.98604 4.6665 5.30004 4.6665 5.66671C4.6665 6.03337 4.79717 6.34715 5.0585 6.60804C5.31939 6.86937 5.63317 7.00004 5.99984 7.00004ZM5.99984 13.6667C4.21095 12.1445 2.87495 10.7305 1.99184 9.42471C1.10828 8.11937 0.666504 6.91115 0.666504 5.80004C0.666504 4.13337 1.20273 2.8056 2.27517 1.81671C3.34717 0.827818 4.58873 0.333374 5.99984 0.333374C7.41095 0.333374 8.6525 0.827818 9.7245 1.81671C10.7969 2.8056 11.3332 4.13337 11.3332 5.80004C11.3332 6.91115 10.8916 8.11937 10.0085 9.42471C9.12495 10.7305 7.78873 12.1445 5.99984 13.6667Z" fill="#767676"/>
</svg>
