<svg width="17" height="15" viewBox="0 0 17 15" fill="none" xmlns="http://www.w3.org/2000/svg">
<g clip-path="url(#clip0_848_3437)">
<path d="M7.72766 1.58654C7.93579 1.48351 8.16994 1.42944 8.40801 1.42944C8.64608 1.42944 8.88022 1.48351 9.08835 1.58654L14.3538 4.19355C14.463 4.24767 14.5539 4.32681 14.6173 4.42279C14.6806 4.51877 14.714 4.62809 14.714 4.73944V9.88288C14.7139 10.1056 14.647 10.3243 14.5203 10.5163C14.3935 10.7083 14.2114 10.8665 13.993 10.9747L9.08835 13.4043C8.88022 13.5073 8.64608 13.5614 8.40801 13.5614C8.16994 13.5614 7.93579 13.5073 7.72766 13.4043L2.82303 10.9747C2.60467 10.8666 2.4227 10.7084 2.29593 10.5166C2.16917 10.3247 2.10223 10.1062 2.10205 9.88351V4.73944C2.10205 4.62809 2.13543 4.51877 2.19875 4.42279C2.26207 4.32681 2.35303 4.24767 2.46219 4.19355L7.72836 1.58654H7.72766Z" stroke="#767676" stroke-linecap="round" stroke-linejoin="round"/>
<path d="M2.10205 4.37207L8.40801 7.49499M8.40801 7.49499L14.714 4.37207M8.40801 7.49499V13.4285" stroke="#767676" stroke-linejoin="round"/>
<path d="M5.25509 5.93371L11.561 2.81079M4.2041 7.70003L6.30609 8.74433" stroke="#767676" stroke-linecap="round" stroke-linejoin="round"/>
</g>
<defs>
<clipPath id="clip0_848_3437">
<rect width="16.8159" height="14.99" fill="white"/>
</clipPath>
</defs>
</svg>
