<svg width="16" height="14" viewBox="0 0 16 14" fill="none" xmlns="http://www.w3.org/2000/svg">
<path d="M4.8982 4.79998L5.531 0.599976H2.2398L0.864605 4.19998C0.822205 4.32798 0.799805 4.46078 0.799805 4.59998C0.799805 5.48318 1.7198 6.19998 2.8566 6.19998C3.9046 6.19998 4.771 5.58878 4.8982 4.79998ZM7.9998 6.19998C9.1358 6.19998 10.0566 5.48318 10.0566 4.59998C10.0566 4.56718 10.0542 4.53438 10.0526 4.50318L9.6454 0.599976H6.3542L5.9462 4.49998C5.94431 4.53328 5.94325 4.56662 5.943 4.59998C5.943 5.48318 6.8638 6.19998 7.9998 6.19998ZM11.9998 7.03678V10.2H3.9998V7.04158C3.6494 7.16798 3.2638 7.23998 2.8566 7.23998C2.7006 7.23998 2.5494 7.22158 2.3998 7.20078V12.28C2.3998 12.896 2.903 13.4 3.5182 13.4H12.4798C13.0958 13.4 13.5998 12.8952 13.5998 12.28V7.20158C13.4486 7.22479 13.296 7.23789 13.143 7.24078C12.7529 7.24038 12.3659 7.17133 11.9998 7.03678ZM15.1358 4.19998L13.759 0.599976H10.4686L11.1006 4.79358C11.2238 5.58558 12.0902 6.19998 13.143 6.19998C14.279 6.19998 15.1998 5.48318 15.1998 4.59998C15.1998 4.46078 15.1774 4.32798 15.1358 4.19998Z" fill="#767676"/>
</svg>
