<svg width="34" height="45" viewBox="0 0 34 45" fill="none" xmlns="http://www.w3.org/2000/svg">
<path d="M2.49967 39.3334C2.49967 41.9917 4.67467 44.1667 7.33301 44.1667H26.6663C29.3247 44.1667 31.4997 41.9917 31.4997 39.3334V15.1667C31.4997 12.5084 29.3247 10.3334 26.6663 10.3334H7.33301C4.67467 10.3334 2.49967 12.5084 2.49967 15.1667V39.3334ZM31.4997 3.08341H25.458L23.7422 1.36758C23.3072 0.932581 22.6788 0.666748 22.0505 0.666748H11.9488C11.3205 0.666748 10.6922 0.932581 10.2572 1.36758L8.54134 3.08341H2.49967C1.17051 3.08341 0.0830078 4.17091 0.0830078 5.50008C0.0830078 6.82925 1.17051 7.91675 2.49967 7.91675H31.4997C32.8288 7.91675 33.9163 6.82925 33.9163 5.50008C33.9163 4.17091 32.8288 3.08341 31.4997 3.08341Z" fill="#DF4747"/>
</svg>
