<svg width="24" height="24" viewBox="0 0 24 24" fill="none" xmlns="http://www.w3.org/2000/svg">
<path d="M12 2C6.47 2 2 6.47 2 12C2 17.53 6.47 22 12 22C17.53 22 22 17.53 22 12C22 6.47 17.53 2 12 2ZM16.295 14.885C16.6844 15.2744 16.6844 15.9056 16.295 16.295C15.9056 16.6844 15.2744 16.6844 14.885 16.295L12.7071 14.1171C12.3166 13.7266 11.6834 13.7266 11.2929 14.1171L9.115 16.295C8.72564 16.6844 8.09436 16.6844 7.705 16.295C7.31564 15.9056 7.31564 15.2744 7.705 14.885L9.88289 12.7071C10.2734 12.3166 10.2734 11.6834 9.88289 11.2929L7.705 9.115C7.31564 8.72564 7.31564 8.09436 7.705 7.705C8.09436 7.31564 8.72564 7.31564 9.115 7.705L11.2929 9.88289C11.6834 10.2734 12.3166 10.2734 12.7071 9.88289L14.885 7.705C15.2744 7.31564 15.9056 7.31564 16.295 7.705C16.6844 8.09436 16.6844 8.72564 16.295 9.115L14.1171 11.2929C13.7266 11.6834 13.7266 12.3166 14.1171 12.7071L16.295 14.885Z" fill="#075970"/>
</svg>
