<svg width="16" height="16" viewBox="0 0 16 16" fill="none" xmlns="http://www.w3.org/2000/svg">
<path d="M8.00004 1.33331C4.32004 1.33331 1.33337 4.31998 1.33337 7.99998C1.33337 11.68 4.32004 14.6666 8.00004 14.6666C11.68 14.6666 14.6667 11.68 14.6667 7.99998C14.6667 4.31998 11.68 1.33331 8.00004 1.33331ZM7.37381 10.6262C6.98329 11.0167 6.35012 11.0167 5.9596 10.6262L3.8037 8.47031C3.54395 8.21055 3.54395 7.78941 3.8037 7.52965C4.0632 7.27015 4.48384 7.26986 4.7437 7.529L5.9596 8.74151C6.35029 9.13111 6.98269 9.13066 7.37283 8.74053L11.2534 4.85998C11.5145 4.59884 11.9381 4.59959 12.1984 4.86165C12.4573 5.12241 12.4565 5.54347 12.1967 5.80332L7.37381 10.6262Z" fill="#207CDC"/>
</svg>
