<svg width="14" height="14" viewBox="0 0 14 14" fill="none" xmlns="http://www.w3.org/2000/svg">
<path d="M7.00065 0.333374C3.31398 0.333374 0.333984 3.31337 0.333984 7.00004C0.333984 10.6867 3.31398 13.6667 7.00065 13.6667C10.6873 13.6667 13.6673 10.6867 13.6673 7.00004C13.6673 3.31337 10.6873 0.333374 7.00065 0.333374ZM9.86398 8.92337C10.1236 9.18295 10.1236 9.6038 9.86399 9.86337C9.60441 10.1229 9.18356 10.1229 8.92398 9.86337L7.70776 8.64715C7.31723 8.25662 6.68407 8.25662 6.29354 8.64715L5.07732 9.86337C4.81774 10.1229 4.39689 10.1229 4.13732 9.86337C3.87774 9.6038 3.87774 9.18295 4.13732 8.92337L5.35354 7.70715C5.74407 7.31662 5.74407 6.68346 5.35354 6.29293L4.13732 5.07671C3.87774 4.81713 3.87774 4.39628 4.13732 4.13671C4.39689 3.87713 4.81774 3.87713 5.07732 4.13671L6.29354 5.35293C6.68407 5.74346 7.31723 5.74346 7.70776 5.35293L8.92398 4.13671C9.18356 3.87713 9.60441 3.87713 9.86399 4.13671C10.1236 4.39628 10.1236 4.81713 9.86399 5.07671L8.64776 6.29293C8.25723 6.68346 8.25723 7.31662 8.64776 7.70715L9.86398 8.92337Z" fill="#3F92D1"/>
</svg>
