<svg width="6" height="6" viewBox="0 0 6 6" fill="none" xmlns="http://www.w3.org/2000/svg">
<path d="M5.16261 4.32822L4.66374 3.99561L4.22026 3.70001C4.13467 3.64307 4.01965 3.66174 3.95647 3.74284L3.68205 4.09562C3.6231 4.17217 3.51707 4.19417 3.43253 4.14737C3.24633 4.04379 3.02614 3.94627 2.54031 3.45981C2.05447 2.97335 1.95632 2.75379 1.85275 2.56758C1.80594 2.48305 1.82794 2.37701 1.90449 2.31807L2.25727 2.04366C2.33837 1.98048 2.35705 1.86546 2.3001 1.77986L2.01358 1.35004L1.67189 0.837503C1.61374 0.750264 1.49732 0.724073 1.40741 0.777993L1.01335 1.0144C0.906851 1.07714 0.828568 1.17846 0.794713 1.29735C0.686952 1.69024 0.665225 2.55695 2.05423 3.94596C3.44324 5.33496 4.30987 5.31317 4.70276 5.2054C4.82165 5.17155 4.92297 5.09327 4.98571 4.98676L5.22212 4.59271C5.27604 4.50279 5.24985 4.38638 5.16261 4.32822Z" fill="#828282"/>
<path d="M3.27587 1.62059C3.92306 1.62131 4.44755 2.14579 4.44827 2.79299C4.44827 2.83108 4.47914 2.86196 4.51724 2.86196C4.55532 2.86196 4.58621 2.83109 4.58621 2.79299C4.58541 2.06965 3.99922 1.48346 3.27588 1.48267C3.23779 1.48267 3.20691 1.51354 3.20691 1.55163C3.2069 1.58971 3.23778 1.62059 3.27587 1.62059Z" fill="#828282"/>
<path d="M3.27588 2.03442C3.69465 2.03491 4.03399 2.37427 4.03449 2.79303C4.03449 2.83111 4.06536 2.862 4.10345 2.862C4.14154 2.862 4.17242 2.83112 4.17242 2.79303C4.17185 2.29812 3.77079 1.89705 3.27588 1.89648C3.23779 1.89648 3.20691 1.92736 3.20691 1.96545C3.20691 2.00355 3.23778 2.03442 3.27588 2.03442Z" fill="#828282"/>
<path d="M3.27587 2.44823C3.46622 2.44846 3.62047 2.60271 3.62069 2.79306C3.62069 2.83114 3.65157 2.86202 3.68966 2.86202C3.72775 2.86202 3.75863 2.83115 3.75863 2.79306C3.75832 2.52657 3.54237 2.31061 3.27588 2.3103C3.23779 2.3103 3.20691 2.34118 3.20691 2.37927C3.2069 2.41736 3.23778 2.44823 3.27587 2.44823Z" fill="#828282"/>
</svg>
