<svg width="10" height="10" viewBox="0 0 10 10" fill="none" xmlns="http://www.w3.org/2000/svg">
<path d="M9.32498 7.65645L8.32724 6.99123L7.44028 6.40003C7.26911 6.28614 7.03906 6.32348 6.9127 6.48569L6.36386 7.19125C6.24597 7.34435 6.03389 7.38835 5.86482 7.29474C5.49242 7.08759 5.05204 6.89254 4.08037 5.91962C3.10869 4.9467 2.9124 4.50757 2.70525 4.13517C2.61164 3.9661 2.65564 3.75402 2.80874 3.63615L3.5143 3.08731C3.6765 2.96096 3.71385 2.73092 3.59996 2.55973L3.02692 1.70008L2.34355 0.675006C2.22723 0.500528 1.9944 0.448145 1.81457 0.555986L1.02645 1.0288C0.813458 1.15429 0.656892 1.35692 0.589182 1.5947C0.373659 2.38049 0.330206 4.1139 3.10822 6.89191C5.88623 9.66992 7.61949 9.62633 8.40527 9.41079C8.64305 9.3431 8.84569 9.18653 8.97118 8.97352L9.44399 8.18542C9.55184 8.00558 9.49946 7.77276 9.32498 7.65645Z" fill="#3F92D1"/>
</svg>
