<svg width="14" height="14" viewBox="0 0 14 14" fill="none" xmlns="http://www.w3.org/2000/svg">
<path d="M6.99967 0.333252C3.31967 0.333252 0.333008 3.31992 0.333008 6.99992C0.333008 10.6799 3.31967 13.6666 6.99967 13.6666C10.6797 13.6666 13.6663 10.6799 13.6663 6.99992C13.6663 3.31992 10.6797 0.333252 6.99967 0.333252ZM6.37345 9.62615C5.98292 10.0167 5.34976 10.0167 4.95923 9.62615L2.80334 7.47025C2.54358 7.21049 2.54358 6.78935 2.80334 6.52959C3.06283 6.27009 3.48347 6.2698 3.74333 6.52894L4.95924 7.74145C5.34992 8.13104 5.98232 8.1306 6.37246 7.74046L10.253 3.85992C10.5142 3.59878 10.9378 3.59952 11.198 3.86159C11.4569 4.12235 11.4562 4.54341 11.1963 4.80326L6.37345 9.62615Z" fill="#26B01C"/>
</svg>
