<svg width="10" height="12" viewBox="0 0 10 12" fill="none" xmlns="http://www.w3.org/2000/svg">
<path d="M1.00065 10.6667C1.00065 11.4 1.60065 12 2.33398 12H7.66732C8.40065 12 9.00065 11.4 9.00065 10.6667V4C9.00065 3.26667 8.40065 2.66667 7.66732 2.66667H2.33398C1.60065 2.66667 1.00065 3.26667 1.00065 4V10.6667ZM9.00065 0.666667H7.33398L6.86065 0.193333C6.74065 0.0733333 6.56732 0 6.39398 0H3.60732C3.43398 0 3.26065 0.0733333 3.14065 0.193333L2.66732 0.666667H1.00065C0.633984 0.666667 0.333984 0.966667 0.333984 1.33333C0.333984 1.7 0.633984 2 1.00065 2H9.00065C9.36732 2 9.66732 1.7 9.66732 1.33333C9.66732 0.966667 9.36732 0.666667 9.00065 0.666667Z" fill="white"/>
</svg>
