<svg width="14" height="14" viewBox="0 0 14 14" fill="none" xmlns="http://www.w3.org/2000/svg">
<path d="M6.99967 0.333496C3.31967 0.333496 0.333008 3.32016 0.333008 7.00016C0.333008 10.6802 3.31967 13.6668 6.99967 13.6668C10.6797 13.6668 13.6663 10.6802 13.6663 7.00016C13.6663 3.32016 10.6797 0.333496 6.99967 0.333496ZM6.37345 9.62639C5.98292 10.0169 5.34976 10.0169 4.95923 9.62639L2.80334 7.47049C2.54358 7.21074 2.54358 6.78959 2.80334 6.52984C3.06283 6.27034 3.48347 6.27004 3.74333 6.52918L4.95924 7.74169C5.34992 8.13129 5.98232 8.13085 6.37246 7.74071L10.253 3.86017C10.5142 3.59902 10.9378 3.59977 11.198 3.86184C11.4569 4.1226 11.4562 4.54366 11.1963 4.8035L6.37345 9.62639Z" fill="#BDD6EE"/>
</svg>
