<svg width="14" height="14" viewBox="0 0 14 14" fill="none" xmlns="http://www.w3.org/2000/svg">
<path d="M6.35267 0.693563C6.5507 0.583589 6.77348 0.525879 7 0.525879C7.22652 0.525879 7.4493 0.583589 7.64733 0.693563L12.6573 3.47623C12.7612 3.53399 12.8477 3.61847 12.908 3.72091C12.9682 3.82336 13 3.94005 13 4.0589V9.5489C12.9999 9.78666 12.9363 10.0201 12.8157 10.225C12.6951 10.4299 12.5219 10.5988 12.314 10.7142L7.64733 13.3076C7.4493 13.4175 7.22652 13.4752 7 13.4752C6.77348 13.4752 6.5507 13.4175 6.35267 13.3076L1.686 10.7142C1.47824 10.5988 1.30509 10.43 1.18448 10.2253C1.06386 10.0205 1.00018 9.78721 1 9.54956V4.0589C0.999995 3.94005 1.03176 3.82336 1.09201 3.72091C1.15226 3.61847 1.2388 3.53399 1.34267 3.47623L6.35333 0.693563H6.35267Z" stroke="#207CDC" stroke-linecap="round" stroke-linejoin="round"/>
<path d="M1 3.66699L7 7.00033M7 7.00033L13 3.66699M7 7.00033V13.3337" stroke="#207CDC" stroke-linejoin="round"/>
<path d="M4 5.33333L10 2M3 7.21867L5 8.33333" stroke="#207CDC" stroke-linecap="round" stroke-linejoin="round"/>
</svg>
