<svg width="14" height="14" viewBox="0 0 14 14" fill="none" xmlns="http://www.w3.org/2000/svg">
<path d="M8.99956 6.33326V6.33993M2.44823 4.58526C2.15583 4.36053 1.93126 4.05933 1.79933 3.71495C1.66741 3.37057 1.63328 2.99642 1.7007 2.63385C1.76813 2.27128 1.93449 1.93441 2.1814 1.66048C2.4283 1.38655 2.74614 1.18622 3.09978 1.08163C3.45343 0.97704 3.8291 0.972267 4.18529 1.06784C4.54147 1.16341 4.8643 1.3556 5.11809 1.62317C5.37187 1.89074 5.54674 2.22327 5.62335 2.58401C5.69997 2.94474 5.67536 3.31964 5.55223 3.66726" stroke="#207CDC" stroke-linecap="round" stroke-linejoin="round"/>
<path d="M9.66633 1.6665V4.20184C10.4914 4.67925 11.1196 5.4348 11.4383 6.33317H12.3323C12.5091 6.33317 12.6787 6.40341 12.8037 6.52843C12.9288 6.65346 12.999 6.82303 12.999 6.99984V8.33317C12.999 8.50998 12.9288 8.67955 12.8037 8.80457C12.6787 8.9296 12.5091 8.99984 12.3323 8.99984H11.4377C11.2137 9.63317 10.833 10.1998 10.3323 10.6485V11.9998C10.3323 12.2651 10.227 12.5194 10.0394 12.7069C9.85191 12.8945 9.59755 12.9998 9.33233 12.9998C9.06712 12.9998 8.81276 12.8945 8.62523 12.7069C8.43769 12.5194 8.33233 12.2651 8.33233 11.9998V11.6112C8.11203 11.6481 7.88904 11.6666 7.66567 11.6665H4.999C4.77563 11.6666 4.55264 11.6481 4.33233 11.6112V11.9998C4.33233 12.2651 4.22698 12.5194 4.03944 12.7069C3.85191 12.8945 3.59755 12.9998 3.33234 12.9998C3.06712 12.9998 2.81276 12.8945 2.62523 12.7069C2.43769 12.5194 2.33234 12.2651 2.33234 11.9998V10.6665L2.333 10.6485C1.72902 10.1085 1.30324 9.39786 1.11203 8.61057C0.920814 7.82329 0.973173 6.9965 1.26218 6.23963C1.55118 5.48276 2.0632 4.83149 2.73048 4.37201C3.39776 3.91253 4.18883 3.66651 4.999 3.6665H6.66567L9.66567 1.6665H9.66633Z" stroke="#207CDC" stroke-linecap="round" stroke-linejoin="round"/>
</svg>
