<svg width="16" height="18" viewBox="0 0 16 18" fill="none" xmlns="http://www.w3.org/2000/svg">
<path d="M7.19083 1.11683C7.43837 0.979364 7.71685 0.907227 8 0.907227C8.28315 0.907227 8.56163 0.979364 8.80917 1.11683L15.0717 4.59517C15.2015 4.66737 15.3097 4.77296 15.385 4.90102C15.4603 5.02908 15.5 5.17494 15.5 5.3235V12.186C15.4999 12.4832 15.4204 12.775 15.2696 13.0311C15.1188 13.2872 14.9023 13.4984 14.6425 13.6427L8.80917 16.8843C8.56163 17.0218 8.28315 17.0939 8 17.0939C7.71685 17.0939 7.43837 17.0218 7.19083 16.8843L1.3575 13.6427C1.0978 13.4984 0.88136 13.2874 0.730595 13.0315C0.579831 12.7755 0.500219 12.4839 0.5 12.1868V5.3235C0.499994 5.17494 0.539702 5.02908 0.615013 4.90102C0.690323 4.77296 0.798497 4.66737 0.928333 4.59517L7.19167 1.11683H7.19083Z" stroke="#26B01C" stroke-linecap="round" stroke-linejoin="round"/>
<path d="M0.5 4.8335L8 9.00016M8 9.00016L15.5 4.8335M8 9.00016V16.9168" stroke="#26B01C" stroke-linejoin="round"/>
<path d="M4.25 6.91667L11.75 2.75M3 9.27333L5.5 10.6667" stroke="#26B01C" stroke-linecap="round" stroke-linejoin="round"/>
</svg>
