<svg width="16" height="16" viewBox="0 0 16 16" fill="none" xmlns="http://www.w3.org/2000/svg">
<path d="M7.06683 11.0663L11.7668 6.36634L10.8335 5.43301L7.06683 9.19967L5.16683 7.29967L4.2335 8.23301L7.06683 11.0663ZM8.00016 14.6663C7.07794 14.6663 6.21127 14.4912 5.40016 14.141C4.58905 13.7912 3.8835 13.3163 3.2835 12.7163C2.6835 12.1163 2.20861 11.4108 1.85883 10.5997C1.50861 9.78856 1.3335 8.9219 1.3335 7.99967C1.3335 7.07745 1.50861 6.21079 1.85883 5.39967C2.20861 4.58856 2.6835 3.88301 3.2835 3.28301C3.8835 2.68301 4.58905 2.2079 5.40016 1.85767C6.21127 1.5079 7.07794 1.33301 8.00016 1.33301C8.92238 1.33301 9.78905 1.5079 10.6002 1.85767C11.4113 2.2079 12.1168 2.68301 12.7168 3.28301C13.3168 3.88301 13.7917 4.58856 14.1415 5.39967C14.4917 6.21079 14.6668 7.07745 14.6668 7.99967C14.6668 8.9219 14.4917 9.78856 14.1415 10.5997C13.7917 11.4108 13.3168 12.1163 12.7168 12.7163C12.1168 13.3163 11.4113 13.7912 10.6002 14.141C9.78905 14.4912 8.92238 14.6663 8.00016 14.6663Z" fill="white"/>
</svg>
