<svg width="16" height="16" viewBox="0 0 16 16" fill="none" xmlns="http://www.w3.org/2000/svg">
<path d="M16 3V13H1V11H0V2H14V3H16ZM12 3C12 3.14062 12.026 3.27083 12.0781 3.39062C12.1302 3.51042 12.2005 3.61458 12.2891 3.70312C12.3776 3.79167 12.4844 3.86458 12.6094 3.92188C12.7344 3.97917 12.8646 4.00521 13 4V3H12ZM1 4C1.14062 4 1.27083 3.97396 1.39062 3.92188C1.51042 3.86979 1.61458 3.79948 1.70312 3.71094C1.79167 3.6224 1.86458 3.51562 1.92188 3.39062C1.97917 3.26562 2.00521 3.13542 2 3H1V4ZM1 8C1.27604 8 1.53385 8.05208 1.77344 8.15625C2.01302 8.26042 2.22656 8.40365 2.41406 8.58594C2.60156 8.76823 2.74479 8.97917 2.84375 9.21875C2.94271 9.45833 2.99479 9.71875 3 10H11C11 9.72396 11.0521 9.46615 11.1562 9.22656C11.2604 8.98698 11.4036 8.77344 11.5859 8.58594C11.7682 8.39844 11.9792 8.25521 12.2188 8.15625C12.4583 8.05729 12.7188 8.00521 13 8V5C12.724 5 12.4661 4.94792 12.2266 4.84375C11.987 4.73958 11.7734 4.59635 11.5859 4.41406C11.3984 4.23177 11.2552 4.02083 11.1562 3.78125C11.0573 3.54167 11.0052 3.28125 11 3H3C3 3.27604 2.94792 3.53385 2.84375 3.77344C2.73958 4.01302 2.59635 4.22656 2.41406 4.41406C2.23177 4.60156 2.02083 4.74479 1.78125 4.84375C1.54167 4.94271 1.28125 4.99479 1 5V8ZM13 9C12.8594 9 12.7292 9.02604 12.6094 9.07812C12.4896 9.13021 12.3854 9.20052 12.2969 9.28906C12.2083 9.3776 12.1354 9.48438 12.0781 9.60938C12.0208 9.73438 11.9948 9.86458 12 10H13V9ZM1 10H2C2 9.85938 1.97396 9.72917 1.92188 9.60938C1.86979 9.48958 1.79948 9.38542 1.71094 9.29688C1.6224 9.20833 1.51562 9.13542 1.39062 9.07812C1.26562 9.02083 1.13542 8.99479 1 9V10ZM15 4H14V11H2V12H15V4ZM3.5 7C3.36458 7 3.2474 6.95052 3.14844 6.85156C3.04948 6.7526 3 6.63542 3 6.5C3 6.36458 3.04948 6.2474 3.14844 6.14844C3.2474 6.04948 3.36458 6 3.5 6C3.63542 6 3.7526 6.04948 3.85156 6.14844C3.95052 6.2474 4 6.36458 4 6.5C4 6.63542 3.95052 6.7526 3.85156 6.85156C3.7526 6.95052 3.63542 7 3.5 7ZM10.5 7C10.3646 7 10.2474 6.95052 10.1484 6.85156C10.0495 6.7526 10 6.63542 10 6.5C10 6.36458 10.0495 6.2474 10.1484 6.14844C10.2474 6.04948 10.3646 6 10.5 6C10.6354 6 10.7526 6.04948 10.8516 6.14844C10.9505 6.2474 11 6.36458 11 6.5C11 6.63542 10.9505 6.7526 10.8516 6.85156C10.7526 6.95052 10.6354 7 10.5 7ZM7 9C6.72396 9 6.46615 8.94792 6.22656 8.84375C5.98698 8.73958 5.77344 8.59635 5.58594 8.41406C5.39844 8.23177 5.25521 8.02083 5.15625 7.78125C5.05729 7.54167 5.00521 7.28125 5 7V6C5 5.72396 5.05208 5.46615 5.15625 5.22656C5.26042 4.98698 5.40365 4.77344 5.58594 4.58594C5.76823 4.39844 5.97917 4.25521 6.21875 4.15625C6.45833 4.05729 6.71875 4.00521 7 4C7.27604 4 7.53385 4.05208 7.77344 4.15625C8.01302 4.26042 8.22656 4.40365 8.41406 4.58594C8.60156 4.76823 8.74479 4.97917 8.84375 5.21875C8.94271 5.45833 8.99479 5.71875 9 6V7C9 7.27604 8.94792 7.53385 8.84375 7.77344C8.73958 8.01302 8.59635 8.22656 8.41406 8.41406C8.23177 8.60156 8.02083 8.74479 7.78125 8.84375C7.54167 8.94271 7.28125 8.99479 7 9ZM6 7C6 7.14062 6.02604 7.27083 6.07812 7.39062C6.13021 7.51042 6.20052 7.61458 6.28906 7.70312C6.3776 7.79167 6.48438 7.86458 6.60938 7.92188C6.73438 7.97917 6.86458 8.00521 7 8C7.14062 8 7.27083 7.97396 7.39062 7.92188C7.51042 7.86979 7.61458 7.79948 7.70312 7.71094C7.79167 7.6224 7.86458 7.51562 7.92188 7.39062C7.97917 7.26562 8.00521 7.13542 8 7V6C8 5.85938 7.97396 5.72917 7.92188 5.60938C7.86979 5.48958 7.79948 5.38542 7.71094 5.29688C7.6224 5.20833 7.51562 5.13542 7.39062 5.07812C7.26562 5.02083 7.13542 4.99479 7 5C6.85938 5 6.72917 5.02604 6.60938 5.07812C6.48958 5.13021 6.38542 5.20052 6.29688 5.28906C6.20833 5.3776 6.13542 5.48438 6.07812 5.60938C6.02083 5.73438 5.99479 5.86458 6 6V7Z" fill="#3F92D1"/>
</svg>
