<svg width="20" height="20" viewBox="0 0 20 20" fill="none" xmlns="http://www.w3.org/2000/svg">
<path d="M16.0831 13.74L12.2621 17.3426C12.1555 17.4431 12.0117 17.5 11.8608 17.5H4.31818C4.00391 17.5 3.75 17.2606 3.75 16.9643V3.03572C3.75 2.7394 4.00391 2.5 4.31818 2.5H15.6818C15.9961 2.5 16.25 2.7394 16.25 3.03572V13.3599C16.25 13.5022 16.1896 13.6395 16.0831 13.74ZM14.9396 13.1138H11.598V16.2645L14.9396 13.1138ZM14.9716 3.70536H5.02841V16.2946H10.3906V12.6786C10.3906 12.4921 10.4692 12.3132 10.609 12.1814C10.7489 12.0495 10.9386 11.9754 11.1364 11.9754H14.9716V3.70536ZM10.0373 8.85993L8.93999 10.5742C8.90092 10.6345 8.83168 10.6713 8.7571 10.6713H8.07528C8.03445 10.6713 7.99538 10.6613 7.96165 10.6395C7.86222 10.5809 7.83203 10.457 7.89595 10.3616L9.35724 8.17857L7.87642 5.95536C7.8563 5.92487 7.84519 5.88986 7.84423 5.85396C7.84327 5.81806 7.8525 5.78257 7.87097 5.75116C7.88943 5.71975 7.91646 5.69356 7.94926 5.67531C7.98206 5.65705 8.01944 5.64739 8.05753 5.64732H8.6701C8.74467 5.64732 8.81214 5.68415 8.85121 5.74275L9.96449 7.44197L11.0707 5.74442C11.1097 5.68415 11.179 5.649 11.2518 5.649H11.9176C11.9585 5.649 11.9975 5.66072 12.033 5.6808C12.1325 5.74107 12.1609 5.86495 12.0969 5.9587L10.6055 8.14174L12.12 10.3599C12.1405 10.3903 12.152 10.4254 12.1533 10.4614C12.1546 10.4974 12.1456 10.533 12.1273 10.5647C12.109 10.5963 12.082 10.6227 12.0492 10.6412C12.0164 10.6596 11.9789 10.6695 11.9407 10.6696H11.3068C11.2322 10.6696 11.163 10.6328 11.1239 10.5725L10.0373 8.85993Z" fill="white"/>
</svg>
