<svg width="20" height="20" viewBox="0 0 20 20" fill="none" xmlns="http://www.w3.org/2000/svg">
<path d="M7.5625 17.5C7.34028 17.5 7.12833 17.4583 6.92667 17.375C6.72556 17.2917 6.54861 17.1736 6.39583 17.0208L2.97917 13.6042C2.82639 13.4514 2.70833 13.2744 2.625 13.0733C2.54167 12.8717 2.5 12.6597 2.5 12.4375V7.5625C2.5 7.34028 2.54167 7.12833 2.625 6.92667C2.70833 6.72556 2.82639 6.54861 2.97917 6.39583L6.39583 2.97917C6.54861 2.82639 6.72556 2.70833 6.92667 2.625C7.12833 2.54167 7.34028 2.5 7.5625 2.5H12.4375C12.6597 2.5 12.8717 2.54167 13.0733 2.625C13.2744 2.70833 13.4514 2.82639 13.6042 2.97917L17.0208 6.39583C17.1736 6.54861 17.2917 6.72556 17.375 6.92667C17.4583 7.12833 17.5 7.34028 17.5 7.5625V12.4375C17.5 12.6597 17.4583 12.8717 17.375 13.0733C17.2917 13.2744 17.1736 13.4514 17.0208 13.6042L13.6042 17.0208C13.4514 17.1736 13.2744 17.2917 13.0733 17.375C12.8717 17.4583 12.6597 17.5 12.4375 17.5H7.5625ZM10 14.1667C10.2361 14.1667 10.4342 14.0867 10.5942 13.9267C10.7536 13.7672 10.8333 13.5694 10.8333 13.3333C10.8333 13.0972 10.7536 12.8992 10.5942 12.7392C10.4342 12.5797 10.2361 12.5 10 12.5C9.76389 12.5 9.56611 12.5797 9.40667 12.7392C9.24667 12.8992 9.16667 13.0972 9.16667 13.3333C9.16667 13.5694 9.24667 13.7672 9.40667 13.9267C9.56611 14.0867 9.76389 14.1667 10 14.1667ZM10 10.8333C10.2361 10.8333 10.4342 10.7533 10.5942 10.5933C10.7536 10.4339 10.8333 10.2361 10.8333 10V6.66667C10.8333 6.43056 10.7536 6.2325 10.5942 6.0725C10.4342 5.91306 10.2361 5.83333 10 5.83333C9.76389 5.83333 9.56611 5.91306 9.40667 6.0725C9.24667 6.2325 9.16667 6.43056 9.16667 6.66667V10C9.16667 10.2361 9.24667 10.4339 9.40667 10.5933C9.56611 10.7533 9.76389 10.8333 10 10.8333Z" fill="white"/>
</svg>
