<svg width="16" height="16" viewBox="0 0 16 16" fill="none" xmlns="http://www.w3.org/2000/svg">
<g clip-path="url(#clip0_2571_2544)">
<path fill-rule="evenodd" clip-rule="evenodd" d="M11 15C12.0609 15 13.0783 14.5786 13.8284 13.8284C14.5786 13.0783 15 12.0609 15 11C15 9.93913 14.5786 8.92172 13.8284 8.17157C13.0783 7.42143 12.0609 7 11 7C9.93913 7 8.92172 7.42143 8.17157 8.17157C7.42143 8.92172 7 9.93913 7 11C7 12.0609 7.42143 13.0783 8.17157 13.8284C8.92172 14.5786 9.93913 15 11 15V15ZM16 11C16 12.3261 15.4732 13.5979 14.5355 14.5355C13.5979 15.4732 12.3261 16 11 16C9.67392 16 8.40215 15.4732 7.46447 14.5355C6.52678 13.5979 6 12.3261 6 11C6 9.67392 6.52678 8.40215 7.46447 7.46447C8.40215 6.52678 9.67392 6 11 6C12.3261 6 13.5979 6.52678 14.5355 7.46447C15.4732 8.40215 16 9.67392 16 11V11Z" fill="#000728"/>
<path d="M1 0C0.734784 0 0.48043 0.105357 0.292893 0.292893C0.105357 0.48043 0 0.734784 0 1L0 9C0 9.26522 0.105357 9.51957 0.292893 9.70711C0.48043 9.89464 0.734784 10 1 10H5.083C5.141 9.656 5.228 9.322 5.341 9H3C3 8.46957 2.78929 7.96086 2.41421 7.58579C2.03914 7.21071 1.53043 7 1 7V3C1.53043 3 2.03914 2.78929 2.41421 2.41421C2.78929 2.03914 3 1.53043 3 1H13C13 1.53043 13.2107 2.03914 13.5858 2.41421C13.9609 2.78929 14.4696 3 15 3V6.528C15.38 6.868 15.717 7.256 16 7.682V1C16 0.734784 15.8946 0.48043 15.7071 0.292893C15.5196 0.105357 15.2652 0 15 0L1 0Z" fill="#000728"/>
<path d="M9.998 5.08279L10 4.99979C9.9998 4.65538 9.91066 4.31686 9.74121 4.01702C9.57177 3.71717 9.32777 3.46616 9.03284 3.28831C8.73791 3.11045 8.40205 3.01176 8.05778 3.00181C7.71352 2.99186 7.37252 3.07098 7.06781 3.23151C6.7631 3.39204 6.50501 3.62853 6.31853 3.91809C6.13205 4.20764 6.02351 4.54045 6.00341 4.88427C5.98331 5.22809 6.05234 5.57128 6.20381 5.88059C6.35529 6.1899 6.58407 6.45485 6.868 6.64979C7.73176 5.82706 8.82177 5.28136 9.998 5.08279V5.08279Z" fill="#000728"/>
</g>
<path d="M11.4883 12.5322V8H12.124V13.25H11.543L11.4883 12.5322ZM9 11.4419V11.3701C9 11.0876 9.03418 10.8312 9.10254 10.6011C9.17318 10.3687 9.2723 10.1693 9.3999 10.0029C9.52979 9.83659 9.68359 9.70898 9.86133 9.62012C10.0413 9.52897 10.2419 9.4834 10.4629 9.4834C10.6953 9.4834 10.8981 9.52441 11.0713 9.60645C11.2467 9.6862 11.3949 9.80355 11.5156 9.9585C11.6387 10.1112 11.7355 10.2957 11.8062 10.5122C11.8768 10.7287 11.9258 10.9736 11.9531 11.2471V11.5615C11.9281 11.8327 11.8791 12.0765 11.8062 12.293C11.7355 12.5094 11.6387 12.694 11.5156 12.8467C11.3949 12.9993 11.2467 13.1167 11.0713 13.1987C10.8958 13.2785 10.6908 13.3184 10.4561 13.3184C10.2396 13.3184 10.0413 13.2716 9.86133 13.1782C9.68359 13.0848 9.52979 12.9538 9.3999 12.7852C9.2723 12.6165 9.17318 12.4183 9.10254 12.1904C9.03418 11.9603 9 11.7108 9 11.4419ZM9.63574 11.3701V11.4419C9.63574 11.6265 9.65397 11.7996 9.69043 11.9614C9.72917 12.1232 9.78841 12.2656 9.86816 12.3887C9.94792 12.5117 10.0493 12.6086 10.1724 12.6792C10.2954 12.7476 10.4424 12.7817 10.6133 12.7817C10.8229 12.7817 10.995 12.7373 11.1294 12.6484C11.2661 12.5596 11.3755 12.4422 11.4575 12.2964C11.5396 12.1506 11.6034 11.9922 11.6489 11.8213V10.9976C11.6216 10.8722 11.5817 10.7515 11.5293 10.6353C11.4792 10.5168 11.4131 10.4119 11.3311 10.3208C11.2513 10.2274 11.1522 10.1533 11.0337 10.0986C10.9175 10.0439 10.7796 10.0166 10.6201 10.0166C10.4469 10.0166 10.2977 10.0531 10.1724 10.126C10.0493 10.1966 9.94792 10.2946 9.86816 10.4199C9.78841 10.543 9.72917 10.6865 9.69043 10.8506C9.65397 11.0124 9.63574 11.1855 9.63574 11.3701ZM12.7666 8.51611V9.03564H10.5894V8.51611H12.7666Z" fill="#000728"/>
<defs>
<clipPath id="clip0_2571_2544">
<rect width="16" height="16" fill="white"/>
</clipPath>
</defs>
</svg>
