<svg width="17" height="15" viewBox="0 0 17 15" fill="none" xmlns="http://www.w3.org/2000/svg">
<g clip-path="url(#clip0_583_10886)">
<path d="M7.72718 1.58679C7.93531 1.48375 8.16945 1.42969 8.40752 1.42969C8.64559 1.42969 8.87973 1.48375 9.08786 1.58679L14.3533 4.1938C14.4625 4.24791 14.5535 4.32706 14.6168 4.42304C14.6801 4.51901 14.7135 4.62834 14.7135 4.73968V9.88313C14.7134 10.1059 14.6465 10.3246 14.5198 10.5165C14.393 10.7085 14.211 10.8668 13.9925 10.9749L9.08786 13.4045C8.87973 13.5076 8.64559 13.5616 8.40752 13.5616C8.16945 13.5616 7.93531 13.5076 7.72718 13.4045L2.82254 10.9749C2.60419 10.8668 2.42221 10.7086 2.29545 10.5168C2.16868 10.325 2.10175 10.1064 2.10156 9.88375V4.73968C2.10156 4.62834 2.13494 4.51901 2.19826 4.42304C2.26158 4.32706 2.35254 4.24791 2.4617 4.1938L7.72788 1.58679H7.72718Z" stroke="#0688EE" stroke-linecap="round" stroke-linejoin="round"/>
<path d="M2.10156 4.37207L8.40752 7.49499M8.40752 7.49499L14.7135 4.37207M8.40752 7.49499V13.4285" stroke="#0688EE" stroke-linejoin="round"/>
<path d="M5.25412 5.93346L11.5601 2.81055M4.20312 7.69979L6.30511 8.74409" stroke="#0688EE" stroke-linecap="round" stroke-linejoin="round"/>
</g>
<defs>
<clipPath id="clip0_583_10886">
<rect width="16.8159" height="14.99" fill="white"/>
</clipPath>
</defs>
</svg>
