<svg width="16" height="16" viewBox="0 0 16 16" fill="none" xmlns="http://www.w3.org/2000/svg">
<path d="M1 4.53271V3.81308C1 3.29595 1.12864 2.82555 1.38591 2.40187C1.64319 1.97819 2.01123 1.63863 2.49005 1.38318C2.96886 1.12773 3.53701 1 4.19449 1C4.86626 1 5.43798 1.12773 5.90965 1.38318C6.38846 1.63863 6.75651 1.97819 7.01378 2.40187C7.27106 2.82555 7.39969 3.29595 7.39969 3.81308V4.53271C7.39969 5.03738 7.27106 5.50156 7.01378 5.92523C6.76366 6.34891 6.39918 6.68847 5.92037 6.94393C5.4487 7.19938 4.88055 7.3271 4.21593 7.3271C3.5513 7.3271 2.97601 7.19938 2.49005 6.94393C2.01123 6.68847 1.64319 6.34891 1.38591 5.92523C1.12864 5.50156 1 5.03738 1 4.53271ZM2.49005 3.81308V4.53271C2.49005 4.81931 2.55079 5.09034 2.67228 5.34579C2.80092 5.60125 2.99387 5.80997 3.25115 5.97196C3.50842 6.12773 3.83002 6.20561 4.21593 6.20561C4.60184 6.20561 4.91986 6.12773 5.16998 5.97196C5.42011 5.80997 5.60592 5.60125 5.72741 5.34579C5.8489 5.09034 5.90965 4.81931 5.90965 4.53271V3.81308C5.90965 3.52025 5.84533 3.24611 5.71669 2.99065C5.5952 2.72897 5.40582 2.52025 5.14855 2.36449C4.89842 2.20249 4.5804 2.1215 4.19449 2.1215C3.81572 2.1215 3.4977 2.20249 3.24043 2.36449C2.9903 2.52025 2.80092 2.72897 2.67228 2.99065C2.55079 3.24611 2.49005 3.52025 2.49005 3.81308ZM8.60031 12.1963V11.4673C8.60031 10.9564 8.72894 10.4891 8.98622 10.0654C9.24349 9.64174 9.61154 9.30218 10.0904 9.04673C10.5692 8.79128 11.1373 8.66355 11.7948 8.66355C12.4666 8.66355 13.0383 8.79128 13.51 9.04673C13.9888 9.30218 14.3568 9.64174 14.6141 10.0654C14.8714 10.4891 15 10.9564 15 11.4673V12.1963C15 12.7072 14.8714 13.1745 14.6141 13.5981C14.364 14.0218 13.9995 14.3614 13.5207 14.6168C13.049 14.8723 12.4809 15 11.8162 15C11.1516 15 10.5799 14.8723 10.1011 14.6168C9.62226 14.3614 9.25064 14.0218 8.98622 13.5981C8.72894 13.1745 8.60031 12.7072 8.60031 12.1963ZM10.0904 11.4673V12.1963C10.0904 12.4829 10.1511 12.757 10.2726 13.0187C10.4012 13.2741 10.5942 13.4829 10.8515 13.6449C11.1087 13.8006 11.4303 13.8785 11.8162 13.8785C12.2021 13.8785 12.5202 13.8006 12.7703 13.6449C13.0276 13.4829 13.2169 13.2741 13.3384 13.0187C13.4599 12.7632 13.5207 12.4891 13.5207 12.1963V11.4673C13.5207 11.1745 13.4564 10.9003 13.3277 10.6449C13.2062 10.3894 13.0168 10.1838 12.7596 10.028C12.5094 9.86604 12.1879 9.78505 11.7948 9.78505C11.416 9.78505 11.098 9.86604 10.8407 10.028C10.5906 10.1838 10.4012 10.3894 10.2726 10.6449C10.1511 10.9003 10.0904 11.1745 10.0904 11.4673ZM12.2879 3.13084L4.66616 13.7664L3.5513 13.1495L11.173 2.51402L12.2879 3.13084Z" fill="#45B4CE"/>
</svg>
