<svg width="16" height="16" viewBox="0 0 16 16" fill="none" xmlns="http://www.w3.org/2000/svg">
<path d="M6.33301 6.99988H7.99968C8.17649 6.99988 8.34606 6.92965 8.47108 6.80462C8.59611 6.6796 8.66635 6.51003 8.66635 6.33322C8.66635 6.1564 8.59611 5.98684 8.47108 5.86181C8.34606 5.73679 8.17649 5.66655 7.99968 5.66655H7.33301V5.33322C7.33301 5.15641 7.26277 4.98684 7.13775 4.86181C7.01273 4.73679 6.84316 4.66655 6.66635 4.66655C6.48954 4.66655 6.31997 4.73679 6.19494 4.86181C6.06992 4.98684 5.99968 5.15641 5.99968 5.33322V5.69988C5.59463 5.78213 5.23459 6.01195 4.98945 6.34473C4.74431 6.6775 4.63157 7.08949 4.67311 7.50072C4.71465 7.91194 4.9075 8.29306 5.21424 8.57009C5.52097 8.84712 5.9197 9.0003 6.33301 8.99988H6.99968C7.08809 8.99988 7.17287 9.035 7.23538 9.09751C7.29789 9.16003 7.33301 9.24481 7.33301 9.33322C7.33301 9.42162 7.29789 9.50641 7.23538 9.56892C7.17287 9.63143 7.08809 9.66655 6.99968 9.66655H5.33301C5.1562 9.66655 4.98663 9.73679 4.86161 9.86181C4.73658 9.98684 4.66635 10.1564 4.66635 10.3332C4.66635 10.51 4.73658 10.6796 4.86161 10.8046C4.98663 10.9296 5.1562 10.9999 5.33301 10.9999H5.99968V11.3332C5.99968 11.51 6.06992 11.6796 6.19494 11.8046C6.31997 11.9296 6.48954 11.9999 6.66635 11.9999C6.84316 11.9999 7.01273 11.9296 7.13775 11.8046C7.26277 11.6796 7.33301 11.51 7.33301 11.3332V10.9666C7.73806 10.8843 8.09811 10.6545 8.34324 10.3217C8.58838 9.98893 8.70112 9.57694 8.65958 9.16572C8.61805 8.75449 8.42519 8.37337 8.11846 8.09634C7.81172 7.81931 7.413 7.66613 6.99968 7.66655H6.33301C6.24461 7.66655 6.15982 7.63143 6.09731 7.56892C6.0348 7.50641 5.99968 7.42162 5.99968 7.33322C5.99968 7.24481 6.0348 7.16003 6.09731 7.09751C6.15982 7.035 6.24461 6.99988 6.33301 6.99988ZM13.9997 7.99988H11.9997V1.99988C12.0001 1.88241 11.9696 1.7669 11.911 1.66505C11.8525 1.56319 11.7681 1.47862 11.6663 1.41988C11.565 1.36137 11.45 1.33057 11.333 1.33057C11.216 1.33057 11.101 1.36137 10.9997 1.41988L8.99968 2.56655L6.99968 1.41988C6.89833 1.36137 6.78337 1.33057 6.66635 1.33057C6.54932 1.33057 6.43436 1.36137 6.33301 1.41988L4.33301 2.56655L2.33301 1.41988C2.23167 1.36137 2.1167 1.33057 1.99968 1.33057C1.88266 1.33057 1.76769 1.36137 1.66635 1.41988C1.56461 1.47862 1.4802 1.56319 1.42167 1.66505C1.36313 1.7669 1.33255 1.88241 1.33301 1.99988V12.6665C1.33301 13.197 1.54373 13.7057 1.9188 14.0808C2.29387 14.4558 2.80258 14.6665 3.33301 14.6665H12.6663C13.1968 14.6665 13.7055 14.4558 14.0806 14.0808C14.4556 13.7057 14.6663 13.197 14.6663 12.6665V8.66655C14.6663 8.48974 14.5961 8.32017 14.4711 8.19515C14.3461 8.07012 14.1765 7.99988 13.9997 7.99988ZM3.33301 13.3332C3.1562 13.3332 2.98663 13.263 2.86161 13.138C2.73658 13.0129 2.66635 12.8434 2.66635 12.6665V3.15322L3.99968 3.91322C4.10257 3.96696 4.21693 3.99502 4.33301 3.99502C4.44909 3.99502 4.56345 3.96696 4.66635 3.91322L6.66635 2.76655L8.66635 3.91322C8.76924 3.96696 8.8836 3.99502 8.99968 3.99502C9.11576 3.99502 9.23012 3.96696 9.33301 3.91322L10.6663 3.15322V12.6665C10.6681 12.894 10.7087 13.1194 10.7863 13.3332H3.33301ZM13.333 12.6665C13.333 12.8434 13.2628 13.0129 13.1378 13.138C13.0127 13.263 12.8432 13.3332 12.6663 13.3332C12.4895 13.3332 12.32 13.263 12.1949 13.138C12.0699 13.0129 11.9997 12.8434 11.9997 12.6665V9.33322H13.333V12.6665Z" fill="#45B4CE"/>
</svg>
