<svg width="16" height="16" viewBox="0 0 16 16" fill="none" xmlns="http://www.w3.org/2000/svg">
<path d="M4.00033 13.3334C3.44477 13.3334 2.97255 13.139 2.58366 12.7501C2.19477 12.3612 2.00033 11.889 2.00033 11.3334C1.63366 11.3334 1.31988 11.203 1.05899 10.9421C0.797659 10.6807 0.666992 10.3667 0.666992 10.0001V4.00008C0.666992 3.63341 0.797659 3.31964 1.05899 3.05875C1.31988 2.79741 1.63366 2.66675 2.00033 2.66675H10.0003C10.367 2.66675 10.681 2.79741 10.9423 3.05875C11.2032 3.31964 11.3337 3.63341 11.3337 4.00008V5.33341H13.0003C13.1114 5.33341 13.2114 5.35564 13.3003 5.40008C13.3892 5.44453 13.467 5.51119 13.5337 5.60008L15.2003 7.81675C15.2448 7.8723 15.2781 7.93341 15.3003 8.00008C15.3225 8.06675 15.3337 8.13897 15.3337 8.21675V10.6667C15.3337 10.8556 15.2697 11.0139 15.1417 11.1414C15.0141 11.2694 14.8559 11.3334 14.667 11.3334H14.0003C14.0003 11.889 13.8059 12.3612 13.417 12.7501C13.0281 13.139 12.5559 13.3334 12.0003 13.3334C11.4448 13.3334 10.9725 13.139 10.5837 12.7501C10.1948 12.3612 10.0003 11.889 10.0003 11.3334H6.00033C6.00033 11.889 5.80588 12.3612 5.41699 12.7501C5.0281 13.139 4.55588 13.3334 4.00033 13.3334ZM4.00033 12.0001C4.18921 12.0001 4.34766 11.9361 4.47566 11.8081C4.60321 11.6805 4.66699 11.5223 4.66699 11.3334C4.66699 11.1445 4.60321 10.9863 4.47566 10.8587C4.34766 10.7307 4.18921 10.6667 4.00033 10.6667C3.81144 10.6667 3.65299 10.7307 3.52499 10.8587C3.39744 10.9863 3.33366 11.1445 3.33366 11.3334C3.33366 11.5223 3.39744 11.6805 3.52499 11.8081C3.65299 11.9361 3.81144 12.0001 4.00033 12.0001ZM2.00033 4.00008V10.0001H2.53366C2.72255 9.80008 2.93921 9.63897 3.18366 9.51675C3.4281 9.39453 3.70033 9.33342 4.00033 9.33342C4.30033 9.33342 4.57255 9.39453 4.81699 9.51675C5.06144 9.63897 5.2781 9.80008 5.46699 10.0001H10.0003V4.00008H2.00033ZM12.0003 12.0001C12.1892 12.0001 12.3474 11.9361 12.475 11.8081C12.603 11.6805 12.667 11.5223 12.667 11.3334C12.667 11.1445 12.603 10.9863 12.475 10.8587C12.3474 10.7307 12.1892 10.6667 12.0003 10.6667C11.8114 10.6667 11.6532 10.7307 11.5257 10.8587C11.3977 10.9863 11.3337 11.1445 11.3337 11.3334C11.3337 11.5223 11.3977 11.6805 11.5257 11.8081C11.6532 11.9361 11.8114 12.0001 12.0003 12.0001ZM11.3337 8.66675H14.167L12.667 6.66675H11.3337V8.66675Z" fill="#45B4CE"/>
</svg>
