<svg width="16" height="16" viewBox="0 0 16 16" fill="none" xmlns="http://www.w3.org/2000/svg">
<path d="M8.56602 1V3.24737H7.35165V1H8.56602ZM8.42029 13.0326V15H7.21402V13.0326H8.42029ZM10.0394 10.7042C10.0394 10.4095 9.96659 10.1442 9.82086 9.90842C9.67514 9.67263 9.43496 9.45649 9.10034 9.26C8.76571 9.06351 8.31775 8.88175 7.75644 8.71474C7.07639 8.52316 6.4881 8.28982 5.99156 8.01474C5.50042 7.73965 5.11992 7.39825 4.85006 6.99053C4.58559 6.58281 4.45336 6.08912 4.45336 5.50947C4.45336 4.90526 4.59639 4.38456 4.88244 3.94737C5.16849 3.51018 5.57328 3.17368 6.09681 2.93789C6.62033 2.70211 7.23561 2.58421 7.94264 2.58421C8.49316 2.58421 8.9843 2.66035 9.41607 2.81263C9.84785 2.96 10.2122 3.18105 10.509 3.47579C10.8112 3.77053 11.0406 4.13158 11.1971 4.55895C11.3591 4.98632 11.44 5.48 11.44 6.04H9.9504C9.9504 5.71088 9.90722 5.40877 9.82086 5.13368C9.73451 4.8586 9.60498 4.62035 9.43227 4.41895C9.25956 4.21263 9.04907 4.05544 8.8008 3.94737C8.55252 3.83439 8.26647 3.77789 7.94264 3.77789C7.48928 3.77789 7.11418 3.84912 6.81733 3.99158C6.52588 4.13403 6.30999 4.33544 6.16967 4.59579C6.02934 4.85123 5.95918 5.14842 5.95918 5.48737C5.95918 5.80175 6.02934 6.07684 6.16967 6.31263C6.30999 6.54842 6.54747 6.7621 6.8821 6.95368C7.22212 7.14035 7.68898 7.32456 8.28267 7.50632C8.9789 7.70772 9.56989 7.94596 10.0556 8.22105C10.5414 8.49123 10.9111 8.82526 11.1648 9.22316C11.4184 9.61614 11.5453 10.1049 11.5453 10.6895C11.5453 11.3232 11.3887 11.8586 11.0757 12.2958C10.7627 12.7281 10.3228 13.0572 9.7561 13.2832C9.18939 13.5091 8.52554 13.6221 7.76454 13.6221C7.30578 13.6221 6.85241 13.5656 6.40445 13.4526C5.95648 13.3396 5.55169 13.1554 5.19008 12.9C4.82847 12.6396 4.53972 12.2982 4.32383 11.8758C4.10794 11.4484 4 10.9253 4 10.3063H5.50581C5.50581 10.7239 5.57058 11.0702 5.70011 11.3453C5.83504 11.6154 6.01315 11.8316 6.23443 11.9937C6.45572 12.1509 6.69859 12.2639 6.96305 12.3326C7.23291 12.3965 7.50007 12.4284 7.76454 12.4284C8.25028 12.4284 8.66047 12.3596 8.99509 12.2221C9.33512 12.0796 9.59418 11.8782 9.77229 11.6179C9.9504 11.3575 10.0394 11.053 10.0394 10.7042Z" fill="#45B4CE"/>
</svg>
