<svg width="17" height="15" viewBox="0 0 17 15" fill="none" xmlns="http://www.w3.org/2000/svg">
<g clip-path="url(#clip0_562_3498)">
<path d="M7.72718 1.5863C7.93531 1.48327 8.16945 1.4292 8.40752 1.4292C8.64559 1.4292 8.87973 1.48327 9.08786 1.5863L14.3533 4.19331C14.4625 4.24742 14.5535 4.32657 14.6168 4.42255C14.6801 4.51853 14.7135 4.62785 14.7135 4.73919V9.88264C14.7134 10.1054 14.6465 10.3241 14.5198 10.516C14.393 10.708 14.211 10.8663 13.9925 10.9744L9.08786 13.404C8.87973 13.5071 8.64559 13.5611 8.40752 13.5611C8.16945 13.5611 7.93531 13.5071 7.72718 13.404L2.82254 10.9744C2.60419 10.8663 2.42221 10.7082 2.29545 10.5163C2.16868 10.3245 2.10175 10.1059 2.10156 9.88326V4.73919C2.10156 4.62785 2.13494 4.51853 2.19826 4.42255C2.26158 4.32657 2.35254 4.24742 2.4617 4.19331L7.72788 1.5863H7.72718Z" stroke="#767676" stroke-linecap="round" stroke-linejoin="round"/>
<path d="M2.10156 4.37207L8.40752 7.49499M8.40752 7.49499L14.7135 4.37207M8.40752 7.49499V13.4285" stroke="#767676" stroke-linejoin="round"/>
<path d="M5.25412 5.93346L11.5601 2.81055M4.20312 7.69979L6.30511 8.74409" stroke="#767676" stroke-linecap="round" stroke-linejoin="round"/>
</g>
<defs>
<clipPath id="clip0_562_3498">
<rect width="16.8159" height="14.99" fill="white"/>
</clipPath>
</defs>
</svg>
