<svg width="12" height="12" viewBox="0 0 12 12" fill="none" xmlns="http://www.w3.org/2000/svg">
<path d="M9.75 0.75H3.46875C3.41719 0.75 3.375 0.792187 3.375 0.84375V1.5C3.375 1.55156 3.41719 1.59375 3.46875 1.59375H9.28125V9.65625C9.28125 9.70781 9.32344 9.75 9.375 9.75H10.0312C10.0828 9.75 10.125 9.70781 10.125 9.65625V1.125C10.125 0.917578 9.95742 0.75 9.75 0.75ZM8.25 2.25H2.25C2.04258 2.25 1.875 2.41758 1.875 2.625V8.84414C1.875 8.94375 1.91484 9.03867 1.98516 9.10898L4.01602 11.1398C4.0418 11.1656 4.07109 11.1867 4.10273 11.2043V11.2266H4.15195C4.19297 11.2418 4.23633 11.25 4.28086 11.25H8.25C8.45742 11.25 8.625 11.0824 8.625 10.875V2.625C8.625 2.41758 8.45742 2.25 8.25 2.25ZM4.10156 10.0336L3.09258 9.02344H4.10156V10.0336ZM7.78125 10.4062H4.85156V8.74219C4.85156 8.4832 4.6418 8.27344 4.38281 8.27344H2.71875V3.09375H7.78125V10.4062Z" fill="#767676"/>
</svg>
