<svg width="14" height="14" viewBox="0 0 14 14" fill="none" xmlns="http://www.w3.org/2000/svg">
<path fill-rule="evenodd" clip-rule="evenodd" d="M10.2077 11.6665C10.5945 11.6665 10.9654 11.5129 11.2389 11.2394C11.5124 10.9659 11.666 10.5949 11.666 10.2082C11.666 9.8214 11.5124 9.45046 11.2389 9.17697C10.9654 8.90348 10.5945 8.74984 10.2077 8.74984C9.82091 8.74984 9.44998 8.90348 9.17648 9.17697C8.90299 9.45046 8.74935 9.8214 8.74935 10.2082C8.74935 10.5949 8.90299 10.9659 9.17648 11.2394C9.44998 11.5129 9.82091 11.6665 10.2077 11.6665ZM10.2077 12.2498C10.7492 12.2498 11.2685 12.0347 11.6514 11.6518C12.0342 11.269 12.2493 10.7497 12.2493 10.2082C12.2493 9.66669 12.0342 9.14738 11.6514 8.76449C11.2685 8.38161 10.7492 8.1665 10.2077 8.1665C9.6662 8.1665 9.14689 8.38161 8.76401 8.76449C8.38112 9.14738 8.16602 9.66669 8.16602 10.2082C8.16602 10.7497 8.38112 11.269 8.76401 11.6518C9.14689 12.0347 9.6662 12.2498 10.2077 12.2498Z" fill="#767676"/>
<path fill-rule="evenodd" clip-rule="evenodd" d="M10.2077 9.1875C10.285 9.1875 10.3592 9.21823 10.4139 9.27293C10.4686 9.32763 10.4993 9.40181 10.4993 9.47917V10.0876L10.7056 10.2938C10.7587 10.3488 10.7881 10.4225 10.7874 10.499C10.7868 10.5754 10.7561 10.6486 10.702 10.7027C10.6479 10.7567 10.5748 10.7874 10.4983 10.7881C10.4218 10.7887 10.3481 10.7593 10.2931 10.7062L9.91602 10.3291V9.47917C9.91602 9.40181 9.94674 9.32763 10.0014 9.27293C10.0561 9.21823 10.1303 9.1875 10.2077 9.1875ZM4.08268 6.70833H3.49935V7.29167H4.08268V6.70833ZM3.49935 6.125C3.34464 6.125 3.19627 6.18646 3.08687 6.29585C2.97747 6.40525 2.91602 6.55362 2.91602 6.70833V7.29167C2.91602 7.44638 2.97747 7.59475 3.08687 7.70415C3.19627 7.81354 3.34464 7.875 3.49935 7.875H4.08268C4.23739 7.875 4.38576 7.81354 4.49516 7.70415C4.60456 7.59475 4.66602 7.44638 4.66602 7.29167V6.70833C4.66602 6.55362 4.60456 6.40525 4.49516 6.29585C4.38576 6.18646 4.23739 6.125 4.08268 6.125H3.49935ZM6.41602 6.70833H5.83268V7.29167H6.41602V6.70833ZM5.83268 6.125C5.67797 6.125 5.5296 6.18646 5.4202 6.29585C5.31081 6.40525 5.24935 6.55362 5.24935 6.70833V7.29167C5.24935 7.44638 5.31081 7.59475 5.4202 7.70415C5.5296 7.81354 5.67797 7.875 5.83268 7.875H6.41602C6.57073 7.875 6.7191 7.81354 6.82849 7.70415C6.93789 7.59475 6.99935 7.44638 6.99935 7.29167V6.70833C6.99935 6.55362 6.93789 6.40525 6.82849 6.29585C6.7191 6.18646 6.57073 6.125 6.41602 6.125H5.83268ZM8.74935 6.70833H8.16602V7.29167H8.74935V6.70833ZM8.16602 6.125C8.01131 6.125 7.86293 6.18646 7.75354 6.29585C7.64414 6.40525 7.58268 6.55362 7.58268 6.70833V7.29167C7.58268 7.44638 7.64414 7.59475 7.75354 7.70415C7.86293 7.81354 8.01131 7.875 8.16602 7.875H8.74935C8.90406 7.875 9.05243 7.81354 9.16183 7.70415C9.27122 7.59475 9.33268 7.44638 9.33268 7.29167V6.70833C9.33268 6.55362 9.27122 6.40525 9.16183 6.29585C9.05243 6.18646 8.90406 6.125 8.74935 6.125H8.16602ZM4.08268 9.04167H3.49935V9.625H4.08268V9.04167ZM3.49935 8.45833C3.34464 8.45833 3.19627 8.51979 3.08687 8.62919C2.97747 8.73858 2.91602 8.88696 2.91602 9.04167V9.625C2.91602 9.77971 2.97747 9.92808 3.08687 10.0375C3.19627 10.1469 3.34464 10.2083 3.49935 10.2083H4.08268C4.23739 10.2083 4.38576 10.1469 4.49516 10.0375C4.60456 9.92808 4.66602 9.77971 4.66602 9.625V9.04167C4.66602 8.88696 4.60456 8.73858 4.49516 8.62919C4.38576 8.51979 4.23739 8.45833 4.08268 8.45833H3.49935ZM6.41602 9.04167H5.83268V9.625H6.41602V9.04167ZM5.83268 8.45833C5.67797 8.45833 5.5296 8.51979 5.4202 8.62919C5.31081 8.73858 5.24935 8.88696 5.24935 9.04167V9.625C5.24935 9.77971 5.31081 9.92808 5.4202 10.0375C5.5296 10.1469 5.67797 10.2083 5.83268 10.2083H6.41602C6.57073 10.2083 6.7191 10.1469 6.82849 10.0375C6.93789 9.92808 6.99935 9.77971 6.99935 9.625V9.04167C6.99935 8.88696 6.93789 8.73858 6.82849 8.62919C6.7191 8.51979 6.57073 8.45833 6.41602 8.45833H5.83268Z" fill="#767676"/>
<path fill-rule="evenodd" clip-rule="evenodd" d="M2.33333 3.5C2.33333 3.42265 2.36406 3.34846 2.41876 3.29376C2.47346 3.23906 2.54765 3.20833 2.625 3.20833H4.08333V2.625H2.625C2.39294 2.625 2.17038 2.71719 2.00628 2.88128C1.84219 3.04538 1.75 3.26794 1.75 3.5V10.5C1.75 10.7321 1.84219 10.9546 2.00628 11.1187C2.17038 11.2828 2.39294 11.375 2.625 11.375H8.53271C8.40833 11.1968 8.3133 10.9999 8.25125 10.7917H2.625C2.54765 10.7917 2.47346 10.7609 2.41876 10.7062C2.36406 10.6515 2.33333 10.5774 2.33333 10.5V3.5ZM9.91667 8.18708C10.1101 8.15941 10.3065 8.15941 10.5 8.18708V3.5C10.5 3.26794 10.4078 3.04538 10.2437 2.88128C10.0796 2.71719 9.85706 2.625 9.625 2.625H8.75V3.20833H9.625C9.70235 3.20833 9.77654 3.23906 9.83124 3.29376C9.88594 3.34846 9.91667 3.42265 9.91667 3.5V8.18708ZM4.66667 3.20833H7.74754V2.625H4.66667V3.20833Z" fill="#767676"/>
<path fill-rule="evenodd" clip-rule="evenodd" d="M8.16602 2.625H4.66602V3.5C4.66602 3.57735 4.63529 3.65154 4.58059 3.70624C4.52589 3.76094 4.4517 3.79167 4.37435 3.79167C4.29699 3.79167 4.22281 3.76094 4.16811 3.70624C4.11341 3.65154 4.08268 3.57735 4.08268 3.5V2.625H2.62435C2.46964 2.625 2.32127 2.68646 2.21187 2.79585C2.10247 2.90525 2.04102 3.05362 2.04102 3.20833V4.66667C2.04102 4.82138 2.10247 4.96975 2.21187 5.07915C2.32127 5.18854 2.46964 5.25 2.62435 5.25H9.62435C9.77906 5.25 9.92743 5.18854 10.0368 5.07915C10.1462 4.96975 10.2077 4.82138 10.2077 4.66667V3.20833C10.2077 3.05362 10.1462 2.90525 10.0368 2.79585C9.92743 2.68646 9.77906 2.625 9.62435 2.625H8.74935V3.5C8.74935 3.57735 8.71862 3.65154 8.66392 3.70624C8.60922 3.76094 8.53504 3.79167 8.45768 3.79167C8.38033 3.79167 8.30614 3.76094 8.25144 3.70624C8.19674 3.65154 8.16602 3.57735 8.16602 3.5V2.625Z" fill="#767676"/>
<path fill-rule="evenodd" clip-rule="evenodd" d="M10.5007 5.24984H2.33398V4.6665H10.5007V5.24984Z" fill="#767676"/>
<path d="M3.5 2.04167C3.5 1.96431 3.53073 1.89013 3.58543 1.83543C3.64013 1.78073 3.71431 1.75 3.79167 1.75C3.86902 1.75 3.94321 1.78073 3.99791 1.83543C4.0526 1.89013 4.08333 1.96431 4.08333 2.04167V3.20833C4.08333 3.28569 4.0526 3.35987 3.99791 3.41457C3.94321 3.46927 3.86902 3.5 3.79167 3.5C3.71431 3.5 3.64013 3.46927 3.58543 3.41457C3.53073 3.35987 3.5 3.28569 3.5 3.20833V2.04167ZM7.58333 2.04167C7.58333 1.96431 7.61406 1.89013 7.66876 1.83543C7.72346 1.78073 7.79765 1.75 7.875 1.75C7.95235 1.75 8.02654 1.78073 8.08124 1.83543C8.13594 1.89013 8.16667 1.96431 8.16667 2.04167V3.20833C8.16667 3.28569 8.13594 3.35987 8.08124 3.41457C8.02654 3.46927 7.95235 3.5 7.875 3.5C7.79765 3.5 7.72346 3.46927 7.66876 3.41457C7.61406 3.35987 7.58333 3.28569 7.58333 3.20833V2.04167Z" fill="#767676"/>
</svg>
