<svg width="16" height="15" viewBox="0 0 16 15" fill="none" xmlns="http://www.w3.org/2000/svg">
<path d="M4.00065 11.8633C4.00065 12.5501 4.60065 13.1121 5.33398 13.1121H10.6673C11.4007 13.1121 12.0007 12.5501 12.0007 11.8633V5.61939C12.0007 4.93256 11.4007 4.37061 10.6673 4.37061H5.33398C4.60065 4.37061 4.00065 4.93256 4.00065 5.61939V11.8633ZM12.0007 2.49744H10.334L9.86065 2.05412C9.74065 1.94173 9.56732 1.87305 9.39398 1.87305H6.60732C6.43398 1.87305 6.26065 1.94173 6.14065 2.05412L5.66732 2.49744H4.00065C3.63398 2.49744 3.33398 2.77841 3.33398 3.12183C3.33398 3.46524 3.63398 3.74622 4.00065 3.74622H12.0007C12.3673 3.74622 12.6673 3.46524 12.6673 3.12183C12.6673 2.77841 12.3673 2.49744 12.0007 2.49744Z" fill="#767676"/>
</svg>
