<svg width="12" height="12" viewBox="0 0 12 12" fill="none" xmlns="http://www.w3.org/2000/svg">
<path d="M6.00007 4V1H3.00007C2.73486 1 2.4805 1.10536 2.29297 1.29289C2.10543 1.48043 2.00007 1.73478 2.00007 2V5.5175C2.41665 5.57763 2.7976 5.78588 3.0731 6.10408C3.34859 6.42228 3.50018 6.82911 3.50007 7.25V7.2625L4.50657 6.2565C4.58698 6.1717 4.68357 6.10386 4.79062 6.057C4.89768 6.01014 5.01304 5.98519 5.12989 5.98364C5.24674 5.98209 5.36272 6.00396 5.47098 6.04796C5.57925 6.09196 5.6776 6.15721 5.76023 6.23984C5.84287 6.32248 5.90811 6.42083 5.95212 6.52909C5.99612 6.63735 6.01799 6.75333 6.01644 6.87019C6.01488 6.98704 5.98994 7.1024 5.94307 7.20945C5.89621 7.31651 5.82838 7.41309 5.74357 7.4935L4.73757 8.5H4.75007C5.04533 8.49994 5.3358 8.57458 5.59445 8.71698C5.8531 8.85938 6.07151 9.06491 6.22936 9.31443C6.38721 9.56395 6.47935 9.84936 6.49723 10.1441C6.5151 10.4388 6.45811 10.7332 6.33157 11H9.00007C9.26529 11 9.51964 10.8946 9.70718 10.7071C9.89472 10.5196 10.0001 10.2652 10.0001 10V5H7.00007C6.73486 5 6.4805 4.89464 6.29297 4.70711C6.10543 4.51957 6.00007 4.26522 6.00007 4ZM2.56357 8.199C2.33721 8.39353 2.04854 8.50034 1.75007 8.5C1.45676 8.50002 1.17278 8.39689 0.947833 8.20866C0.722884 8.02043 0.57129 7.75909 0.519581 7.47037C0.467871 7.18165 0.519339 6.88394 0.664977 6.62934C0.810615 6.37474 1.04115 6.17946 1.31623 6.07767C1.59132 5.97589 1.89344 5.97409 2.16972 6.07257C2.44601 6.17106 2.67886 6.36357 2.82753 6.61641C2.9762 6.86926 3.03122 7.16633 2.98297 7.45564C2.93472 7.74496 2.78626 8.0081 2.56357 8.199ZM2.00007 6.817C1.94319 6.78365 1.88027 6.76188 1.81494 6.75295C1.7496 6.74402 1.68315 6.7481 1.6194 6.76495C1.55565 6.78181 1.49587 6.8111 1.44348 6.85116C1.3911 6.89121 1.34716 6.94123 1.31419 6.99834C1.28122 7.05544 1.25987 7.1185 1.25137 7.18389C1.24287 7.24928 1.24739 7.31571 1.26467 7.37935C1.28195 7.44298 1.31164 7.50257 1.35204 7.55469C1.39244 7.6068 1.44275 7.65041 1.50007 7.683C1.61485 7.74826 1.75079 7.76547 1.87821 7.73087C2.00563 7.69628 2.11419 7.61269 2.18021 7.49835C2.24623 7.384 2.26434 7.24819 2.23059 7.12054C2.19684 6.99289 2.11398 6.88378 2.00007 6.817ZM5.39007 7.14C5.42692 7.10567 5.45647 7.06427 5.47696 7.01827C5.49746 6.97227 5.50848 6.92261 5.50937 6.87226C5.51026 6.82191 5.501 6.7719 5.48214 6.7252C5.46328 6.67851 5.4352 6.63609 5.39959 6.60048C5.36398 6.56487 5.32157 6.5368 5.27487 6.51794C5.22818 6.49908 5.17816 6.48982 5.12781 6.4907C5.07746 6.49159 5.0278 6.50261 4.98181 6.52311C4.93581 6.54361 4.89441 6.57316 4.86007 6.61L1.11007 10.36C1.07323 10.3943 1.04368 10.4357 1.02318 10.4817C1.00269 10.5277 0.991667 10.5774 0.990778 10.6277C0.98989 10.6781 0.999152 10.7281 1.01801 10.7748C1.03687 10.8215 1.06495 10.8639 1.10055 10.8995C1.13616 10.9351 1.17858 10.9632 1.22528 10.9821C1.27197 11.0009 1.32198 11.0102 1.37234 11.0093C1.42269 11.0084 1.47234 10.9974 1.51834 10.9769C1.56434 10.9564 1.60574 10.9268 1.64007 10.89L5.39007 7.14ZM3.50007 10.25C3.49981 10.4142 3.53196 10.5769 3.59469 10.7287C3.65741 10.8804 3.74948 11.0183 3.8656 11.1345C3.98173 11.2506 4.11963 11.3427 4.27141 11.4054C4.42318 11.4681 4.58585 11.5003 4.75007 11.5C4.9143 11.5003 5.07696 11.4681 5.22874 11.4054C5.38052 11.3427 5.51842 11.2506 5.63455 11.1345C5.75067 11.0183 5.84274 10.8804 5.90546 10.7287C5.96819 10.5769 6.00034 10.4142 6.00007 10.25C6.00007 9.91848 5.86838 9.60054 5.63396 9.36612C5.39954 9.1317 5.08159 9 4.75007 9C4.41855 9 4.10061 9.1317 3.86619 9.36612C3.63177 9.60054 3.50007 9.91848 3.50007 10.25ZM5.25007 10.25C5.25007 10.3826 5.1974 10.5098 5.10363 10.6036C5.00986 10.6973 4.88268 10.75 4.75007 10.75C4.61747 10.75 4.49029 10.6973 4.39652 10.6036C4.30275 10.5098 4.25007 10.3826 4.25007 10.25C4.25007 10.1174 4.30275 9.99021 4.39652 9.89645C4.49029 9.80268 4.61747 9.75 4.75007 9.75C4.88268 9.75 5.00986 9.80268 5.10363 9.89645C5.1974 9.99021 5.25007 10.1174 5.25007 10.25ZM6.75007 4V1.25L9.75007 4.25H7.00007C6.93377 4.25 6.87018 4.22366 6.8233 4.17678C6.77641 4.12989 6.75007 4.0663 6.75007 4Z" fill="#0688EE"/>
</svg>
