<svg width="12" height="12" viewBox="0 0 12 12" fill="none" xmlns="http://www.w3.org/2000/svg">
<path d="M6 1.5C6 1.23478 6.10536 0.98043 6.29289 0.792893C6.48043 0.605357 6.73478 0.5 7 0.5H10.5C10.7652 0.5 11.0196 0.605357 11.2071 0.792893C11.3946 0.98043 11.5 1.23478 11.5 1.5V4.5C11.5 4.76522 11.3946 5.01957 11.2071 5.20711C11.0196 5.39464 10.7652 5.5 10.5 5.5H7C6.73478 5.5 6.48043 5.39464 6.29289 5.20711C6.10536 5.01957 6 4.76522 6 4.5V1.5ZM7.25 2C7.1837 2 7.12011 2.02634 7.07322 2.07322C7.02634 2.12011 7 2.1837 7 2.25C7 2.3163 7.02634 2.37989 7.07322 2.42678C7.12011 2.47366 7.1837 2.5 7.25 2.5H10.25C10.3163 2.5 10.3799 2.47366 10.4268 2.42678C10.4737 2.37989 10.5 2.3163 10.5 2.25C10.5 2.1837 10.4737 2.12011 10.4268 2.07322C10.3799 2.02634 10.3163 2 10.25 2H7.25ZM7.25 3.5C7.1837 3.5 7.12011 3.52634 7.07322 3.57322C7.02634 3.62011 7 3.6837 7 3.75C7 3.8163 7.02634 3.87989 7.07322 3.92678C7.12011 3.97366 7.1837 4 7.25 4H10.25C10.3163 4 10.3799 3.97366 10.4268 3.92678C10.4737 3.87989 10.5 3.8163 10.5 3.75C10.5 3.6837 10.4737 3.62011 10.4268 3.57322C10.3799 3.52634 10.3163 3.5 10.25 3.5H7.25Z" fill="#0688EE"/>
<path d="M2.625 1.5H5.5V2.25H2.625C2.39294 2.25 2.17038 2.34219 2.00628 2.50628C1.84219 2.67038 1.75 2.89294 1.75 3.125V7.375C1.75 7.858 2.142 8.25 2.625 8.25H3.7495V10.125L6.257 8.25H9.375C9.60706 8.25 9.82962 8.15781 9.99372 7.99372C10.1578 7.82962 10.25 7.60706 10.25 7.375V6H10.5C10.675 6 10.8435 5.97 11 5.915V7.375C11 7.5884 10.958 7.79971 10.8763 7.99686C10.7946 8.19401 10.6749 8.37315 10.524 8.52405C10.3732 8.67494 10.194 8.79464 9.99686 8.8763C9.79971 8.95797 9.5884 9 9.375 9H6.506L4 10.875C3.90714 10.9445 3.79678 10.9868 3.68126 10.9971C3.56573 11.0075 3.44961 10.9855 3.34588 10.9336C3.24215 10.8817 3.15491 10.802 3.09391 10.7033C3.03291 10.6047 3.00057 10.491 3.0005 10.375V9H2.6255C2.41206 9.00007 2.2007 8.95808 2.00349 8.87645C1.80627 8.79481 1.62708 8.67513 1.47613 8.52423C1.32518 8.37332 1.20544 8.19416 1.12374 7.99698C1.04205 7.79979 1 7.58844 1 7.375V3.125C1 2.69402 1.1712 2.2807 1.47595 1.97595C1.7807 1.6712 2.19402 1.5 2.625 1.5Z" fill="#0688EE"/>
</svg>
