<svg width="15" height="15" viewBox="0 0 15 15" fill="none" xmlns="http://www.w3.org/2000/svg">
<path d="M3.2799 3.12305C2.74153 3.12305 2.22522 3.33691 1.84454 3.71759C1.46386 4.09827 1.25 4.61458 1.25 5.15294V5.93367H13.7417V5.15294C13.7417 4.88637 13.6892 4.62241 13.5872 4.37614C13.4851 4.12986 13.3356 3.90608 13.1471 3.71759C12.9586 3.5291 12.7349 3.37958 12.4886 3.27756C12.2423 3.17555 11.9783 3.12305 11.7118 3.12305H3.2799ZM13.7417 6.87055H1.25V9.83732C1.25 10.3757 1.46386 10.892 1.84454 11.2727C2.22522 11.6533 2.74153 11.8672 3.2799 11.8672H11.7118C11.9783 11.8672 12.2423 11.8147 12.4886 11.7127C12.7349 11.6107 12.9586 11.4612 13.1471 11.2727C13.3356 11.0842 13.4851 10.8604 13.5872 10.6141C13.6892 10.3678 13.7417 10.1039 13.7417 9.83732V6.87055ZM9.83802 9.05659H11.3995C11.5237 9.05659 11.6429 9.10594 11.7307 9.19379C11.8186 9.28164 11.8679 9.40079 11.8679 9.52503C11.8679 9.64926 11.8186 9.76841 11.7307 9.85626C11.6429 9.94411 11.5237 9.99346 11.3995 9.99346H9.83802C9.71378 9.99346 9.59464 9.94411 9.50679 9.85626C9.41894 9.76841 9.36958 9.64926 9.36958 9.52503C9.36958 9.40079 9.41894 9.28164 9.50679 9.19379C9.59464 9.10594 9.71378 9.05659 9.83802 9.05659Z" fill="#767676"/>
</svg>
