<svg width="12" height="12" viewBox="0 0 12 12" fill="none" xmlns="http://www.w3.org/2000/svg">
<path d="M10.325 8.65645L9.32724 7.99123L8.44028 7.40003C8.26911 7.28614 8.03906 7.32348 7.9127 7.48569L7.36386 8.19125C7.24597 8.34435 7.03389 8.38835 6.86482 8.29474C6.49242 8.08759 6.05204 7.89254 5.08037 6.91962C4.10869 5.9467 3.9124 5.50757 3.70525 5.13517C3.61164 4.9661 3.65564 4.75402 3.80874 4.63615L4.5143 4.08731C4.6765 3.96096 4.71385 3.73092 4.59996 3.55973L4.02692 2.70008L3.34355 1.67501C3.22723 1.50053 2.9944 1.44815 2.81457 1.55599L2.02645 2.0288C1.81346 2.15429 1.65689 2.35692 1.58918 2.5947C1.37366 3.38049 1.33021 5.1139 4.10822 7.89191C6.88623 10.6699 8.61949 10.6263 9.40527 10.4108C9.64305 10.3431 9.84569 10.1865 9.97118 9.97352L10.444 9.18542C10.5518 9.00558 10.4995 8.77276 10.325 8.65645Z" fill="#3F92D1"/>
<path d="M6.55198 3.24119C7.84637 3.24263 8.89535 4.29158 8.89678 5.58599C8.89678 5.66216 8.95853 5.72392 9.03472 5.72392C9.11089 5.72392 9.17266 5.66218 9.17266 5.58599C9.17106 4.1393 7.99868 2.96693 6.552 2.96533C6.47583 2.96533 6.41406 3.02708 6.41406 3.10327C6.41405 3.17942 6.4758 3.24119 6.55198 3.24119Z" fill="#3F92D1"/>
<path d="M6.552 4.06884C7.38954 4.06982 8.06823 4.74854 8.06922 5.58606C8.06922 5.66223 8.13096 5.72399 8.20715 5.72399C8.28332 5.72399 8.34509 5.66224 8.34509 5.58606C8.34395 4.59624 7.54183 3.79411 6.552 3.79297C6.47583 3.79297 6.41406 3.85472 6.41406 3.9309C6.41406 4.00709 6.47581 4.06884 6.552 4.06884Z" fill="#3F92D1"/>
<path d="M6.55198 4.89646C6.93268 4.89691 7.24118 5.20541 7.24163 5.58611C7.24163 5.66228 7.30338 5.72405 7.37957 5.72405C7.45574 5.72405 7.5175 5.6623 7.5175 5.58611C7.51689 5.05313 7.08498 4.62121 6.552 4.62061C6.47583 4.62061 6.41406 4.68235 6.41406 4.75854C6.41405 4.83471 6.4758 4.89646 6.55198 4.89646Z" fill="#3F92D1"/>
</svg>
