<svg width="21" height="20" viewBox="0 0 21 20" fill="none" xmlns="http://www.w3.org/2000/svg">
<path d="M16.7356 1.66667H13.2686C12.9202 0.7 12.0079 0 10.9296 0C9.85139 0 8.93902 0.7 8.59067 1.66667H5.12369C4.21132 1.66667 3.46484 2.41667 3.46484 3.33333V16.6667C3.46484 17.5833 4.21132 18.3333 5.12369 18.3333H16.7356C17.6479 18.3333 18.3944 17.5833 18.3944 16.6667V3.33333C18.3944 2.41667 17.6479 1.66667 16.7356 1.66667ZM10.9296 1.66667C11.3858 1.66667 11.7591 2.04167 11.7591 2.5C11.7591 2.95833 11.3858 3.33333 10.9296 3.33333C10.4735 3.33333 10.1002 2.95833 10.1002 2.5C10.1002 2.04167 10.4735 1.66667 10.9296 1.66667ZM15.9062 16.6667H5.95311C5.49693 16.6667 5.12369 16.2917 5.12369 15.8333V4.16667C5.12369 3.70833 5.49693 3.33333 5.95311 3.33333H6.78253V4.16667C6.78253 5.08333 7.52901 5.83333 8.44137 5.83333H13.4179C14.3303 5.83333 15.0767 5.08333 15.0767 4.16667V3.33333H15.9062C16.3623 3.33333 16.7356 3.70833 16.7356 4.16667V15.8333C16.7356 16.2917 16.3623 16.6667 15.9062 16.6667Z" fill="white"/>
<path d="M12.2145 10.3635C12.2145 9.91188 11.8467 9.54233 11.3971 9.54233C10.9476 9.54233 10.5798 9.91188 10.5798 10.3635C10.5798 10.8152 10.9476 11.1848 11.3971 11.1848C11.8467 11.1848 12.2145 10.8152 12.2145 10.3635ZM11.5034 6.66806C9.42318 6.61057 7.71898 8.28997 7.71898 10.3635H6.98744C6.80353 10.3635 6.71362 10.5853 6.8444 10.7126L7.98462 11.8582C8.06636 11.9403 8.19305 11.9403 8.27479 11.8582L9.41501 10.7126C9.5417 10.5853 9.45179 10.3635 9.26788 10.3635H8.53634C8.53634 8.76217 9.83595 7.46875 11.438 7.48928C12.9583 7.50981 14.2375 8.79502 14.2579 10.3225C14.2783 11.928 12.991 13.2378 11.3971 13.2378C10.8863 13.2378 10.4081 13.0982 9.99125 12.8642C9.83186 12.7738 9.6357 12.8067 9.50901 12.9381C9.32101 13.1269 9.35779 13.4513 9.59074 13.5827C10.1261 13.8825 10.7391 14.059 11.3971 14.059C13.461 14.059 15.1325 12.3468 15.0753 10.2568C15.0221 8.33103 13.4201 6.72144 11.5034 6.66806Z" fill="white"/>
</svg>
