<svg width="21" height="20" viewBox="0 0 21 20" fill="none" xmlns="http://www.w3.org/2000/svg">
<path d="M17.565 1.66663H4.29422C3.38185 1.66663 2.63538 2.41663 2.63538 3.33329V18.3333L5.95306 15H17.565C18.4773 15 19.2238 14.25 19.2238 13.3333V3.33329C19.2238 2.41663 18.4773 1.66663 17.565 1.66663ZM11.759 11.6666H10.1002V9.99996H11.759V11.6666ZM10.9296 8.33329C10.4734 8.33329 10.1002 7.95829 10.1002 7.49996V5.83329C10.1002 5.37496 10.4734 4.99996 10.9296 4.99996C11.3858 4.99996 11.759 5.37496 11.759 5.83329V7.49996C11.759 7.95829 11.3858 8.33329 10.9296 8.33329Z" fill="white"/>
</svg>
