<svg width="20" height="20" viewBox="0 0 20 20" fill="none" xmlns="http://www.w3.org/2000/svg">
<path fill-rule="evenodd" clip-rule="evenodd" d="M13.8917 10.9417C15.0334 11.7167 15.8334 12.7667 15.8334 14.1667V16.6666H18.3334C18.7917 16.6666 19.1667 16.2916 19.1667 15.8333V14.1667C19.1667 12.35 16.1917 11.275 13.8917 10.9417Z" fill="white"/>
<path d="M7.50008 10C9.34103 10 10.8334 8.50766 10.8334 6.66671C10.8334 4.82576 9.34103 3.33337 7.50008 3.33337C5.65913 3.33337 4.16675 4.82576 4.16675 6.66671C4.16675 8.50766 5.65913 10 7.50008 10Z" fill="white"/>
<path fill-rule="evenodd" clip-rule="evenodd" d="M12.5001 10C14.3417 10 15.8334 8.50837 15.8334 6.66671C15.8334 4.82504 14.3417 3.33337 12.5001 3.33337C12.1084 3.33337 11.7417 3.41671 11.3917 3.53337C12.0834 4.39171 12.5001 5.48337 12.5001 6.66671C12.5001 7.85004 12.0834 8.94171 11.3917 9.80004C11.7417 9.91671 12.1084 10 12.5001 10Z" fill="white"/>
<path fill-rule="evenodd" clip-rule="evenodd" d="M7.50004 10.8334C5.27504 10.8334 0.833374 11.95 0.833374 14.1667V15.8334C0.833374 16.2917 1.20837 16.6667 1.66671 16.6667H13.3334C13.7917 16.6667 14.1667 16.2917 14.1667 15.8334V14.1667C14.1667 11.95 9.72504 10.8334 7.50004 10.8334Z" fill="white"/>
</svg>
