<svg width="21" height="20" viewBox="0 0 21 20" fill="none" xmlns="http://www.w3.org/2000/svg">
<g clip-path="url(#clip0_966_2210)">
<path d="M18.3944 9.31667V8.1C18.3944 7.70833 18.2617 7.33333 18.0129 7.03333L14.745 3.1C14.4298 2.71667 13.9653 2.5 13.4677 2.5H3.46487C2.55251 2.5 1.80603 3.25 1.80603 4.16667V10.8333C1.80603 11.75 2.55251 12.5 3.46487 12.5H3.61417C3.96252 13.4667 4.87489 14.1667 5.95314 14.1667C7.03138 14.1667 7.94374 13.4667 8.2921 12.5H15.2344C15.5744 13.4667 16.4868 14.1667 17.5733 14.1667C18.9502 14.1667 20.0616 13.05 20.0616 11.6667C20.0533 10.5833 19.3566 9.66667 18.3944 9.31667ZM16.238 7.5H14.2473V5.1L16.238 7.5ZM3.46487 4.16667H6.78256V7.5H3.46487V4.16667ZM5.95314 12.5C5.49695 12.5 5.12371 12.125 5.12371 11.6667C5.12371 11.2083 5.49695 10.8333 5.95314 10.8333C6.40932 10.8333 6.78256 11.2083 6.78256 11.6667C6.78256 12.125 6.40932 12.5 5.95314 12.5ZM8.4414 10.8333V9.16667H10.9297V7.5H8.4414V4.16667H12.5885V10.8333H8.4414ZM17.565 12.5C17.1088 12.5 16.7356 12.125 16.7356 11.6667C16.7356 11.2083 17.1088 10.8333 17.565 10.8333C18.0212 10.8333 18.3944 11.2083 18.3944 11.6667C18.3944 12.125 18.0212 12.5 17.565 12.5Z" fill="white"/>
<path d="M6.78259 16.6667H10.1003V15L15.0768 17.5H11.7591V19.1667L6.78259 16.6667Z" fill="white"/>
</g>
<defs>
<clipPath id="clip0_966_2210">
<rect width="19.9061" height="20" fill="white" transform="translate(0.976562)"/>
</clipPath>
</defs>
</svg>
