<svg width="21" height="20" viewBox="0 0 21 20" fill="none" xmlns="http://www.w3.org/2000/svg">
<path d="M19.2155 6.66667C19.2155 6.06667 18.9086 5.54167 18.4358 5.25L11.7673 1.325C11.2531 1.01667 10.6061 1.01667 10.0919 1.325L3.42333 5.25C2.95056 5.54167 2.63538 6.06667 2.63538 6.66667V15C2.63538 15.9167 3.38185 16.6667 4.29422 16.6667H17.565C18.4773 16.6667 19.2238 15.9167 19.2238 15L19.2155 6.66667ZM10.0504 10.2833L4.07857 6.53333L10.0919 2.99167C10.6061 2.68333 11.2531 2.68333 11.7673 2.99167L17.7806 6.53333L11.8088 10.2833C11.2696 10.6167 10.5895 10.6167 10.0504 10.2833Z" fill="white"/>
</svg>
