<svg width="21" height="20" viewBox="0 0 21 20" fill="none" xmlns="http://www.w3.org/2000/svg">
<path d="M18.0129 4.35833L16.86 2.95833C16.636 2.675 16.296 2.5 15.9062 2.5H5.95311C5.56328 2.5 5.22322 2.675 4.99098 2.95833L3.84638 4.35833C3.60585 4.64167 3.46484 5.01667 3.46484 5.41667V15.8333C3.46484 16.75 4.21132 17.5 5.12369 17.5H16.7356C17.6479 17.5 18.3944 16.75 18.3944 15.8333V5.41667C18.3944 5.01667 18.2534 4.64167 18.0129 4.35833ZM10.6393 14.2917L6.36782 10H9.27079V8.33333H12.5885V10H15.4914L11.2199 14.2917C11.0623 14.45 10.7969 14.45 10.6393 14.2917ZM5.22322 4.16667L5.89505 3.33333H15.8481L16.6278 4.16667H5.22322Z" fill="white"/>
<rect x="5.12366" y="6.66663" width="10.7825" height="9.16667" fill="white"/>
</svg>
