<svg width="21" height="20" viewBox="0 0 21 20" fill="none" xmlns="http://www.w3.org/2000/svg">
<path fill-rule="evenodd" clip-rule="evenodd" d="M2.63538 9.99996C2.63538 5.39996 6.35118 1.66663 10.9296 1.66663C14.4738 1.66663 17.5012 3.9039 18.6879 7.04858L10.9887 9.12132C9.49443 8.70585 9.00533 8.25836 9.00533 7.59163C9.00533 6.79163 9.75181 6.22496 10.9959 6.22496C12.3064 6.22496 12.7958 6.85829 12.8373 7.78329H14.4629C14.4132 6.50829 13.6418 5.33329 12.0991 4.95829V3.33329H9.88451V4.94163C8.45791 5.24996 7.30502 6.18329 7.30502 7.61663C7.30502 8.58391 7.75706 9.27601 8.52264 9.78521L2.74242 11.3413C2.67199 10.9046 2.63538 10.4566 2.63538 9.99996ZM2.87548 11.9974L2.70332 11.3518L2.74242 11.3413C2.77817 11.563 2.82265 11.7819 2.87548 11.9974ZM2.87548 11.9974C2.9022 12.1064 2.93106 12.2146 2.96201 12.3218L2.87548 11.9974ZM3.17123 12.9513L3.13266 12.9617L2.96201 12.3218C3.0236 12.5353 3.09346 12.7453 3.17123 12.9513ZM11.2026 10.7892C11.0689 10.7497 10.9256 10.7116 10.772 10.675C9.87971 10.4581 9.10917 10.1753 8.52264 9.78521L10.9887 9.12132C11.0632 9.14205 11.1403 9.1627 11.2199 9.18329C12.0415 9.3958 12.891 9.67844 13.5435 10.159L11.2026 10.7892ZM19.1168 8.6586C19.1872 9.09531 19.2238 9.54337 19.2238 9.99996C19.2238 14.6 15.508 18.3333 10.9296 18.3333C7.38533 18.3333 4.358 16.096 3.17123 12.9513L11.2026 10.7892C12.6797 11.2248 12.9865 11.8241 12.9865 12.4583C12.9865 12.9666 12.6216 13.7833 10.9959 13.7833C9.4781 13.7833 8.88092 13.1 8.79797 12.225H7.17231C7.26354 13.8416 8.4662 14.7583 9.88451 15.0583V16.6666H12.0991V15.075C13.5423 14.8 14.6786 13.9666 14.6869 12.4416C14.6869 11.3714 14.2216 10.6584 13.5435 10.159L19.1168 8.6586ZM18.9837 8.00249L19.1558 8.64807L19.1168 8.6586C19.081 8.43685 19.0365 8.21802 18.9837 8.00249ZM18.8972 7.67814L18.9837 8.00249C18.957 7.89352 18.9281 7.78539 18.8972 7.67814ZM18.8972 7.67814C18.8356 7.46464 18.7657 7.25466 18.6879 7.04858L18.7265 7.0382L18.8972 7.67814Z" fill="white"/>
</svg>
