<svg width="21" height="20" viewBox="0 0 21 20" fill="none" xmlns="http://www.w3.org/2000/svg">
<path d="M16.7356 1.66667H13.2686C12.9202 0.7 12.0079 0 10.9296 0C9.85139 0 8.93902 0.7 8.59067 1.66667H5.12369C4.21132 1.66667 3.46484 2.41667 3.46484 3.33333V16.6667C3.46484 17.5833 4.21132 18.3333 5.12369 18.3333H16.7356C17.6479 18.3333 18.3944 17.5833 18.3944 16.6667V3.33333C18.3944 2.41667 17.6479 1.66667 16.7356 1.66667ZM10.9296 1.66667C11.3858 1.66667 11.7591 2.04167 11.7591 2.5C11.7591 2.95833 11.3858 3.33333 10.9296 3.33333C10.4735 3.33333 10.1002 2.95833 10.1002 2.5C10.1002 2.04167 10.4735 1.66667 10.9296 1.66667ZM15.9062 16.6667H5.95311C5.49693 16.6667 5.12369 16.2917 5.12369 15.8333V4.16667C5.12369 3.70833 5.49693 3.33333 5.95311 3.33333H6.78253V4.16667C6.78253 5.08333 7.52901 5.83333 8.44137 5.83333H13.4179C14.3303 5.83333 15.0767 5.08333 15.0767 4.16667V3.33333H15.9062C16.3623 3.33333 16.7356 3.70833 16.7356 4.16667V15.8333C16.7356 16.2917 16.3623 16.6667 15.9062 16.6667Z" fill="white"/>
</svg>
