<svg width="21" height="20" viewBox="0 0 21 20" fill="none" xmlns="http://www.w3.org/2000/svg">
<g clip-path="url(#clip0_966_2247)">
<path d="M20.0532 18.1167L18.8423 16.9L6.95665 4.95832L3.67215 1.65833L2.62708 2.70833L4.86651 4.95832H4.33568C3.41503 4.95832 2.68513 5.69999 2.68513 6.62499L2.67684 15.7917C2.67684 16.7167 3.41503 17.4583 4.33568 17.4583H17.3078L19.0081 19.1667L20.0532 18.1167ZM19.2238 6.62499C19.2653 5.69999 18.5271 4.95833 17.6064 4.99999H14.2887V3.29166C14.2887 2.36666 13.5505 1.62499 12.6299 1.66666H9.31221C8.39155 1.62499 7.65337 2.36666 7.65337 3.29166V3.55833L19.2238 15.225V6.62499ZM12.6299 4.99999H9.27074V3.29166H12.6299V4.99999Z" fill="white"/>
</g>
<defs>
<clipPath id="clip0_966_2247">
<rect width="19.9061" height="20" fill="white" transform="translate(0.976562)"/>
</clipPath>
</defs>
</svg>
