<svg width="20" height="20" viewBox="0 0 20 20" fill="none" xmlns="http://www.w3.org/2000/svg">
<path opacity="0.3" d="M12.5 5H16.6667V7.5H12.5V5Z" fill="white"/>
<path d="M2.50004 9.16634C2.50004 11.208 3.96671 12.8913 5.90004 13.258L4.65837 12.0163L5.83337 10.833L9.16671 14.1747L5.83337 17.4997L4.65837 16.3247L5.97504 15.008V14.958C4.55838 14.7876 3.25316 14.1043 2.30586 13.0372C1.35857 11.9702 0.834765 10.5932 0.833374 9.16634C0.833374 5.94134 3.44171 3.33301 6.66671 3.33301H9.16671V4.99967H6.66671C4.36671 4.99967 2.50004 6.86634 2.50004 9.16634ZM18.3334 9.16634V3.33301H10.8334V9.16634H18.3334ZM16.6667 7.49967H12.5V4.99967H16.6667V7.49967ZM10.8334 10.833H18.3334V16.6663H10.8334V10.833Z" fill="white"/>
</svg>
