<svg width="20" height="20" viewBox="0 0 20 20" fill="none" xmlns="http://www.w3.org/2000/svg">
<path d="M10.8334 2.5C6.69171 2.5 3.33337 5.85833 3.33337 10H0.833374L4.07504 13.2417L4.13337 13.3583L7.50004 10H5.00004C5.00004 6.775 7.60837 4.16667 10.8334 4.16667C14.0584 4.16667 16.6667 6.775 16.6667 10C16.6667 13.225 14.0584 15.8333 10.8334 15.8333C9.22504 15.8333 7.76671 15.175 6.71671 14.1167L5.53337 15.3C6.89171 16.6583 8.75837 17.5 10.8334 17.5C14.975 17.5 18.3334 14.1417 18.3334 10C18.3334 5.85833 14.975 2.5 10.8334 2.5Z" fill="white"/>
<path d="M10.8334 7.5C9.45337 7.5 8.33337 8.62 8.33337 10C8.33337 11.38 9.45337 12.5 10.8334 12.5C12.2134 12.5 13.3334 11.38 13.3334 10C13.3334 8.62 12.2134 7.5 10.8334 7.5ZM11.1859 11.5225V12H10.5184V11.5175C10.0909 11.4275 9.72837 11.1525 9.70087 10.6675H10.1909C10.2159 10.93 10.3959 11.135 10.8534 11.135C11.3434 11.135 11.4534 10.89 11.4534 10.7375C11.4534 10.53 11.3434 10.335 10.7859 10.2025C10.1659 10.0525 9.74087 9.7975 9.74087 9.285C9.74087 8.855 10.0884 8.575 10.5184 8.4825V8H11.1859V8.4875C11.6509 8.6 11.8834 8.9525 11.8984 9.335H11.4084C11.3959 9.0575 11.2484 8.8675 10.8534 8.8675C10.4784 8.8675 10.2534 9.0375 10.2534 9.2775C10.2534 9.4875 10.4159 9.625 10.9209 9.755C11.4259 9.885 11.9659 10.1025 11.9659 10.7325C11.9634 11.19 11.6209 11.44 11.1859 11.5225Z" fill="white"/>
</svg>
