<svg width="40" height="40" viewBox="0 0 40 40" fill="none" xmlns="http://www.w3.org/2000/svg">
<path d="M4.99984 6.66602C4.11578 6.66602 3.26794 7.0172 2.64281 7.64233C2.01769 8.26745 1.6665 9.11529 1.6665 9.99935V28.3327H4.99984C4.99984 29.6588 5.52662 30.9305 6.4643 31.8682C7.40199 32.8059 8.67376 33.3327 9.99984 33.3327C11.3259 33.3327 12.5977 32.8059 13.5354 31.8682C14.4731 30.9305 14.9998 29.6588 14.9998 28.3327H24.9998C24.9998 29.6588 25.5266 30.9305 26.4643 31.8682C27.402 32.8059 28.6738 33.3327 29.9998 33.3327C31.3259 33.3327 32.5977 32.8059 33.5354 31.8682C34.4731 30.9305 34.9998 29.6588 34.9998 28.3327H38.3332V19.9993L33.3332 13.3327H28.3332V6.66602M16.6665 9.99935L23.3332 16.666L16.6665 23.3327V18.3327H6.6665V14.9993H16.6665M28.3332 15.8327H32.4998L35.7832 19.9993H28.3332M9.99984 25.8327C10.6629 25.8327 11.2988 26.0961 11.7676 26.5649C12.2364 27.0338 12.4998 27.6696 12.4998 28.3327C12.4998 28.9957 12.2364 29.6316 11.7676 30.1004C11.2988 30.5693 10.6629 30.8327 9.99984 30.8327C9.3368 30.8327 8.70091 30.5693 8.23207 30.1004C7.76323 29.6316 7.49984 28.9957 7.49984 28.3327C7.49984 27.6696 7.76323 27.0338 8.23207 26.5649C8.70091 26.0961 9.3368 25.8327 9.99984 25.8327ZM29.9998 25.8327C30.6629 25.8327 31.2988 26.0961 31.7676 26.5649C32.2364 27.0338 32.4998 27.6696 32.4998 28.3327C32.4998 28.9957 32.2364 29.6316 31.7676 30.1004C31.2988 30.5693 30.6629 30.8327 29.9998 30.8327C29.3368 30.8327 28.7009 30.5693 28.2321 30.1004C27.7632 29.6316 27.4998 28.9957 27.4998 28.3327C27.4998 27.6696 27.7632 27.0338 28.2321 26.5649C28.7009 26.0961 29.3368 25.8327 29.9998 25.8327Z" fill="#075970"/>
</svg>
