<svg width="36" height="36" viewBox="0 0 36 36" fill="none" xmlns="http://www.w3.org/2000/svg">
<path d="M30.3335 0.333984H0.333496V10.334H30.3335V0.333984ZM27.0002 7.00065H3.66683V3.66732H27.0002V7.00065ZM23.6668 12.0007C21.4835 12.0007 19.4335 12.6173 17.6835 13.6673H11.1668C10.7002 13.6673 10.3335 14.034 10.3335 14.5007V17.0007H14.1002C12.7294 18.9531 11.9959 21.2817 12.0002 23.6673C12.0002 24.834 12.1835 25.9507 12.4835 27.0007H5.3335V12.0007H2.00016V30.334H14.1002C16.2168 33.3507 19.7002 35.334 23.6668 35.334C30.1168 35.334 35.3335 30.1173 35.3335 23.6673C35.3335 17.2173 30.1168 12.0007 23.6668 12.0007ZM23.6668 32.0007C19.0668 32.0007 15.3335 28.2673 15.3335 23.6673C15.3335 19.0673 19.0668 15.334 23.6668 15.334C28.2668 15.334 32.0002 19.0673 32.0002 23.6673C32.0002 28.2673 28.2668 32.0007 23.6668 32.0007ZM24.5002 24.084L29.2668 26.9007L28.0168 28.934L22.0002 25.334V17.0007H24.5002V24.084Z" fill="#FE6847" fill-opacity="0.98"/>
</svg>
