<svg width="16" height="16" viewBox="0 0 16 16" fill="none" xmlns="http://www.w3.org/2000/svg">
<path d="M13.7666 11.5419L12.4363 10.655L11.2537 9.8667C11.0255 9.71485 10.7188 9.76464 10.5503 9.98091L9.81848 10.9217C9.66129 11.1258 9.37852 11.1845 9.1531 11.0597C8.65656 10.7835 8.06939 10.5234 6.77382 9.22616C5.47826 7.92894 5.21654 7.34343 4.94033 6.84689C4.81553 6.62147 4.87419 6.3387 5.07833 6.18153L6.01907 5.44975C6.23533 5.28128 6.28513 4.97456 6.13328 4.7463L5.36923 3.60011L4.45806 2.23334C4.30298 2.0007 3.99253 1.93086 3.75276 2.07465L2.70193 2.70506C2.41794 2.87238 2.20919 3.14256 2.11891 3.4596C1.83155 4.50731 1.77361 6.81853 5.47763 10.5225C9.18164 14.2266 11.4926 14.1684 12.5404 13.8811C12.8574 13.7908 13.1276 13.582 13.2949 13.298L13.9253 12.2472C14.0691 12.0074 13.9993 11.697 13.7666 11.5419Z" fill="#3F92D1"/>
<path d="M8.73565 4.32093C10.4615 4.32285 11.8601 5.72146 11.8621 7.44733C11.8621 7.5489 11.9444 7.63125 12.046 7.63125C12.1475 7.63125 12.2299 7.54892 12.2299 7.44733C12.2278 5.51842 10.6646 3.95525 8.73567 3.95312C8.63411 3.95312 8.55176 4.03546 8.55176 4.13704C8.55174 4.23858 8.63407 4.32093 8.73565 4.32093Z" fill="#3F92D1"/>
<path d="M8.73567 5.42447C9.85239 5.42578 10.7573 6.33073 10.7586 7.44743C10.7586 7.54899 10.841 7.63134 10.9425 7.63134C11.0441 7.63134 11.1265 7.54901 11.1265 7.44743C11.1249 6.12767 10.0554 5.05816 8.73567 5.05664C8.63411 5.05664 8.55176 5.13897 8.55176 5.24056C8.55176 5.34214 8.63409 5.42447 8.73567 5.42447Z" fill="#3F92D1"/>
<path d="M8.73565 6.52796C9.24325 6.52857 9.65458 6.9399 9.65518 7.4475C9.65518 7.54906 9.73751 7.63141 9.8391 7.63141C9.94066 7.63141 10.023 7.54908 10.023 7.4475C10.0222 6.73686 9.44631 6.16097 8.73567 6.16016C8.63411 6.16016 8.55176 6.24249 8.55176 6.34407C8.55174 6.44563 8.63407 6.52796 8.73565 6.52796Z" fill="#3F92D1"/>
</svg>
