<svg width="16" height="16" viewBox="0 0 16 16" fill="none" xmlns="http://www.w3.org/2000/svg">
<path d="M9.94877 9.56683C9.86181 9.53854 9.31213 9.29204 9.65561 8.25329H9.65068C10.546 7.33589 11.2303 5.85965 11.2303 4.40627C11.2303 2.17152 9.73656 1 8.00055 1C6.26345 1 4.77794 2.17097 4.77794 4.40627C4.77794 5.86564 5.45834 7.34786 6.35916 8.26309C6.7103 9.17941 6.08241 9.51949 5.95114 9.56738C4.13309 10.2214 2 11.4136 2 12.5906V13.0319C2 14.6354 5.12525 15 8.0175 15C10.9141 15 14 14.6354 14 13.0319V12.5906C14 11.3783 11.8565 10.1953 9.94877 9.56683Z" fill="#3F92D1"/>
</svg>
