<svg width="16" height="16" viewBox="0 0 16 16" fill="none" xmlns="http://www.w3.org/2000/svg">
<path d="M10 14H8.66667V12.6667H10V14ZM8.66667 9.33333H7.33333V12.6667H8.66667V9.33333ZM14 8H12.6667V10.6667H14V8ZM12.6667 6.66667H11.3333V8H12.6667V6.66667ZM4.66667 8H3.33333V9.33333H4.66667V8ZM3.33333 6.66667H2V8H3.33333V6.66667ZM8 3.33333H9.33333V2H8V3.33333ZM3 3V5H5V3H3ZM6 6H2V2H6V6ZM3 11V13H5V11H3ZM6 14H2V10H6V14ZM11 3V5H13V3H11ZM14 6H10V2H14V6ZM12.6667 12.6667V10.6667H10V12H11.3333V14H14V12.6667H12.6667ZM11.3333 8H8.66667V9.33333H11.3333V8ZM8.66667 6.66667H4.66667V8H6V9.33333H7.33333V8H8.66667V6.66667ZM9.33333 6V4.66667H8V3.33333H6.66667V6H9.33333ZM4.5 3.5H3.5V4.5H4.5V3.5ZM4.5 11.5H3.5V12.5H4.5V11.5ZM12.5 3.5H11.5V4.5H12.5V3.5Z" fill="#3F92D1"/>
</svg>
