<svg width="236" height="92" viewBox="0 0 236 92" fill="none" xmlns="http://www.w3.org/2000/svg">
<g clip-path="url(#clip0_83_764)">
<path d="M67.026 49.75L60.6543 82.5H49.8713L52.1994 70.5H42.2742L39.9461 82.5H29.1631L35.5348 49.75H46.3178L43.9897 61.375H53.9149L56.243 49.75H67.026Z" fill="#214081"/>
<path d="M100.355 56.875L95.3311 82.5H85.5284L86.0185 80.125C84.1805 82 81.8524 82.875 79.2792 82.875C77.5637 82.875 75.9708 82.375 74.3778 81.5C72.7849 80.625 71.5595 79.25 70.4567 77.375C69.4765 75.625 68.9863 73.5 68.9863 71C68.9863 68.25 69.599 65.75 70.8243 63.5C72.0497 61.25 73.6426 59.5 75.7257 58.25C77.8088 57 80.0144 56.375 82.3425 56.375C85.6509 56.375 88.1016 57.375 89.4495 59.5L89.9396 56.75H100.355V56.875ZM80.5045 73.5C81.1172 74.25 82.0974 74.625 83.2002 74.625C84.5481 74.625 85.6509 74.125 86.5087 73C87.3664 72 87.734 70.5 87.734 68.75C87.734 67.5 87.3664 66.625 86.7537 65.875C86.1411 65.125 85.1608 64.75 84.058 64.75C82.7101 64.75 81.6073 65.25 80.7496 66.375C79.8918 67.375 79.5242 68.875 79.5242 70.625C79.5242 71.875 79.7693 72.75 80.5045 73.5Z" fill="#214081"/>
<path d="M130.376 58.75C131.969 60.25 132.826 62.375 132.826 65.25C132.826 66.25 132.704 67.375 132.459 68.5L129.763 82.5H119.47L122.043 69.625C122.166 68.875 122.288 68.375 122.288 68.125C122.288 66.25 121.431 65.375 119.715 65.375C117.265 65.375 115.794 67 115.059 70.25L112.608 82.5H102.315L107.339 57H117.142L116.407 59.5C117.51 58.5 118.612 57.75 119.96 57.25C121.308 56.75 122.533 56.5 123.881 56.5C126.577 56.5 128.783 57.25 130.376 58.75Z" fill="#214081"/>
<path d="M211.861 49.75L191.888 82.5H181.35L174.243 49.875H185.271L189.192 68.875L200.71 49.875H211.861V49.75Z" fill="#214081"/>
<path d="M235.387 72.125H217.865C218.11 73.125 218.6 74 219.336 74.375C220.071 74.875 221.174 75.125 222.644 75.125C224.727 75.125 226.565 74.5 228.035 73.375L232.324 79.75C229.261 81.875 225.585 82.875 221.419 82.875C218.723 82.875 216.272 82.375 214.189 81.375C212.106 80.375 210.513 79 209.288 77.25C208.185 75.5 207.572 73.375 207.572 71C207.572 68.25 208.185 65.75 209.533 63.5C210.881 61.25 212.596 59.5 215.047 58.25C217.375 57 220.071 56.375 223.134 56.375C225.707 56.375 228.035 56.875 229.996 57.75C231.956 58.75 233.427 60 234.407 61.75C235.387 63.5 235.878 65.375 235.878 67.625C236 69.125 235.755 70.625 235.387 72.125ZM220.071 64.5C219.336 65.125 218.723 66 218.355 67H226.565C226.565 66 226.197 65.125 225.585 64.5C224.972 63.875 223.992 63.625 222.889 63.625C221.786 63.625 220.806 64 220.071 64.5Z" fill="#214081"/>
<path fill-rule="evenodd" clip-rule="evenodd" d="M88.1021 10C85.8965 9.875 83.6909 9.75 81.4853 9.75C74.8685 9.75 68.4967 10.625 62.2475 12.125L63.2278 13L62.125 14.25L60.2869 12.625L54.6504 7.375C65.4334 2.625 77.0741 0 89.3274 0C90.7978 0 92.2683 0 93.7387 0.125L88.1021 10Z" fill="#ED1C24"/>
<path fill-rule="evenodd" clip-rule="evenodd" d="M132.091 27.875C121.43 19.125 108.687 13.125 94.8406 10.75L93.0026 13.875L91.5322 13L93.0026 10.375L95.3308 6.25L95.8209 5.25L98.6392 0.25C115.794 2.125 131.723 9.25 144.589 20.25L132.091 27.875Z" fill="#ED1C24"/>
<path fill-rule="evenodd" clip-rule="evenodd" d="M54.8953 17.75C36.6378 23.75 21.9337 36.875 12.8662 54.875C22.1788 37 37.7406 24.375 56.6108 19.75L54.8953 17.75ZM142.874 54.875C130.254 29.875 105.012 14.125 77.4415 14.125C72.6627 14.125 68.0064 14.625 63.4726 15.5L66.2909 18.125C68.374 17.875 70.4571 17.875 72.5401 17.875C97.7821 17.875 121.063 32.125 132.949 54.875C133.439 54.875 136.748 54.875 142.874 54.875Z" fill="#214081"/>
<path fill-rule="evenodd" clip-rule="evenodd" d="M87.4892 52.2499C85.8963 52.2499 84.5484 51.4999 83.5681 50.3749L45.4602 3.24989C45.3376 3.12489 45.5827 2.87489 45.7052 2.99989L90.6751 43.8749C93.861 46.8749 91.7779 52.2499 87.4892 52.2499Z" fill="#ED1C24"/>
<path d="M49.6262 16.5L45.46 12.25C32.4714 20 21.9335 31.5 13.9688 44.875C12.4984 47.375 11.3956 49.125 9.92523 51.125L0 64.5L5.88162 62.625L4.41121 79.25L18.5026 57L9.0675 61.75L12.866 51.125C14.0914 47.875 15.1942 45.75 17.2773 42.75C24.9969 30.75 36.7601 22.125 49.6262 16.5Z" fill="#ED1C24"/>
<path fill-rule="evenodd" clip-rule="evenodd" d="M168.852 62.75C169.587 58.5 168.729 54.25 167.381 50.5C162.603 40.25 156.108 31.125 148.144 23.625L139.076 29L131.602 33.375L132.459 34.875L136.871 32.25C143.12 38.375 148.389 45.5 152.555 53.5L154.148 56.625C153.413 56.5 152.555 56.375 151.697 56.375C149.246 56.375 146.918 57 144.958 58.25C142.875 59.5 141.282 61.125 140.056 63.125C138.831 65.25 138.218 67.5 138.218 70C138.218 72.25 138.709 74.125 139.689 75.875C140.669 77.5 142.017 78.875 143.61 79.75C145.203 80.625 147.041 81.125 148.879 81.125C151.329 81.125 153.535 80.375 155.251 78.75L155.128 79.375C154.883 81 154.148 82.25 153.29 83C152.31 83.75 150.839 84.25 149.001 84.25C147.531 84.25 146.061 84 144.59 83.625C143.12 83.125 141.894 82.5 140.914 81.75L136.503 88.875C139.689 91 143.732 92 148.879 92C153.535 92 157.334 90.875 160.152 88.5C163.093 86.125 164.931 82.5 165.911 77.375M155.618 71.5C154.76 72.375 153.78 72.75 152.432 72.75C151.329 72.75 150.472 72.5 149.737 71.875C149.124 71.25 148.756 70.5 148.756 69.5C148.756 68.125 149.124 66.875 149.982 66C150.839 65.125 151.942 64.75 153.29 64.75C154.393 64.75 155.251 65 155.986 65.625C156.598 66.25 156.966 67 156.966 68C156.844 69.5 156.476 70.625 155.618 71.5Z" fill="#214081"/>
</g>
<defs>
<clipPath id="clip0_83_764">
<rect width="236" height="92" fill="white"/>
</clipPath>
</defs>
</svg>
