<svg width="18" height="18" viewBox="0 0 18 18" fill="none" xmlns="http://www.w3.org/2000/svg">
<path d="M10.8681 7.71429L10.3166 10.2857H7.13186L7.68343 7.71429H10.8669H10.8681ZM3.21429 0C2.3618 0 1.54424 0.338647 0.941442 0.941442C0.338647 1.54424 0 2.3618 0 3.21429V14.7857C0 15.6382 0.338647 16.4558 0.941442 17.0586C1.54424 17.6614 2.3618 18 3.21429 18H14.7857C15.6382 18 16.4558 17.6614 17.0586 17.0586C17.6614 16.4558 18 15.6382 18 14.7857V3.21429C18 2.3618 17.6614 1.54424 17.0586 0.941442C16.4558 0.338647 15.6382 0 14.7857 0H3.21429ZM7.84929 3.87129C7.93186 3.88899 8.01014 3.92279 8.07965 3.97076C8.14915 4.01873 8.20853 4.07993 8.25438 4.15085C8.30023 4.22177 8.33165 4.30103 8.34686 4.38411C8.36207 4.46718 8.36075 4.55243 8.343 4.635L7.95857 6.42857H11.1433L11.5843 4.365C11.6201 4.19825 11.7207 4.05256 11.8639 3.95997C12.0071 3.86738 12.1813 3.83548 12.348 3.87129C12.5147 3.90709 12.6604 4.00767 12.753 4.15089C12.8456 4.29412 12.8775 4.46826 12.8417 4.635L12.4586 6.42857H13.5013C13.6718 6.42857 13.8353 6.4963 13.9559 6.61686C14.0764 6.73742 14.1441 6.90093 14.1441 7.07143C14.1441 7.24193 14.0764 7.40544 13.9559 7.526C13.8353 7.64656 13.6718 7.71429 13.5013 7.71429H12.1834L11.6331 10.2857H12.8571C13.0276 10.2857 13.1912 10.3534 13.3117 10.474C13.4323 10.5946 13.5 10.7581 13.5 10.9286C13.5 11.0991 13.4323 11.2626 13.3117 11.3831C13.1912 11.5037 13.0276 11.5714 12.8571 11.5714H11.3567L10.9144 13.6337C10.8786 13.8005 10.778 13.9462 10.6348 14.0387C10.4916 14.1313 10.3175 14.1632 10.1507 14.1274C9.98397 14.0916 9.83828 13.991 9.74569 13.8478C9.6531 13.7046 9.6212 13.5305 9.657 13.3637L10.0414 11.5714H6.85671L6.41443 13.635C6.3967 13.7176 6.36288 13.7958 6.31491 13.8653C6.26693 13.9348 6.20574 13.9942 6.13482 14.04C5.9916 14.1326 5.81746 14.1645 5.65071 14.1287C5.48397 14.0929 5.33828 13.9923 5.24569 13.8491C5.1531 13.7059 5.1212 13.5317 5.157 13.365L5.54271 11.5714H4.5C4.3295 11.5714 4.16599 11.5037 4.04543 11.3831C3.92487 11.2626 3.85714 11.0991 3.85714 10.9286C3.85714 10.7581 3.92487 10.5946 4.04543 10.474C4.16599 10.3534 4.3295 10.2857 4.5 10.2857H5.81657L6.36943 7.71429H5.14286C4.97236 7.71429 4.80885 7.64656 4.68829 7.526C4.56773 7.40544 4.5 7.24193 4.5 7.07143C4.5 6.90093 4.56773 6.73742 4.68829 6.61686C4.80885 6.4963 4.97236 6.42857 5.14286 6.42857H6.64329L7.08557 4.365C7.10328 4.28242 7.13708 4.20415 7.18505 4.13464C7.23302 4.06513 7.29421 4.00576 7.36514 3.95991C7.43606 3.91406 7.51532 3.88263 7.59839 3.86743C7.68147 3.85222 7.76672 3.85353 7.84929 3.87129Z" fill="#207CDC"/>
</svg>
