<svg width="21" height="21" viewBox="0 0 21 21" fill="none" xmlns="http://www.w3.org/2000/svg">
<path d="M18 0H0V6H18V0ZM16 4H2V2H16V4ZM14 7C12.69 7 11.46 7.37 10.41 8H6.5C6.22 8 6 8.22 6 8.5V10H8.26C7.43755 11.1715 6.99745 12.5686 7 14C7 14.7 7.11 15.37 7.29 16H3V7H1V18H8.26C9.53 19.81 11.62 21 14 21C17.87 21 21 17.87 21 14C21 10.13 17.87 7 14 7ZM14 19C11.24 19 9 16.76 9 14C9 11.24 11.24 9 14 9C16.76 9 19 11.24 19 14C19 16.76 16.76 19 14 19ZM14.5 14.25L17.36 15.94L16.61 17.16L13 15V10H14.5V14.25Z" fill="#F09920"/>
</svg>
