<svg width="12" height="12" viewBox="0 0 12 12" fill="none" xmlns="http://www.w3.org/2000/svg">
<path d="M6 0C2.68548 0 0 2.68548 0 6C0 9.31452 2.68548 12 6 12C9.31452 12 12 9.31452 12 6C12 2.68548 9.31452 0 6 0ZM9.48387 6.67742C9.48387 6.84677 9.33871 6.96774 9.19355 6.96774H6.96774V9.19355C6.96774 9.3629 6.82258 9.48387 6.67742 9.48387H5.32258C5.15323 9.48387 5.03226 9.3629 5.03226 9.19355V6.96774H2.80645C2.6371 6.96774 2.51613 6.84677 2.51613 6.67742V5.32258C2.51613 5.17742 2.6371 5.03226 2.80645 5.03226H5.03226V2.80645C5.03226 2.66129 5.15323 2.51613 5.32258 2.51613H6.67742C6.82258 2.51613 6.96774 2.66129 6.96774 2.80645V5.03226H9.19355C9.33871 5.03226 9.48387 5.17742 9.48387 5.32258V6.67742Z" fill="#767676"/>
</svg>
