<svg width="13" height="13" viewBox="0 0 13 13" fill="none" xmlns="http://www.w3.org/2000/svg">
<path d="M10.8846 2.34615H2.17308C1.72935 2.34615 1.3038 2.52242 0.990033 2.83619C0.67627 3.14995 0.5 3.5755 0.5 4.01923V8.57692C0.5 9.00535 0.670192 9.41623 0.973135 9.71917C1.27608 10.0221 1.68696 10.1923 2.11538 10.1923H2.34615V11.3369C2.34615 11.6454 2.46869 11.9412 2.68681 12.1593C2.90493 12.3775 3.20076 12.5 3.50923 12.5H9.49077C9.79924 12.5 10.0951 12.3775 10.3132 12.1593C10.5313 11.9412 10.6538 11.6454 10.6538 11.3369V10.1923H10.8846C11.313 10.1923 11.7239 10.0221 12.0269 9.71917C12.3298 9.41623 12.5 9.00535 12.5 8.57692V3.96154C12.5 3.53311 12.3298 3.12223 12.0269 2.81929C11.7239 2.51635 11.313 2.34615 10.8846 2.34615V2.34615ZM9.73077 11.3369C9.73054 11.4005 9.70518 11.4614 9.66022 11.5064C9.61526 11.5513 9.55435 11.5767 9.49077 11.5769H3.50923C3.44565 11.5767 3.38474 11.5513 3.33978 11.5064C3.29482 11.4614 3.26946 11.4005 3.26923 11.3369V6.74C3.26946 6.67642 3.29482 6.61551 3.33978 6.57055C3.38474 6.52559 3.44565 6.50023 3.50923 6.5H9.49077C9.55435 6.50023 9.61526 6.52559 9.66022 6.57055C9.70518 6.61551 9.73054 6.67642 9.73077 6.74V11.3369ZM10.4808 5.11308C10.3396 5.12443 10.1983 5.09219 10.076 5.02071C9.95368 4.94923 9.85624 4.84196 9.79683 4.71336C9.73742 4.58476 9.71888 4.44104 9.74373 4.30157C9.76857 4.16211 9.8356 4.03363 9.93577 3.93346C10.0359 3.83329 10.1644 3.76626 10.3039 3.74142C10.4433 3.71657 10.5871 3.73511 10.7157 3.79452C10.8443 3.85394 10.9515 3.95137 11.023 4.07367C11.0945 4.19597 11.1267 4.33726 11.1154 4.47846C11.1022 4.64238 11.0311 4.79625 10.9148 4.91253C10.7986 5.02881 10.6447 5.0999 10.4808 5.11308V5.11308ZM9.03846 0.5H3.96154C3.57327 0.500578 3.19816 0.640758 2.90467 0.894954C2.61118 1.14915 2.41889 1.50041 2.36288 1.88462H10.6371C10.5811 1.50041 10.3888 1.14915 10.0953 0.894954C9.80184 0.640758 9.42673 0.500578 9.03846 0.5V0.5Z" fill="#767676"/>
</svg>
