<svg width="13" height="10" viewBox="0 0 13 10" fill="none" xmlns="http://www.w3.org/2000/svg">
<path d="M1.66699 4C1.11366 4 0.666992 4.44667 0.666992 5C0.666992 5.55333 1.11366 6 1.66699 6C2.22033 6 2.66699 5.55333 2.66699 5C2.66699 4.44667 2.22033 4 1.66699 4ZM1.66699 0C1.11366 0 0.666992 0.446667 0.666992 1C0.666992 1.55333 1.11366 2 1.66699 2C2.22033 2 2.66699 1.55333 2.66699 1C2.66699 0.446667 2.22033 0 1.66699 0ZM1.66699 8C1.11366 8 0.666992 8.45333 0.666992 9C0.666992 9.54667 1.12033 10 1.66699 10C2.21366 10 2.66699 9.54667 2.66699 9C2.66699 8.45333 2.22033 8 1.66699 8ZM3.66699 9.66667H13.0003V8.33333H3.66699V9.66667ZM3.66699 5.66667H13.0003V4.33333H3.66699V5.66667ZM3.66699 0.333333V1.66667H13.0003V0.333333H3.66699Z" fill="#767676"/>
</svg>
