<svg width="11" height="12" viewBox="0 0 11 12" fill="none" xmlns="http://www.w3.org/2000/svg">
<path d="M1.2704 10.6667C1.2704 11.4 1.91102 12 2.69401 12H8.38846C9.17144 12 9.81207 11.4 9.81207 10.6667V4C9.81207 3.26667 9.17144 2.66667 8.38846 2.66667H2.69401C1.91102 2.66667 1.2704 3.26667 1.2704 4V10.6667ZM9.81207 0.666667H8.03255L7.52717 0.193333C7.39905 0.0733333 7.21398 0 7.02891 0H4.05356C3.86849 0 3.68342 0.0733333 3.5553 0.193333L3.04991 0.666667H1.2704C0.878906 0.666667 0.558594 0.966667 0.558594 1.33333C0.558594 1.7 0.878906 2 1.2704 2H9.81207C10.2036 2 10.5239 1.7 10.5239 1.33333C10.5239 0.966667 10.2036 0.666667 9.81207 0.666667Z" fill="#767676"/>
</svg>
