<svg width="10" height="12" viewBox="0 0 10 12" fill="none" xmlns="http://www.w3.org/2000/svg">
<path d="M5 0C3.80696 0.00147449 2.66319 0.49863 1.81958 1.38241C0.975969 2.26619 0.501412 3.46443 0.500005 4.71429C0.498576 5.73567 0.817042 6.72934 1.40655 7.54286C1.40655 7.54286 1.52928 7.71214 1.54932 7.73657L5 12L8.45231 7.73443C8.47031 7.71171 8.59345 7.54286 8.59345 7.54286L8.59386 7.54157C9.18307 6.72841 9.50139 5.7352 9.5 4.71429C9.49859 3.46443 9.02403 2.26619 8.18042 1.38241C7.33681 0.49863 6.19304 0.00147449 5 0ZM5 6.42857C4.67636 6.42857 4.35998 6.32803 4.09089 6.13966C3.82179 5.95129 3.61205 5.68356 3.4882 5.37031C3.36435 5.05707 3.33194 4.71238 3.39508 4.37985C3.45822 4.04731 3.61407 3.74185 3.84292 3.5021C4.07177 3.26236 4.36334 3.09909 4.68076 3.03294C4.99818 2.96679 5.3272 3.00074 5.62621 3.13049C5.92521 3.26024 6.18078 3.47997 6.36059 3.76188C6.54039 4.04379 6.63636 4.37523 6.63636 4.71429C6.63582 5.16877 6.46324 5.60447 6.15648 5.92584C5.84972 6.24721 5.43382 6.428 5 6.42857Z" fill="#767676"/>
</svg>
