<svg width="16" height="15" viewBox="0 0 16 15" fill="none" xmlns="http://www.w3.org/2000/svg">
<path d="M7.35267 1.50983C7.5507 1.4118 7.77348 1.36035 8 1.36035C8.22652 1.36035 8.4493 1.4118 8.64733 1.50983L13.6573 3.99035C13.7612 4.04184 13.8477 4.11714 13.908 4.20847C13.9682 4.29979 14 4.40381 14 4.50975V9.40364C13.9999 9.61559 13.9363 9.82367 13.8157 10.0063C13.6951 10.189 13.5219 10.3395 13.314 10.4424L8.64733 12.7542C8.4493 12.8522 8.22652 12.9037 8 12.9037C7.77348 12.9037 7.5507 12.8522 7.35267 12.7542L2.686 10.4424C2.47824 10.3396 2.30509 10.1891 2.18448 10.0066C2.06386 9.82404 2.00018 9.61608 2 9.40424V4.50975C2 4.40381 2.03176 4.29979 2.09201 4.20847C2.15226 4.11714 2.2388 4.04184 2.34267 3.99035L7.35333 1.50983H7.35267Z" stroke="#767676" stroke-linecap="round" stroke-linejoin="round"/>
<path d="M2 4.16016L8 7.13155M8 7.13155L14 4.16016M8 7.13155V12.7772" stroke="#767676" stroke-linejoin="round"/>
<path d="M5 5.6462L11 2.6748M4 7.32682L6 8.32046" stroke="#767676" stroke-linecap="round" stroke-linejoin="round"/>
</svg>
