<svg width="20" height="14" viewBox="0 0 20 14" fill="none" xmlns="http://www.w3.org/2000/svg">
<path d="M5.00065 13.7913C4.30621 13.7913 3.71593 13.5483 3.22982 13.0622C2.74371 12.5761 2.50065 11.9858 2.50065 11.2913C2.04232 11.2913 1.6501 11.1283 1.32398 10.8022C0.997318 10.4755 0.833984 10.083 0.833984 9.62467V2.12467C0.833984 1.66634 0.997318 1.27412 1.32398 0.948008C1.6501 0.621341 2.04232 0.458008 2.50065 0.458008H12.5007C12.959 0.458008 13.3515 0.621341 13.6782 0.948008C14.0043 1.27412 14.1673 1.66634 14.1673 2.12467V3.79134H16.2507C16.3895 3.79134 16.5145 3.81912 16.6257 3.87467C16.7368 3.93023 16.834 4.01356 16.9173 4.12467L19.0007 6.89551C19.0562 6.96495 19.0979 7.04134 19.1257 7.12467C19.1534 7.20801 19.1673 7.29828 19.1673 7.39551V10.458C19.1673 10.6941 19.0873 10.8919 18.9273 11.0513C18.7679 11.2113 18.5701 11.2913 18.334 11.2913H17.5007C17.5007 11.9858 17.2576 12.5761 16.7715 13.0622C16.2854 13.5483 15.6951 13.7913 15.0007 13.7913C14.3062 13.7913 13.7159 13.5483 13.2298 13.0622C12.7437 12.5761 12.5007 11.9858 12.5007 11.2913H7.50065C7.50065 11.9858 7.2576 12.5761 6.77148 13.0622C6.28537 13.5483 5.6951 13.7913 5.00065 13.7913ZM5.00065 12.1247C5.23676 12.1247 5.43482 12.0447 5.59482 11.8847C5.75426 11.7252 5.83398 11.5275 5.83398 11.2913C5.83398 11.0552 5.75426 10.8575 5.59482 10.698C5.43482 10.538 5.23676 10.458 5.00065 10.458C4.76454 10.458 4.56648 10.538 4.40648 10.698C4.24704 10.8575 4.16732 11.0552 4.16732 11.2913C4.16732 11.5275 4.24704 11.7252 4.40648 11.8847C4.56648 12.0447 4.76454 12.1247 5.00065 12.1247ZM2.50065 2.12467V9.62467H3.16732C3.40343 9.37467 3.67426 9.17328 3.97982 9.02051C4.28537 8.86773 4.62565 8.79134 5.00065 8.79134C5.37565 8.79134 5.71593 8.86773 6.02148 9.02051C6.32704 9.17328 6.59787 9.37467 6.83398 9.62467H12.5007V2.12467H2.50065ZM15.0007 12.1247C15.2368 12.1247 15.4345 12.0447 15.594 11.8847C15.754 11.7252 15.834 11.5275 15.834 11.2913C15.834 11.0552 15.754 10.8575 15.594 10.698C15.4345 10.538 15.2368 10.458 15.0007 10.458C14.7645 10.458 14.5668 10.538 14.4073 10.698C14.2473 10.8575 14.1673 11.0552 14.1673 11.2913C14.1673 11.5275 14.2473 11.7252 14.4073 11.8847C14.5668 12.0447 14.7645 12.1247 15.0007 12.1247ZM14.1673 7.95801H17.709L15.834 5.45801H14.1673V7.95801Z" fill="white"/>
</svg>
