<svg width="16" height="16" viewBox="0 0 16 16" fill="none" xmlns="http://www.w3.org/2000/svg">
<path fill-rule="evenodd" clip-rule="evenodd" d="M11.6663 13.333C12.1084 13.333 12.5323 13.1574 12.8449 12.8449C13.1574 12.5323 13.333 12.1084 13.333 11.6663C13.333 11.2243 13.1574 10.8004 12.8449 10.4878C12.5323 10.1753 12.1084 9.99967 11.6663 9.99967C11.2243 9.99967 10.8004 10.1753 10.4878 10.4878C10.1753 10.8004 9.99967 11.2243 9.99967 11.6663C9.99967 12.1084 10.1753 12.5323 10.4878 12.8449C10.8004 13.1574 11.2243 13.333 11.6663 13.333ZM11.6663 13.9997C12.2852 13.9997 12.8787 13.7538 13.3163 13.3163C13.7538 12.8787 13.9997 12.2852 13.9997 11.6663C13.9997 11.0475 13.7538 10.454 13.3163 10.0164C12.8787 9.57884 12.2852 9.33301 11.6663 9.33301C11.0475 9.33301 10.454 9.57884 10.0164 10.0164C9.57884 10.454 9.33301 11.0475 9.33301 11.6663C9.33301 12.2852 9.57884 12.8787 10.0164 13.3163C10.454 13.7538 11.0475 13.9997 11.6663 13.9997Z" fill="#767676"/>
<path fill-rule="evenodd" clip-rule="evenodd" d="M11.6663 10.5C11.7547 10.5 11.8395 10.5351 11.902 10.5976C11.9646 10.6601 11.9997 10.7449 11.9997 10.8333V11.5287L12.2353 11.7643C12.2961 11.8272 12.3297 11.9114 12.3289 11.9988C12.3281 12.0862 12.2931 12.1698 12.2313 12.2316C12.1695 12.2934 12.0859 12.3285 11.9985 12.3292C11.9111 12.33 11.8269 12.2964 11.764 12.2357L11.333 11.8047V10.8333C11.333 10.7449 11.3681 10.6601 11.4306 10.5976C11.4932 10.5351 11.5779 10.5 11.6663 10.5ZM4.66634 7.66667H3.99967V8.33333H4.66634V7.66667ZM3.99967 7C3.82286 7 3.65329 7.07024 3.52827 7.19526C3.40325 7.32029 3.33301 7.48986 3.33301 7.66667V8.33333C3.33301 8.51014 3.40325 8.67971 3.52827 8.80474C3.65329 8.92976 3.82286 9 3.99967 9H4.66634C4.84315 9 5.01272 8.92976 5.13775 8.80474C5.26277 8.67971 5.33301 8.51014 5.33301 8.33333V7.66667C5.33301 7.48986 5.26277 7.32029 5.13775 7.19526C5.01272 7.07024 4.84315 7 4.66634 7H3.99967ZM7.33301 7.66667H6.66634V8.33333H7.33301V7.66667ZM6.66634 7C6.48953 7 6.31996 7.07024 6.19494 7.19526C6.06991 7.32029 5.99967 7.48986 5.99967 7.66667V8.33333C5.99967 8.51014 6.06991 8.67971 6.19494 8.80474C6.31996 8.92976 6.48953 9 6.66634 9H7.33301C7.50982 9 7.67939 8.92976 7.80441 8.80474C7.92944 8.67971 7.99967 8.51014 7.99967 8.33333V7.66667C7.99967 7.48986 7.92944 7.32029 7.80441 7.19526C7.67939 7.07024 7.50982 7 7.33301 7H6.66634ZM9.99967 7.66667H9.33301V8.33333H9.99967V7.66667ZM9.33301 7C9.1562 7 8.98663 7.07024 8.8616 7.19526C8.73658 7.32029 8.66634 7.48986 8.66634 7.66667V8.33333C8.66634 8.51014 8.73658 8.67971 8.8616 8.80474C8.98663 8.92976 9.1562 9 9.33301 9H9.99967C10.1765 9 10.3461 8.92976 10.4711 8.80474C10.5961 8.67971 10.6663 8.51014 10.6663 8.33333V7.66667C10.6663 7.48986 10.5961 7.32029 10.4711 7.19526C10.3461 7.07024 10.1765 7 9.99967 7H9.33301ZM4.66634 10.3333H3.99967V11H4.66634V10.3333ZM3.99967 9.66667C3.82286 9.66667 3.65329 9.7369 3.52827 9.86193C3.40325 9.98695 3.33301 10.1565 3.33301 10.3333V11C3.33301 11.1768 3.40325 11.3464 3.52827 11.4714C3.65329 11.5964 3.82286 11.6667 3.99967 11.6667H4.66634C4.84315 11.6667 5.01272 11.5964 5.13775 11.4714C5.26277 11.3464 5.33301 11.1768 5.33301 11V10.3333C5.33301 10.1565 5.26277 9.98695 5.13775 9.86193C5.01272 9.7369 4.84315 9.66667 4.66634 9.66667H3.99967ZM7.33301 10.3333H6.66634V11H7.33301V10.3333ZM6.66634 9.66667C6.48953 9.66667 6.31996 9.7369 6.19494 9.86193C6.06991 9.98695 5.99967 10.1565 5.99967 10.3333V11C5.99967 11.1768 6.06991 11.3464 6.19494 11.4714C6.31996 11.5964 6.48953 11.6667 6.66634 11.6667H7.33301C7.50982 11.6667 7.67939 11.5964 7.80441 11.4714C7.92944 11.3464 7.99967 11.1768 7.99967 11V10.3333C7.99967 10.1565 7.92944 9.98695 7.80441 9.86193C7.67939 9.7369 7.50982 9.66667 7.33301 9.66667H6.66634Z" fill="#767676"/>
<path fill-rule="evenodd" clip-rule="evenodd" d="M2.66667 4C2.66667 3.91159 2.70179 3.82681 2.7643 3.7643C2.82681 3.70179 2.91159 3.66667 3 3.66667H4.66667V3H3C2.73478 3 2.48043 3.10536 2.29289 3.29289C2.10536 3.48043 2 3.73478 2 4V12C2 12.2652 2.10536 12.5196 2.29289 12.7071C2.48043 12.8946 2.73478 13 3 13H9.75167C9.60952 12.7964 9.50092 12.5713 9.43 12.3333H3C2.91159 12.3333 2.82681 12.2982 2.7643 12.2357C2.70179 12.1732 2.66667 12.0884 2.66667 12V4ZM11.3333 9.35667C11.5544 9.32504 11.7789 9.32504 12 9.35667V4C12 3.73478 11.8946 3.48043 11.7071 3.29289C11.5196 3.10536 11.2652 3 11 3H10V3.66667H11C11.0884 3.66667 11.1732 3.70179 11.2357 3.7643C11.2982 3.82681 11.3333 3.91159 11.3333 4V9.35667ZM5.33333 3.66667H8.85433V3H5.33333V3.66667Z" fill="#767676"/>
<path fill-rule="evenodd" clip-rule="evenodd" d="M9.33301 3H5.33301V4C5.33301 4.08841 5.29789 4.17319 5.23538 4.2357C5.17286 4.29821 5.08808 4.33333 4.99967 4.33333C4.91127 4.33333 4.82648 4.29821 4.76397 4.2357C4.70146 4.17319 4.66634 4.08841 4.66634 4V3H2.99967C2.82286 3 2.65329 3.07024 2.52827 3.19526C2.40325 3.32029 2.33301 3.48986 2.33301 3.66667V5.33333C2.33301 5.51014 2.40325 5.67971 2.52827 5.80474C2.65329 5.92976 2.82286 6 2.99967 6H10.9997C11.1765 6 11.3461 5.92976 11.4711 5.80474C11.5961 5.67971 11.6663 5.51014 11.6663 5.33333V3.66667C11.6663 3.48986 11.5961 3.32029 11.4711 3.19526C11.3461 3.07024 11.1765 3 10.9997 3H9.99967V4C9.99967 4.08841 9.96456 4.17319 9.90204 4.2357C9.83953 4.29821 9.75475 4.33333 9.66634 4.33333C9.57794 4.33333 9.49315 4.29821 9.43064 4.2357C9.36813 4.17319 9.33301 4.08841 9.33301 4V3Z" fill="#767676"/>
<path fill-rule="evenodd" clip-rule="evenodd" d="M12.0003 5.99967H2.66699V5.33301H12.0003V5.99967Z" fill="#767676"/>
<path d="M4 2.33333C4 2.24493 4.03512 2.16014 4.09763 2.09763C4.16014 2.03512 4.24493 2 4.33333 2C4.42174 2 4.50652 2.03512 4.56904 2.09763C4.63155 2.16014 4.66667 2.24493 4.66667 2.33333V3.66667C4.66667 3.75507 4.63155 3.83986 4.56904 3.90237C4.50652 3.96488 4.42174 4 4.33333 4C4.24493 4 4.16014 3.96488 4.09763 3.90237C4.03512 3.83986 4 3.75507 4 3.66667V2.33333ZM8.66667 2.33333C8.66667 2.24493 8.70179 2.16014 8.7643 2.09763C8.82681 2.03512 8.91159 2 9 2C9.08841 2 9.17319 2.03512 9.2357 2.09763C9.29821 2.16014 9.33333 2.24493 9.33333 2.33333V3.66667C9.33333 3.75507 9.29821 3.83986 9.2357 3.90237C9.17319 3.96488 9.08841 4 9 4C8.91159 4 8.82681 3.96488 8.7643 3.90237C8.70179 3.83986 8.66667 3.75507 8.66667 3.66667V2.33333Z" fill="#767676"/>
</svg>
