<svg width="10" height="11" viewBox="0 0 10 11" fill="none" xmlns="http://www.w3.org/2000/svg">
<path d="M3.75 5.25003H5C5.13261 5.25003 5.25979 5.19736 5.35356 5.10359C5.44733 5.00982 5.5 4.88264 5.5 4.75003C5.5 4.61743 5.44733 4.49025 5.35356 4.39648C5.25979 4.30271 5.13261 4.25003 5 4.25003H4.5V4.00003C4.5 3.86743 4.44733 3.74025 4.35356 3.64648C4.25979 3.55271 4.13261 3.50003 4 3.50003C3.8674 3.50003 3.74022 3.55271 3.64645 3.64648C3.55268 3.74025 3.5 3.86743 3.5 4.00003V4.27503C3.19622 4.33672 2.92618 4.50908 2.74233 4.75867C2.55848 5.00825 2.47392 5.31724 2.50508 5.62566C2.53623 5.93408 2.68087 6.21992 2.91092 6.42769C3.14097 6.63546 3.44002 6.75035 3.75 6.75003H4.25C4.31631 6.75003 4.3799 6.77637 4.42678 6.82326C4.47366 6.87014 4.5 6.93373 4.5 7.00003C4.5 7.06634 4.47366 7.12993 4.42678 7.17681C4.3799 7.2237 4.31631 7.25003 4.25 7.25003H3C2.8674 7.25003 2.74022 7.30271 2.64645 7.39648C2.55268 7.49025 2.5 7.61743 2.5 7.75003C2.5 7.88264 2.55268 8.00982 2.64645 8.10359C2.74022 8.19736 2.8674 8.25003 3 8.25003H3.5V8.50003C3.5 8.63264 3.55268 8.75982 3.64645 8.85359C3.74022 8.94736 3.8674 9.00003 4 9.00003C4.13261 9.00003 4.25979 8.94736 4.35356 8.85359C4.44733 8.75982 4.5 8.63264 4.5 8.50003V8.22503C4.80379 8.16335 5.07382 7.99098 5.25768 7.7414C5.44153 7.49182 5.52608 7.18283 5.49493 6.87441C5.46378 6.56599 5.31914 6.28015 5.08909 6.07238C4.85904 5.8646 4.55999 5.74972 4.25 5.75003H3.75C3.6837 5.75003 3.62011 5.7237 3.57323 5.67681C3.52634 5.62993 3.5 5.56634 3.5 5.50003C3.5 5.43373 3.52634 5.37014 3.57323 5.32326C3.62011 5.27637 3.6837 5.25003 3.75 5.25003ZM9.5 6.00003H8V1.50003C8.00035 1.41193 7.97742 1.3253 7.93351 1.24891C7.88961 1.17252 7.82631 1.10909 7.75 1.06503C7.67399 1.02115 7.58777 0.998047 7.5 0.998047C7.41224 0.998047 7.32601 1.02115 7.25 1.06503L5.75 1.92503L4.25 1.06503C4.17399 1.02115 4.08777 0.998047 4 0.998047C3.91224 0.998047 3.82601 1.02115 3.75 1.06503L2.25 1.92503L0.750004 1.06503C0.673994 1.02115 0.587772 0.998047 0.500004 0.998047C0.412236 0.998047 0.326014 1.02115 0.250004 1.06503C0.173702 1.10909 0.110395 1.17252 0.066493 1.24891C0.0225914 1.3253 -0.000345842 1.41193 3.94144e-06 1.50003V9.50003C3.94144e-06 9.89786 0.158039 10.2794 0.439344 10.5607C0.720648 10.842 1.10218 11 1.5 11H8.5C8.89783 11 9.27936 10.842 9.56066 10.5607C9.84197 10.2794 10 9.89786 10 9.50003V6.50003C10 6.36743 9.94733 6.24025 9.85356 6.14648C9.75979 6.05271 9.63261 6.00003 9.5 6.00003ZM1.5 10C1.3674 10 1.24022 9.94736 1.14645 9.85359C1.05268 9.75982 1 9.63264 1 9.50003V2.36503L2 2.93503C2.07717 2.97534 2.16294 2.99639 2.25 2.99639C2.33706 2.99639 2.42284 2.97534 2.5 2.93503L4 2.07503L5.5 2.93503C5.57717 2.97534 5.66294 2.99639 5.75 2.99639C5.83706 2.99639 5.92283 2.97534 6 2.93503L7 2.36503V9.50003C7.00136 9.67061 7.03179 9.8397 7.09 10H1.5ZM9 9.50003C9 9.63264 8.94733 9.75982 8.85356 9.85359C8.75979 9.94736 8.63261 10 8.5 10C8.3674 10 8.24022 9.94736 8.14645 9.85359C8.05268 9.75982 8 9.63264 8 9.50003V7.00003H9V9.50003Z" fill="#000728"/>
</svg>
