<svg width="12" height="12" viewBox="0 0 12 12" fill="none" xmlns="http://www.w3.org/2000/svg">
<path d="M11.7453 5.25021L11.0628 3.24021L6.46532 0.637712C6.323 0.558916 6.163 0.517578 6.00032 0.517578C5.83765 0.517578 5.67764 0.558916 5.53532 0.637712L0.937822 3.24021L0.255322 5.25021C0.182315 5.45884 0.185998 5.68664 0.265711 5.8928C0.345424 6.09895 0.495955 6.26997 0.690322 6.37521L0.937822 6.51021V8.25021C0.948603 8.4045 0.997389 8.55372 1.07983 8.68458C1.16227 8.81544 1.27581 8.92387 1.41032 9.00021L5.53532 11.3327C5.67764 11.4115 5.83765 11.4528 6.00032 11.4528C6.163 11.4528 6.323 11.4115 6.46532 11.3327L10.5903 9.00021C10.7248 8.92387 10.8384 8.81544 10.9208 8.68458C11.0033 8.55372 11.052 8.4045 11.0628 8.25021V6.51021L11.3103 6.37521C11.5047 6.26997 11.6552 6.09895 11.7349 5.8928C11.8146 5.68664 11.8183 5.45884 11.7453 5.25021ZM7.50032 7.40271L7.14032 6.44271L10.5003 4.59771L10.8303 5.55771L7.50032 7.40271ZM6.00032 1.45521L10.0953 3.75021L6.00032 6.00021L1.90532 3.75021L6.00032 1.45521ZM1.14032 5.55771L1.50032 4.59771L4.86032 6.44271L4.50032 7.40271L1.14032 5.55771ZM1.89032 7.02021L5.07782 8.76021L5.54282 7.38021V10.2827L1.87532 8.25021L1.89032 7.02021ZM10.1253 8.25021L6.46532 10.2827V7.38021L6.93782 8.76021L10.1253 7.02021V8.25021Z" fill="#000728"/>
</svg>
