<svg width="12" height="12" viewBox="0 0 12 12" fill="none" xmlns="http://www.w3.org/2000/svg">
<path d="M10.7996 4.00033C10.7387 4.00058 10.6785 3.9869 10.6236 3.96033L5.99962 1.60033L1.37562 3.94433C1.27696 3.99101 1.1638 3.99658 1.06103 3.95982C0.958257 3.92307 0.874298 3.84699 0.82762 3.74833C0.780942 3.64967 0.775368 3.5365 0.812125 3.43374C0.848882 3.33097 0.924959 3.24701 1.02362 3.20033L5.99962 0.736328L10.9756 3.20033C11.0805 3.22483 11.1715 3.28967 11.229 3.38079C11.2864 3.47192 11.3056 3.582 11.2825 3.6872C11.2593 3.79239 11.1957 3.88424 11.1053 3.94285C11.0149 4.00146 10.9051 4.02211 10.7996 4.00033ZM3.99962 8.00033H1.59962V10.4003H3.99962V8.00033ZM7.19962 8.00033H4.79962V10.4003H7.19962V8.00033ZM10.3996 8.00033H7.99962V10.4003H10.3996V8.00033ZM8.79962 4.80033H6.39962V7.20033H8.79962V4.80033ZM5.59962 4.80033H3.19962V7.20033H5.59962V4.80033Z" fill="#000728"/>
</svg>
