<svg width="10" height="12" viewBox="0 0 10 12" fill="none" xmlns="http://www.w3.org/2000/svg">
<path d="M4.5145 1.27029C4.66302 1.18781 4.83011 1.14453 5 1.14453C5.16989 1.14453 5.33698 1.18781 5.4855 1.27029L9.243 3.35729C9.3209 3.40061 9.38581 3.46397 9.43099 3.54081C9.47618 3.61764 9.5 3.70516 9.5 3.79429V7.91179C9.49996 8.09012 9.45223 8.26519 9.36177 8.41886C9.27131 8.57253 9.1414 8.69922 8.9855 8.78579L5.4855 10.7308C5.33698 10.8133 5.16989 10.8566 5 10.8566C4.83011 10.8566 4.66302 10.8133 4.5145 10.7308L1.0145 8.78579C0.858678 8.69926 0.728816 8.57265 0.638357 8.41907C0.547899 8.2655 0.500131 8.09053 0.5 7.91229V3.79429C0.499996 3.70516 0.523821 3.61764 0.569008 3.54081C0.614194 3.46397 0.679098 3.40061 0.757 3.35729L4.515 1.27029H4.5145Z" stroke="#000728" stroke-linecap="round" stroke-linejoin="round"/>
<path d="M0.5 3.5L5 6M5 6L9.5 3.5M5 6V10.75" stroke="#000728" stroke-linejoin="round"/>
<path d="M2.75 4.75L7.25 2.25M2 6.164L3.5 7" stroke="#000728" stroke-linecap="round" stroke-linejoin="round"/>
</svg>
