<svg width="16" height="16" viewBox="0 0 16 16" fill="none" xmlns="http://www.w3.org/2000/svg">
<path d="M13.8558 3.18269H2.96635C2.41169 3.18269 1.87974 3.40303 1.48754 3.79523C1.09534 4.18744 0.875 4.71938 0.875 5.27404V10.9712C0.875 11.5067 1.08774 12.0203 1.46642 12.399C1.8451 12.7776 2.3587 12.9904 2.89423 12.9904H3.18269V14.4212C3.18269 14.8067 3.33587 15.1765 3.60851 15.4492C3.88116 15.7218 4.25095 15.875 4.63654 15.875H12.1135C12.499 15.875 12.8688 15.7218 13.1415 15.4492C13.4141 15.1765 13.5673 14.8067 13.5673 14.4212V12.9904H13.8558C14.3913 12.9904 14.9049 12.7776 15.2836 12.399C15.6623 12.0203 15.875 11.5067 15.875 10.9712V5.20192C15.875 4.66639 15.6623 4.15279 15.2836 3.77411C14.9049 3.39543 14.3913 3.18269 13.8558 3.18269ZM12.4135 14.4212C12.4132 14.5006 12.3815 14.5768 12.3253 14.633C12.2691 14.6892 12.1929 14.7209 12.1135 14.7212H4.63654C4.55706 14.7209 4.48092 14.6892 4.42472 14.633C4.36852 14.5768 4.33682 14.5006 4.33654 14.4212V8.675C4.33682 8.59552 4.36852 8.51938 4.42472 8.46318C4.48092 8.40698 4.55706 8.37529 4.63654 8.375H12.1135C12.1929 8.37529 12.2691 8.40698 12.3253 8.46318C12.3815 8.51938 12.4132 8.59552 12.4135 8.675V14.4212ZM13.351 6.64135C13.1745 6.65553 12.9979 6.61523 12.845 6.52589C12.6921 6.43654 12.5703 6.30244 12.496 6.1417C12.4218 5.98095 12.3986 5.80129 12.4297 5.62697C12.4607 5.45264 12.5445 5.29203 12.6697 5.16682C12.7949 5.04162 12.9555 4.95783 13.1299 4.92677C13.3042 4.89572 13.4838 4.91889 13.6446 4.99315C13.8053 5.06742 13.9394 5.18921 14.0288 5.34209C14.1181 5.49497 14.1584 5.67157 14.1442 5.84808C14.1278 6.05297 14.0389 6.24531 13.8935 6.39066C13.7482 6.53601 13.5559 6.62488 13.351 6.64135ZM11.5481 0.875H5.20192C4.71659 0.875723 4.2477 1.05095 3.88084 1.36869C3.51397 1.68644 3.27361 2.12551 3.20361 2.60577H13.5464C13.4764 2.12551 13.236 1.68644 12.8692 1.36869C12.5023 1.05095 12.0334 0.875723 11.5481 0.875Z" fill="white"/>
</svg>
