<svg width="12" height="13" viewBox="0 0 12 13" fill="none" xmlns="http://www.w3.org/2000/svg">
<path d="M10.325 9.46016L9.32724 8.79494L8.44028 8.20374C8.26911 8.08985 8.03906 8.12719 7.9127 8.2894L7.36386 8.99496C7.24597 9.14806 7.03389 9.19206 6.86482 9.09845C6.49242 8.8913 6.05204 8.69625 5.08037 7.72333C4.10869 6.75041 3.9124 6.31128 3.70525 5.93888C3.61164 5.76981 3.65564 5.55774 3.80874 5.43986L4.5143 4.89102C4.6765 4.76467 4.71385 4.53463 4.59996 4.36344L4.02692 3.50379L3.34355 2.47872C3.22723 2.30424 2.9944 2.25186 2.81457 2.3597L2.02645 2.83251C1.81346 2.958 1.65689 3.16063 1.58918 3.39841C1.37366 4.1842 1.33021 5.91761 4.10822 8.69562C6.88623 11.4736 8.61949 11.43 9.40527 11.2145C9.64305 11.1468 9.84569 10.9902 9.97118 10.7772L10.444 9.98913C10.5518 9.80929 10.4995 9.57647 10.325 9.46016Z" fill="#3F92D1"/>
<path d="M6.55198 4.04539C7.84637 4.04682 8.89535 5.09578 8.89678 6.39019C8.89678 6.46636 8.95853 6.52812 9.03472 6.52812C9.11089 6.52812 9.17266 6.46637 9.17266 6.39019C9.17106 4.9435 7.99868 3.77112 6.552 3.76953C6.47583 3.76953 6.41406 3.83128 6.41406 3.90747C6.41405 3.98362 6.4758 4.04539 6.55198 4.04539Z" fill="#3F92D1"/>
<path d="M6.552 4.87255C7.38954 4.87354 8.06823 5.55225 8.06922 6.38977C8.06922 6.46594 8.13096 6.5277 8.20715 6.5277C8.28332 6.5277 8.34509 6.46595 8.34509 6.38977C8.34395 5.39995 7.54183 4.59782 6.552 4.59668C6.47583 4.59668 6.41406 4.65843 6.41406 4.73462C6.41406 4.8108 6.47581 4.87255 6.552 4.87255Z" fill="#3F92D1"/>
<path d="M6.55198 5.70066C6.93268 5.70111 7.24118 6.00961 7.24163 6.39031C7.24163 6.46648 7.30338 6.52824 7.37957 6.52824C7.45574 6.52824 7.5175 6.4665 7.5175 6.39031C7.51689 5.85733 7.08498 5.42541 6.552 5.4248C6.47583 5.4248 6.41406 5.48655 6.41406 5.56274C6.41405 5.63891 6.4758 5.70066 6.55198 5.70066Z" fill="#3F92D1"/>
</svg>
