<svg width="12" height="12" viewBox="0 0 12 12" fill="none" xmlns="http://www.w3.org/2000/svg">
<path d="M8.00051 8.26181L9.03383 7.26038C9.173 7.12717 9.34909 7.03599 9.5407 6.9979C9.73232 6.9598 9.93123 6.97644 10.1133 7.04579L11.3726 7.53309C11.5566 7.60546 11.7143 7.72899 11.826 7.88811C11.9376 8.04722 11.9982 8.23481 12 8.42722V10.6626C11.9989 10.7934 11.9705 10.9228 11.9165 11.0428C11.8625 11.1627 11.784 11.2709 11.6858 11.3607C11.5875 11.4505 11.4715 11.5201 11.3448 11.5653C11.218 11.6105 11.0831 11.6304 10.9482 11.6238C2.12352 11.0917 0.342894 3.84926 0.00614338 1.07745C-0.00948881 0.941333 0.0047939 0.803553 0.0480519 0.673171C0.0913098 0.542789 0.162563 0.422761 0.257123 0.320984C0.351683 0.219206 0.467407 0.137985 0.596683 0.0826647C0.725958 0.0273442 0.865855 -0.000822227 1.00717 1.82712e-05H3.23526C3.43408 0.000588633 3.62819 0.058793 3.7926 0.167145C3.95702 0.275497 4.08422 0.429041 4.15786 0.608029L4.66068 1.82852C4.73461 2.00425 4.75347 2.19719 4.71491 2.38325C4.67635 2.5693 4.58208 2.74022 4.44387 2.87466L3.41055 3.87609C3.41055 3.87609 4.00563 7.77898 8.00051 8.26181Z" fill="#767676"/>
</svg>
