<svg width="12" height="12" viewBox="0 0 12 12" fill="none" xmlns="http://www.w3.org/2000/svg">
<path d="M7.70517 7.343C7.62908 7.31875 7.14811 7.10747 7.44866 6.21711H7.44435C8.22778 5.43076 8.82648 4.16542 8.82648 2.91966C8.82648 1.00416 7.51949 0 6.00048 0C4.48052 0 3.1807 1.00369 3.1807 2.91966C3.1807 4.17055 3.77605 5.44102 4.56427 6.2255C4.87151 7.01092 4.32211 7.30242 4.20725 7.34346C2.61645 7.90408 0.75 8.92596 0.75 9.93478V10.313C0.75 11.6875 3.48459 12 6.01532 12C8.54986 12 11.25 11.6875 11.25 10.313V9.93478C11.25 8.89564 9.37445 7.88169 7.70517 7.343Z" fill="#767676"/>
</svg>
