<svg width="16" height="16" viewBox="0 0 16 16" fill="none" xmlns="http://www.w3.org/2000/svg">
<path d="M3.99935 13.3337C3.44379 13.3337 2.97157 13.1392 2.58268 12.7503C2.19379 12.3614 1.99935 11.8892 1.99935 11.3337C1.63268 11.3337 1.3189 11.2032 1.05802 10.9423C0.796682 10.681 0.666016 10.367 0.666016 10.0003V4.00033C0.666016 3.63366 0.796682 3.31988 1.05802 3.05899C1.3189 2.79766 1.63268 2.66699 1.99935 2.66699H9.99935C10.366 2.66699 10.68 2.79766 10.9413 3.05899C11.2022 3.31988 11.3327 3.63366 11.3327 4.00033V5.33366H12.9993C13.1105 5.33366 13.2105 5.35588 13.2993 5.40033C13.3882 5.44477 13.466 5.51144 13.5327 5.60033L15.1993 7.81699C15.2438 7.87255 15.2771 7.93366 15.2993 8.00033C15.3216 8.06699 15.3327 8.13921 15.3327 8.21699V10.667C15.3327 10.8559 15.2687 11.0141 15.1407 11.1417C15.0131 11.2697 14.8549 11.3337 14.666 11.3337H13.9993C13.9993 11.8892 13.8049 12.3614 13.416 12.7503C13.0271 13.1392 12.5549 13.3337 11.9993 13.3337C11.4438 13.3337 10.9716 13.1392 10.5827 12.7503C10.1938 12.3614 9.99935 11.8892 9.99935 11.3337H5.99935C5.99935 11.8892 5.8049 12.3614 5.41602 12.7503C5.02713 13.1392 4.5549 13.3337 3.99935 13.3337ZM3.99935 12.0003C4.18824 12.0003 4.34668 11.9363 4.47468 11.8083C4.60224 11.6808 4.66602 11.5225 4.66602 11.3337C4.66602 11.1448 4.60224 10.9865 4.47468 10.859C4.34668 10.731 4.18824 10.667 3.99935 10.667C3.81046 10.667 3.65202 10.731 3.52402 10.859C3.39646 10.9865 3.33268 11.1448 3.33268 11.3337C3.33268 11.5225 3.39646 11.6808 3.52402 11.8083C3.65202 11.9363 3.81046 12.0003 3.99935 12.0003ZM1.99935 4.00033V10.0003H2.53268C2.72157 9.80033 2.93824 9.63921 3.18268 9.51699C3.42713 9.39477 3.69935 9.33366 3.99935 9.33366C4.29935 9.33366 4.57157 9.39477 4.81602 9.51699C5.06046 9.63921 5.27713 9.80033 5.46602 10.0003H9.99935V4.00033H1.99935ZM11.9993 12.0003C12.1882 12.0003 12.3465 11.9363 12.474 11.8083C12.602 11.6808 12.666 11.5225 12.666 11.3337C12.666 11.1448 12.602 10.9865 12.474 10.859C12.3465 10.731 12.1882 10.667 11.9993 10.667C11.8105 10.667 11.6522 10.731 11.5247 10.859C11.3967 10.9865 11.3327 11.1448 11.3327 11.3337C11.3327 11.5225 11.3967 11.6808 11.5247 11.8083C11.6522 11.9363 11.8105 12.0003 11.9993 12.0003ZM11.3327 8.66699H14.166L12.666 6.66699H11.3327V8.66699Z" fill="#0688EE"/>
</svg>
