<svg width="16" height="16" viewBox="0 0 16 16" fill="none" xmlns="http://www.w3.org/2000/svg">
<path d="M14.3995 5.33345C14.3182 5.33378 14.238 5.31554 14.1648 5.28011L7.99949 2.13345L1.83416 5.25878C1.70261 5.32102 1.55173 5.32845 1.4147 5.27944C1.27768 5.23043 1.16573 5.12899 1.10349 4.99745C1.04126 4.8659 1.03382 4.71501 1.08283 4.57799C1.13184 4.44096 1.23328 4.32902 1.36483 4.26678L7.99949 0.981445L14.6342 4.26678C14.774 4.29945 14.8954 4.3859 14.9719 4.5074C15.0485 4.6289 15.0742 4.77567 15.0433 4.91593C15.0124 5.0562 14.9276 5.17866 14.8071 5.25681C14.6866 5.33495 14.5401 5.36248 14.3995 5.33345ZM5.33283 10.6668H2.13283V13.8668H5.33283V10.6668ZM9.59949 10.6668H6.39949V13.8668H9.59949V10.6668ZM13.8662 10.6668H10.6662V13.8668H13.8662V10.6668ZM11.7328 6.40011H8.53283V9.60011H11.7328V6.40011ZM7.46616 6.40011H4.26616V9.60011H7.46616V6.40011Z" fill="#207CDC"/>
</svg>
