<svg width="15" height="15" viewBox="0 0 15 15" fill="none" xmlns="http://www.w3.org/2000/svg">
<g clip-path="url(#clip0_3438_4404)">
<path d="M13.3244 3.33105H1.66554C1.44468 3.33105 1.23285 3.41879 1.07668 3.57497C0.920502 3.73115 0.832764 3.94297 0.832764 4.16383V10.8261C0.832764 11.0469 0.920502 11.2587 1.07668 11.4149C1.23285 11.5711 1.44468 11.6588 1.66554 11.6588H13.3244C13.5453 11.6588 13.7571 11.5711 13.9133 11.4149C14.0695 11.2587 14.1572 11.0469 14.1572 10.8261V4.16383C14.1572 3.94297 14.0695 3.73115 13.9133 3.57497C13.7571 3.41879 13.5453 3.33105 13.3244 3.33105ZM1.66554 10.8261V8.80657C2.18606 8.84489 2.67503 9.07066 3.04179 9.44201C3.40854 9.81336 3.6282 10.3051 3.66004 10.8261H1.66554ZM1.66554 6.18332V4.16383H3.66004C3.6282 4.68479 3.40854 5.17653 3.04179 5.54788C2.67503 5.91923 2.18606 6.145 1.66554 6.18332ZM7.49499 10.4721C6.05012 10.4721 4.87174 9.13552 4.87174 7.49494C4.87174 5.85437 6.05012 4.51776 7.49499 4.51776C8.93985 4.51776 10.1182 5.85437 10.1182 7.49494C10.1182 9.13552 8.93985 10.4721 7.49499 10.4721ZM13.3244 10.8261H11.3466C11.3779 10.3077 11.5953 9.81814 11.9586 9.44716C12.3219 9.07618 12.8069 8.84873 13.3244 8.80657V10.8261ZM13.3244 6.18332C12.8069 6.14116 12.3219 5.91371 11.9586 5.54273C11.5953 5.17175 11.3779 4.68215 11.3466 4.16383H13.3244V6.18332Z" fill="#0688EE"/>
<path d="M7.49499 9.46001C8.41485 9.46001 9.16055 8.58009 9.16055 7.49465C9.16055 6.40922 8.41485 5.5293 7.49499 5.5293C6.57513 5.5293 5.82944 6.40922 5.82944 7.49465C5.82944 8.58009 6.57513 9.46001 7.49499 9.46001Z" fill="#0688EE"/>
</g>
<defs>
<clipPath id="clip0_3438_4404">
<rect width="14.99" height="14.99" fill="white"/>
</clipPath>
</defs>
</svg>
