<svg width="18" height="16" viewBox="0 0 18 16" fill="none" xmlns="http://www.w3.org/2000/svg">
<path d="M4.2704 12.6667C4.2704 13.4 4.91102 14 5.69401 14H11.3885C12.1714 14 12.8121 13.4 12.8121 12.6667V6C12.8121 5.26667 12.1714 4.66667 11.3885 4.66667H5.69401C4.91102 4.66667 4.2704 5.26667 4.2704 6V12.6667ZM12.8121 2.66667H11.0326L10.5272 2.19333C10.399 2.07333 10.214 2 10.0289 2H7.05356C6.86849 2 6.68342 2.07333 6.5553 2.19333L6.04991 2.66667H4.2704C3.87891 2.66667 3.55859 2.96667 3.55859 3.33333C3.55859 3.7 3.87891 4 4.2704 4H12.8121C13.2036 4 13.5239 3.7 13.5239 3.33333C13.5239 2.96667 13.2036 2.66667 12.8121 2.66667Z" fill="#767676"/>
</svg>
