<svg width="20" height="20" viewBox="0 0 20 20" fill="none" xmlns="http://www.w3.org/2000/svg">
<g clip-path="url(#clip0_3522_3947)">
<path d="M17.7778 4.44434H2.2222C1.92751 4.44434 1.64489 4.5614 1.43652 4.76977C1.22815 4.97815 1.11108 5.26076 1.11108 5.55545V14.4443C1.11108 14.739 1.22815 15.0216 1.43652 15.23C1.64489 15.4384 1.92751 15.5554 2.2222 15.5554H17.7778C18.0724 15.5554 18.3551 15.4384 18.5634 15.23C18.7718 15.0216 18.8889 14.739 18.8889 14.4443V5.55545C18.8889 5.26076 18.7718 4.97815 18.5634 4.76977C18.3551 4.5614 18.0724 4.44434 17.7778 4.44434ZM2.2222 14.4443V11.7499C2.91669 11.801 3.56908 12.1022 4.05841 12.5977C4.54774 13.0932 4.84082 13.7493 4.88331 14.4443H2.2222ZM2.2222 8.24989V5.55545H4.88331C4.84082 6.25052 4.54774 6.90661 4.05841 7.40207C3.56908 7.89754 2.91669 8.19876 2.2222 8.24989ZM9.99997 13.9721C8.07219 13.9721 6.49997 12.1888 6.49997 9.99989C6.49997 7.811 8.07219 6.02767 9.99997 6.02767C11.9277 6.02767 13.5 7.811 13.5 9.99989C13.5 12.1888 11.9277 13.9721 9.99997 13.9721ZM17.7778 14.4443H15.1389C15.1807 13.7528 15.4706 13.0995 15.9554 12.6046C16.4402 12.1096 17.0872 11.8061 17.7778 11.7499V14.4443ZM17.7778 8.24989C17.0872 8.19365 16.4402 7.89017 15.9554 7.3952C15.4706 6.90023 15.1807 6.247 15.1389 5.55545H17.7778V8.24989Z" fill="white"/>
<path d="M9.99999 12.6224C11.2273 12.6224 12.2222 11.4484 12.2222 10.0002C12.2222 8.55194 11.2273 7.37793 9.99999 7.37793C8.77269 7.37793 7.77777 8.55194 7.77777 10.0002C7.77777 11.4484 8.77269 12.6224 9.99999 12.6224Z" fill="white"/>
</g>
<defs>
<clipPath id="clip0_3522_3947">
<rect width="20" height="20" fill="white"/>
</clipPath>
</defs>
</svg>
