<svg width="16" height="16" viewBox="0 0 16 16" fill="none" xmlns="http://www.w3.org/2000/svg">
<path d="M8.84 2.00037C5.44667 1.90704 2.66667 4.63371 2.66667 8.00037H1.47333C1.17333 8.00037 1.02667 8.36037 1.24 8.56704L3.1 10.4337C3.23333 10.567 3.44 10.567 3.57333 10.4337L5.43333 8.56704C5.4794 8.52004 5.51053 8.46046 5.52279 8.3958C5.53505 8.33114 5.5279 8.2643 5.50223 8.2037C5.47656 8.1431 5.43354 8.09146 5.37856 8.05527C5.32359 8.01909 5.25914 7.99999 5.19333 8.00037H4C4 5.40037 6.12 3.30037 8.73333 3.33371C11.2133 3.36704 13.3 5.45371 13.3333 7.93371C13.3667 10.5404 11.2667 12.667 8.66667 12.667C7.59333 12.667 6.6 12.3004 5.81333 11.6804C5.68564 11.5798 5.52543 11.5296 5.36318 11.5395C5.20092 11.5493 5.04794 11.6184 4.93333 11.7337C4.65333 12.0137 4.67333 12.487 4.98667 12.727C6.03408 13.5554 7.33131 14.0042 8.66667 14.0004C12.0333 14.0004 14.76 11.2204 14.6667 7.82704C14.58 4.70037 11.9667 2.08704 8.84 2.00037ZM8.5 5.33371C8.22667 5.33371 8 5.56037 8 5.83371V8.28704C8 8.52037 8.12667 8.74037 8.32667 8.86037L10.4067 10.0937C10.6467 10.2337 10.9533 10.1537 11.0933 9.92037C11.2333 9.68037 11.1533 9.37371 10.92 9.23371L9 8.09371V5.82704C9 5.56037 8.77333 5.33371 8.5 5.33371Z" fill="#767676"/>
</svg>
