<svg width="16" height="16" viewBox="0 0 16 16" fill="none" xmlns="http://www.w3.org/2000/svg">
<path d="M2.42002 2C2.30862 2 2.20179 2.04425 2.12302 2.12301C2.04425 2.20178 2 2.30861 2 2.42V7.38679C2.00032 8.45265 2.42393 9.47475 3.1777 10.2284C3.93147 10.982 4.95368 11.4054 6.01959 11.4056L12.6175 11.405L10.7388 13.283C10.6998 13.322 10.6689 13.3683 10.6478 13.4192C10.6267 13.4702 10.6158 13.5248 10.6158 13.58C10.6158 13.6351 10.6267 13.6898 10.6478 13.7407C10.6689 13.7917 10.6998 13.838 10.7388 13.877C10.7778 13.916 10.8241 13.9469 10.8751 13.968C10.926 13.9891 10.9807 14 11.0358 14C11.091 14 11.1456 13.9891 11.1966 13.968C11.2475 13.9469 11.2938 13.916 11.3328 13.877L13.877 11.3324C13.916 11.2934 13.9469 11.2471 13.968 11.1961C13.9891 11.1452 14 11.0905 14 11.0354C14 10.9802 13.9891 10.9256 13.968 10.8746C13.9469 10.8237 13.916 10.7774 13.877 10.7384L11.3322 8.19379C11.2932 8.15479 11.2469 8.12385 11.196 8.10274C11.145 8.08163 11.0904 8.07077 11.0352 8.07077C10.9801 8.07077 10.9254 8.08163 10.8745 8.10274C10.8235 8.12385 10.7772 8.15479 10.7382 8.19379C10.6992 8.23279 10.6683 8.27909 10.6472 8.33005C10.6261 8.38101 10.6152 8.43563 10.6152 8.49079C10.6152 8.54595 10.6261 8.60056 10.6472 8.65152C10.6683 8.70248 10.6992 8.74878 10.7382 8.78779L12.5173 10.5656H6.01899C5.17593 10.5654 4.36744 10.2305 3.77131 9.63436C3.17517 9.03826 2.8402 8.22981 2.84004 7.38679V2.42C2.84004 2.30861 2.79579 2.20178 2.71702 2.12301C2.63825 2.04425 2.53142 2 2.42002 2Z" fill="black"/>
</svg>
